<?xml version="1.0" encoding="UTF-8"?>
<svg id="Layer_1" xmlns="http://www.w3.org/2000/svg" version="1.1" viewBox="0 0 99 35">
  <!-- Generator: Adobe Illustrator 30.0.0, SVG Export Plug-In . SVG Version: 2.1.1 Build 123)  -->
  <defs>
    <style>
      .st0 {
        fill: none;
        stroke: #81c341;
        stroke-linecap: round;
        stroke-width: 2px;
      }
    </style>
  </defs>
  <path d="M41.28,31.19v-10.76l-1.43-14.54,12.67.69c2.37,0,4.24.62,5.62,1.87,1.4,1.24,2.1,3.34,2.1,6.29,0,2.49-.51,4.38-1.52,5.68-1.01,1.27-2.42,2.06-4.2,2.35l5.44,12.22h-4.89l-4.89-12.02h-5.08l-1.66,6.82-2.15,1.39ZM45.09,18.6h6.85c1.23,0,2.19-.3,2.86-.89.68-.6,1.01-1.58,1.01-2.96s-.34-2.33-1.01-2.92c-.68-.6-1.63-.89-2.86-.89h-6.85v7.67Z"/>
  <path d="M55.23,35l11.46-29.11h4.38l11.46,29.11h-5.62l-2.32-6.4h-11.55l-2.32,6.4h-5.5ZM64.68,24.15h8.33l-4.12-11.35-4.21,11.35Z"/>
  <path d="M44.64,20.17v5.26c-.28,2.06,0,1.11-.28,3.32-1.3,2.33.15-1.04-1.33,2.39-.79,0-1.4,3.87-8.91,3.87-2.01,0-4.14-.63-5.63-1.39-1.48-.76-1.99-1.77-2.96-3.12-.95-1.38-1.48-2.09-1.97-4-.46-1.91-.56-3.99-.56-6.33,0-3.12-.28-5.88.56-8.19.86-2.31,2.15-4.09,3.89-5.36,1.76-1.29,3.99-1.94,6.7-1.94,2.79.29,7.17,1.21,14.58,1.77-1.52,2.39-5.79,3.69-4.96,6.03.8,2.25.86,4.57.86,7.69ZM27.83,20.17c0,2.11.22,3.92.66,5.44.44,1.52,1.12,2.69,2.05,3.5.93.82,2.12,1.22,3.58,1.22s2.71-.41,3.61-1.22c.93-.82,1.6-1.98,2.01-3.5.44-1.52.66-3.33.66-5.44,0-3.18-.49-5.67-1.46-7.47-.97-1.8-2.57-2.7-4.79-2.7-1.48,0-2.69.41-3.61,1.22-.93.82-1.61,1.98-2.05,3.5-.44,1.52-.66,3.33-.66,5.44ZM39.75,0l.1,2.61h-11.49V0h11.39Z"/>
  <path d="M4.42,35L15.89,5.89h4.38l11.46,29.11-3.33-3.12-3.94-3.29h-12.22l-2.32,6.4h-5.5ZM13.87,24.15h8.33l-4.12-11.35-4.21,11.35Z"/>
  <path class="st0" d="M1,20.68c.26,0,4.93,0,12.32-.05,6.03-.04,12.77-2.91,16.67-5.09.5-.28.85-.52.79-.42-.85,1.42-1.76,2.87-1.7,4.78.02.73,1.63.98,3.26,1.29,4.69.89,7.54-2.15,8.32-2.67,1.26-.83,3.01,1.84,5.76,2.11,2.09.2,4.19.25,7.26.21,1.86-.03,3.08-.87,4-1.03,2.58-.44,4.46,1.18,5.04,1.49.67.36,1.64-.72,2.75-.87,2.66-.37,6.08.87,8.64.67,1.24-.1,8.13.21,17.81.15,3.46-.05,3.98-.15,4.51-.21.53-.05,1.04-.05,1.58-.05"/>
</svg>