<?xml version="1.0" encoding="UTF-8"?>
<svg id="Outline" xmlns="http://www.w3.org/2000/svg" xmlns:xlink="http://www.w3.org/1999/xlink" viewBox="0 0 250 300">
  <defs>
    <style>
      .cls-1, .cls-2, .cls-3, .cls-4, .cls-5, .cls-6, .cls-7, .cls-8, .cls-9, .cls-10, .cls-11, .cls-12, .cls-13, .cls-14, .cls-15, .cls-16, .cls-17, .cls-18, .cls-19, .cls-20, .cls-21, .cls-22, .cls-23, .cls-24, .cls-25, .cls-26 {
        stroke-miterlimit: 10;
      }

      .cls-1, .cls-2, .cls-3, .cls-4, .cls-5, .cls-6, .cls-7, .cls-8, .cls-9, .cls-11, .cls-12, .cls-13, .cls-14, .cls-15, .cls-16, .cls-17, .cls-18, .cls-19, .cls-20, .cls-21, .cls-22, .cls-23, .cls-24, .cls-25, .cls-26 {
        stroke: #000;
      }

      .cls-1, .cls-8 {
        fill: #736357;
      }

      .cls-2 {
        fill: #c1272d;
      }

      .cls-2, .cls-13, .cls-19 {
        stroke-width: .75px;
      }

      .cls-27 {
        fill: #603813;
      }

      .cls-3 {
        stroke-width: .1px;
      }

      .cls-3, .cls-6, .cls-11, .cls-20, .cls-21 {
        fill: none;
      }

      .cls-4 {
        fill: #999;
      }

      .cls-4, .cls-6, .cls-14 {
        stroke-width: .05px;
      }

      .cls-5 {
        fill: #009245;
      }

      .cls-5, .cls-15, .cls-18, .cls-22, .cls-24, .cls-26 {
        stroke-width: .5px;
      }

      .cls-28 {
        fill: #a67c52;
      }

      .cls-7, .cls-8, .cls-23, .cls-25 {
        stroke-width: .25px;
      }

      .cls-7, .cls-29 {
        fill: #c7b299;
      }

      .cls-9, .cls-30 {
        fill: #998675;
      }

      .cls-10 {
        fill: url(#linear-gradient);
        stroke: #42210b;
      }

      .cls-11 {
        stroke-width: 0px;
      }

      .cls-12, .cls-26 {
        fill: #666;
      }

      .cls-31 {
        fill: #4d4d4d;
      }

      .cls-13, .cls-32 {
        fill: #c69c6d;
      }

      .cls-14, .cls-22, .cls-23 {
        fill: #bdccd4;
      }

      .cls-33 {
        fill: #6e4929;
      }

      .cls-15, .cls-34 {
        fill: #2b1607;
      }

      .cls-16, .cls-19 {
        fill: #39b54a;
      }

      .cls-17 {
        fill: #1a1a1a;
      }

      .cls-18 {
        fill: #8cc63f;
      }

      .cls-21 {
        stroke-width: .15px;
      }

      .cls-35 {
        fill: #c6aa8b;
      }

      .cls-36 {
        fill: #42210b;
      }

      .cls-24 {
        fill: red;
      }

      .cls-25 {
        fill: #ff0;
      }
    </style>
    <linearGradient id="linear-gradient" x1="-22.79" y1="149.99" x2="275" y2="149.99" gradientTransform="translate(-1.11 -1.09)" gradientUnits="userSpaceOnUse">
      <stop offset=".21" stop-color="#cce0f4"/>
      <stop offset=".32" stop-color="#c9def3"/>
      <stop offset=".4" stop-color="#bfdbf1"/>
      <stop offset=".47" stop-color="#afd4ef"/>
      <stop offset=".54" stop-color="#98cbeb"/>
      <stop offset=".6" stop-color="#7bc0e6"/>
      <stop offset=".66" stop-color="#56b2e0"/>
      <stop offset=".72" stop-color="#2ca1d9"/>
      <stop offset=".74" stop-color="#1e9cd7"/>
      <stop offset=".84" stop-color="#0880c5"/>
      <stop offset=".9" stop-color="#0075be"/>
    </linearGradient>
  </defs>
  <rect class="cls-10" x="-23.91" y="23.91" width="297.81" height="250" transform="translate(-23.91 273.91) rotate(-90)"/>
  <g>
    <path class="cls-2" d="M193.98,257.23l9.68-.12c-.08-1.48-.16-2.96-.24-4.45-3.14-.04-6.28-.07-9.42-.11l-.02,4.67Z"/>
    <path class="cls-13" d="M187.32,246.16c4.09.36,8.18.72,12.27,1.08l3.83,5.41c-3.14-.04-6.28-.07-9.42-.11-2.23-2.13-4.45-4.26-6.68-6.39Z"/>
    <path class="cls-2" d="M179.9,256.66v-4.8c2.14-1.9,4.29-3.8,6.43-5.69,2.46,2.26,4.92,4.52,7.37,6.77v4.29l-13.81-.57Z"/>
    <path class="cls-17" d="M183.54,256.9c-.12-1.82,1.18-3.24,2.46-3.32,1.42-.09,3.04,1.46,2.82,3.52"/>
    <rect class="cls-15" x="184.43" y="249.56" width="3.8" height="2.66" transform="translate(-2.72 2.04) rotate(-.62)"/>
  </g>
  <g>
    <path class="cls-27" d="M250.2,242.84c-11.1-1.11-23.31,4.87-25.61,6.02-6.74,3.43-19.26,8.63-35.39,8.45-7.43-.08-30.86-.29-45.7-17.62-3.86-4.51-14.43-16.84-10.19-31.11,4.21-14.15,19.7-19.17,21.39-19.69.91,2.67,3.22,4.62,5.96,5.01,3.87.56,6.46-2.28,6.64-2.49-1.6,2.47-1.44,5.67.35,7.87,1.6,1.97,4.26,2.84,6.79,2.22-.73.81-4.59,5.13-3.5,6.83.94,1.47,5.39.71,11.06-1.79-.73,1.4-1.96,4.21-.83,5.69,1.64,2.14,7.49.52,11.02-1.78,5.83-3.8,7.27-10.7,7.65-13.14-.18-3.13-.56-7.31-1.45-12.19-1.25-6.88-2.01-10.81-4.62-15.13-.47-.77-3.28-5.31-8.4-8.82-11.2-7.69-24.54-4.4-26.89-3.78-1.94-1.94-10.15-9.74-23.36-10.56-13.25-.82-22.38,5.93-24.54,7.62-4.17.36-10.29,1.25-17.25,3.73-14.88,5.3-24.47,14.6-32.33,23.16-25.22,27.47-48.67,64.81-53.94,73.3-1.89,3.41-4.28,7.17-7.27,11.01v33.71c37.23.4,67.6.57,88.45.66,40.17.17,70.64.11,85.69.07,32.59-.09,59.1-.3,76.26-.46v-56.77Z"/>
    <path d="M250.16,242.87c-3.63-.28-7.42.03-11.02.85-3.63.79-7.17,1.96-10.59,3.4-1.72.71-3.38,1.52-5.04,2.36-1.67.82-3.37,1.58-5.09,2.28-3.45,1.39-6.99,2.57-10.6,3.45-3.61.89-7.29,1.52-10.99,1.87-3.7.36-7.44.38-11.15.26-3.72-.13-7.43-.48-11.1-1.11-3.67-.62-7.3-1.53-10.8-2.8-3.49-1.27-6.92-2.81-10.05-4.83l-1.19-.73-1.13-.82c-.75-.56-1.52-1.08-2.24-1.67-1.38-1.25-2.86-2.4-4.09-3.81-.63-.68-1.29-1.34-1.91-2.04-.6-.71-1.2-1.42-1.79-2.14-1.18-1.44-2.28-2.95-3.3-4.51-2.04-3.12-3.76-6.47-4.79-10.07-1.05-3.58-1.41-7.39-.84-11.1.57-3.7,2.01-7.26,4.15-10.33,4.37-6.13,10.98-10.34,18.04-12.69l.2-.06.07.2c.8,2.4,2.92,4.31,5.4,4.79,1.23.25,2.53.15,3.71-.29,1.18-.43,2.27-1.16,3.12-2.07l.36.27c-.69,1.08-1.07,2.37-1.06,3.65,0,1.28.41,2.56,1.15,3.61.74,1.05,1.81,1.85,3.02,2.28,1.21.43,2.54.5,3.79.19l.75-.19-.52.58c-1.08,1.21-2.12,2.49-2.91,3.89-.37.69-.76,1.46-.69,2.17,0,.74.82,1.03,1.58,1.08,1.57.09,3.19-.31,4.74-.77,1.56-.47,3.08-1.06,4.57-1.72l.65-.29-.32.64c-.62,1.22-1.17,2.52-1.25,3.85-.02.65.11,1.32.57,1.73.43.43,1.09.62,1.74.69,1.33.13,2.71-.16,4.02-.54,1.32-.39,2.59-.95,3.8-1.61,2.41-1.33,4.38-3.36,5.77-5.74,1.39-2.38,2.25-5.06,2.68-7.78v.06c-.17-2.84-.45-5.67-.86-8.49-.41-2.81-.95-5.61-1.5-8.4-.58-2.78-1.28-5.54-2.5-8.09-1.21-2.55-2.9-4.85-4.83-6.9-1.94-2.05-4.16-3.84-6.62-5.22-2.46-1.38-5.13-2.37-7.89-2.97-5.52-1.2-11.33-.94-16.8.45l-.18.05-.13-.13c-3.07-3.05-6.72-5.52-10.65-7.32-3.95-1.79-8.21-2.84-12.53-3.12-2.16-.08-4.33-.08-6.48.21-2.14.28-4.27.73-6.34,1.37-4.12,1.32-8.04,3.32-11.45,5.98l-.08.07h-.11c-6.7.6-13.32,2.13-19.55,4.65-6.24,2.5-12.07,5.99-17.3,10.21-5.25,4.21-9.94,9.09-14.41,14.14-4.53,5-8.83,10.21-13.05,15.48-8.41,10.57-16.34,21.52-23.94,32.68-3.8,5.58-7.52,11.23-11.15,16.92-1.82,2.87-3.62,5.66-5.29,8.63-1.75,2.91-3.67,5.72-5.76,8.4l.09-.27.02,33.71-.46-.46,62.6.44,31.3.2,31.3.08,31.3.08,15.65.04,15.65-.06,62.6-.28-.23.23.2-56.74ZM250.24,242.81l.2,56.8v.23s-.23,0-.23,0l-62.6.48-15.65.11h-15.65s-31.3.04-31.3.04l-31.3.02c-10.43.02-20.87-.13-31.3-.19l-62.6-.5h-.46s0-.46,0-.46l.02-33.71v-.15s.09-.12.09-.12c2.07-2.65,3.97-5.43,5.71-8.31,1.65-2.92,3.51-5.81,5.31-8.65,3.64-5.7,7.36-11.35,11.18-16.93,7.62-11.17,15.57-22.13,24.01-32.71,4.23-5.28,8.55-10.49,13.1-15.51,4.49-5.06,9.22-9.96,14.52-14.21,5.29-4.25,11.19-7.78,17.51-10.3,6.31-2.53,13-4.08,19.77-4.66l-.19.08c3.49-2.71,7.48-4.74,11.68-6.08,2.11-.66,4.27-1.11,6.46-1.39,2.19-.29,4.4-.3,6.61-.21,4.4.3,8.75,1.37,12.77,3.2,4,1.85,7.71,4.35,10.83,7.47l-.31-.08c5.57-1.41,11.47-1.67,17.1-.44,2.81.62,5.54,1.63,8.06,3.05,2.51,1.42,4.78,3.25,6.76,5.35,1.97,2.09,3.7,4.45,4.93,7.06,1.25,2.61,1.96,5.43,2.54,8.22.55,2.8,1.09,5.61,1.5,8.44.41,2.83.69,5.68.85,8.54v.03s0,.03,0,.03c-.45,2.78-1.33,5.52-2.76,7.97-1.43,2.44-3.49,4.55-5.98,5.93-1.24.68-2.55,1.25-3.91,1.65-1.36.39-2.77.69-4.23.56-.72-.08-1.49-.29-2.06-.84-.6-.55-.75-1.4-.72-2.12.1-1.48.68-2.81,1.31-4.06l.33.35c-1.51.66-3.05,1.26-4.63,1.74-1.58.46-3.21.88-4.93.78-.43-.02-.87-.13-1.28-.35-.21-.11-.39-.29-.53-.49-.11-.22-.21-.46-.21-.69-.06-.95.38-1.72.76-2.45.83-1.46,1.88-2.74,2.98-3.97l.23.39c-1.34.33-2.77.26-4.06-.21-1.29-.46-2.45-1.32-3.24-2.45-.79-1.13-1.22-2.5-1.22-3.87-.01-1.37.39-2.74,1.14-3.9l.36.27c-.92.98-2.05,1.73-3.31,2.19-1.25.46-2.64.56-3.95.3-2.64-.52-4.87-2.55-5.72-5.08l.26.13c-6.98,2.31-13.54,6.48-17.86,12.5-2.12,3.02-3.54,6.52-4.11,10.17-.57,3.65-.22,7.4.81,10.95,1.01,3.56,2.72,6.89,4.73,9.99,1.01,1.55,2.11,3.05,3.27,4.49.58.72,1.18,1.43,1.78,2.14.61.7,1.26,1.35,1.89,2.03,1.21,1.41,2.69,2.55,4.05,3.79.72.58,1.49,1.1,2.23,1.66l1.12.82,1.18.73c3.11,2.02,6.51,3.55,9.99,4.83,3.48,1.28,7.09,2.19,10.75,2.81,3.66.63,7.36.98,11.07,1.12,3.71.13,7.43.11,11.12-.24,3.7-.34,7.36-.96,10.97-1.84,3.61-.88,7.14-2.05,10.59-3.43,1.72-.7,3.42-1.46,5.08-2.27,1.66-.84,3.34-1.65,5.05-2.36,3.43-1.43,6.98-2.61,10.62-3.39,3.64-.8,7.35-1.15,11.12-.8Z"/>
  </g>
  <g>
    <path class="cls-33" d="M42.73,204.26c1.93,3.08,19.87-4.59,27.19-9.93,2.45-1.79,4.25-3.36,4.25-3.36,2.14-3.03,4.26-5.67,7.61-7.45,3.39-1.81,7.35-2.52,11.15-2.02,2.63.35,5.15,1.25,7.74,1.84,1.14.26,2.32.46,3.47.28,1.15-.18,2.3-.78,2.86-1.8.57-1.02.4-2.47-.54-3.16,1.1-.11,2.13.47,3.14.92s2.25.75,3.17.13c1.25-.85,1.03-2.73.66-4.19,1.8,1.94,3.62,3.89,5.81,5.38,2.19,1.48,4.81,2.48,7.45,2.27,1.37-.11,2.62.27,3.55-.74.93-1.01,1.23-2.56.75-3.84,1.54,2.6,4.1,4.56,7.01,5.37,1.02.28,2.15.42,3.11-.01.97-.44,1.65-1.62,1.23-2.59.63,1.64,1.29,3.3,2.41,4.65,1.12,1.35,2.82,2.35,4.56,2.18,1.75-.17,3.36-1.8,3.11-3.53,1.05,1.89,1.84,3.42,2.34,4.43,1.04,2.08,1.36,2.88,2.34,3.67,1.15.92,2.37,1.16,3.14,1.31.88.17,3.06.6,4.91-.53,1.39-.84,2.01-2.21,2.14-2.12.12.08-.67,1.07-.98,2.45-.36,1.6-.07,3.68,1.21,5.27,1.35,1.68,3.21,2.11,3.64,2.2,1.82.37,3.07-.26,3.27.17.26.54-1.75,1.45-2.95,3.93-.44.91-1.01,2.08-.55,2.9.76,1.34,3.92,1.05,5.94.48,2.97-.84,4.73-2.67,5.13-2.27.41.41-1.65,2.18-1.26,4.53.03.21.3,1.68,1.42,2.24.54.27,1.06.22,2.35-.03,2.24-.45,3.36-.67,4.55-1.16.44-.18,1.92-.81,3.66-2.05,1.21-.87,3.53-2.52,5.13-5.36,1.27-2.25,1.54-4.26,1.77-6.17.47-3.79-.09-6.16-1.38-14.18-1.13-7.02-.86-6.19-1.09-7.04-2.59-9.67-9.99-15.27-10.64-15.75,0,0-7.02-5.16-15.59-5.47-4.38-.16-11.11.99-11.57,1.08-.6.12-.89.18-.89.18-3.34-3-5.97-4.8-5.97-4.8-3.01-2.07-5.69-3.04-7.56-3.7-5.13-1.82-9.41-2.06-11.02-2.11-2.24-.07-8.18-.19-13.82,2.35-2.27,1.03-7.84,3.99-8.63,4.77-.07.07-.38.39-.89.55-.44.14-.82.09-.89.08-.79-.08-6.28.65-11.86,2.22-2.51.71-9.18,2.74-16.74,7.3-.73.44-2.96,1.8-5.71,3.84-2,1.48-5.12,3.94-10.23,9.06-2.57,2.57-5.45,5.63-11,12.14-8.04,9.44-12.05,14.18-11.42,15.18Z"/>
    <path class="cls-36" d="M42.75,204.25c1.69,1.78,6.94-.3,9.05-.91,7.39-2.7,14.7-6.11,20.77-11.17,0,0,.93-.73.93-.73.3-.26.66-.45.85-.81,2.24-3.25,5.03-6.29,8.75-7.81,2.92-1.25,6.15-1.77,9.31-1.45,3.18.31,6.16,1.52,9.25,2.09,1.52.28,3.23.23,4.47-.75,1.35-.93,1.57-3.21.08-4.11,0,0,.24-.02.24-.02,1.93-.18,3.43,1.56,5.32,1.39,2.35-.25,1.94-3.14,1.46-4.79,0,0,.27.29.27.29,3.52,3.89,7.96,8.18,13.63,7.58.94-.03,2.01.16,2.79-.47,1.09-.93,1.45-2.6.96-3.93,0,0,.23-.11.23-.11,1.91,3.1,5.56,5.82,9.33,5.5,1.17-.17,2.26-1.44,1.79-2.61,0,0,.25-.1.25-.1,1.07,3.32,3.89,8.1,8,6.39,1.11-.55,1.99-1.77,1.8-3.02,0,0-.13-.85-.13-.85l.4.76,2.34,4.42c.77,1.46,1.33,3.13,2.77,3.96,2.06,1.16,4.84,1.62,7.05.64.91-.43,1.63-1.22,2.22-2.04.08-.09.1-.16.26-.28,0-.01.13-.05.19,0,.06.02.11.16.1.17-2.71,4.36-.2,9.85,5.11,9.83.41,0,.81-.06,1.23-.1.21.01.46-.1.74.18.12.15.09.36.02.47-1.15,1.38-2.53,2.47-3.17,4.2-.32.72-.65,1.58-.3,2.22.39.63,1.29.8,2.07.85,2.47.11,4.9-.67,7-1.96.59-.27,1.09-.86,1.82-.8.37.15.24.57.12.8-.8,1.41-1.64,2.94-1.01,4.56.25.74.79,1.43,1.52,1.59,4.88-.14,9.73-2.42,13.09-5.99,4.8-4.98,4.19-12.44,3.01-18.76-.54-3.28-1.09-6.56-1.55-9.87-1.19-6.47-5.26-12.29-10.25-16.48-5.29-3.84-11.94-6.19-18.53-5.79-3.35.19-6.7.61-9.99,1.25-8.2-8.4-20.53-12.08-32-10.16-5.77.94-10.91,4.11-15.76,7.16-5.86.37-11.52,1.73-17.04,3.64-16.93,5.73-29.33,18.76-40.51,32.14-2.83,3.33-5.71,6.62-8.37,10.09-.65.87-1.32,1.75-1.8,2.73-.14.32-.32.69-.17,1.02h0ZM42.71,204.27c-.17-.37.03-.74.17-1.07.48-.99,1.15-1.87,1.79-2.75,2.65-3.48,5.52-6.78,8.34-10.13,11.15-13.46,23.54-26.55,40.49-32.37,5.47-1.94,11.24-3.32,17.03-3.72,4.84-3.13,10.01-6.26,15.8-7.24,11.56-1.99,24.07,1.8,32.32,10.2l-.2-.06c3.28-.63,6.59-1.04,9.93-1.23,10.09-.54,20.21,4.76,25.47,13.41,1.76,2.84,3.22,5.92,3.76,9.27.45,3.29,1.01,6.57,1.54,9.86,1.2,6.37,1.78,14.06-3.13,19.11-3.51,3.67-8.36,5.98-13.46,6.09-1.83-.51-2.35-2.8-1.85-4.41.23-.83.72-1.57,1.08-2.27.05-.09.07-.17.09-.25,0-.06,0-.06,0-.05-.04-.03-.28.06-.44.15-1.78,1.07-3.65,2.12-5.75,2.44-1.57.2-3.77.61-4.88-.85-.24-.42-.23-.92-.14-1.34.5-2.07,1.95-3.78,3.46-5.19.33-.4.17-.4-.27-.38-5.85,1.06-9.9-5.09-6.7-10.05.01-.02,0-.03,0-.02,0-.01.02.1.07.11.04.05.14,0,.12,0,0,0-.1.11-.15.19,0,0-.38.5-.38.5-1.02,1.38-2.72,2.21-4.43,2.19-1.69-.04-3.42-.32-4.87-1.22-1.51-.89-2.11-2.62-2.87-4.08,0,0-2.33-4.41-2.33-4.41l.27-.09c.3,3.09-3.5,4.61-5.87,3.13-2.45-1.26-3.55-3.94-4.47-6.36,0,0,.25-.1.25-.1.54,1.36-.67,2.78-1.99,2.98-3.92.33-7.62-2.42-9.6-5.63,0,0,.23-.11.23-.11.36.96.29,2.06-.13,2.98-.21.46-.51.89-.91,1.23-.83.68-1.96.49-2.93.52-1.48.13-3.02-.02-4.43-.51-3.84-1.26-6.69-4.29-9.36-7.17,0,0,.18-.1.18-.1.5,1.66.56,4.46-1.74,4.66-1.93.18-3.43-1.55-5.32-1.4,0,0,.05-.17.05-.17,1.4,1.06,1.06,3.31-.28,4.25-1.31,1.03-3.07,1.07-4.61.78-3.12-.59-6.09-1.79-9.24-2.11-3.13-.33-6.35.18-9.24,1.42-3.7,1.51-6.48,4.52-8.71,7.75-.19.36-.55.55-.85.81,0,0-.93.74-.93.74-6.09,5.07-13.42,8.47-20.83,11.16-2.25.74-4.54,1.49-6.92,1.59-.76,0-1.68-.03-2.19-.71h0Z"/>
  </g>
  <path class="cls-36" d="M65.31,190.18c2.11-2.2,8.14-3.44,7.88,1.17,0,.49-.15,1.05-.56,1.34,0,0-.03-.04-.03-.04.54-.79.17-1.79-.08-2.62-.26-.9-1.07-1.3-1.96-1.39-1.85-.27-3.8.49-5.25,1.53h0Z"/>
  <path class="cls-28" d="M79.51,177.74c1.97-.83,4.56-1.4,6.41.06,1.69,1.61.04,3.81-2.03,3.47-.6-.08-1.12-.9-.65-1.39,0,0,.04.03.04.03-.14.23-.08.51.07.7.49.61,1.44.25,2.01-.1.93-.53,1-1.69.27-2.43-1.59-1.45-4.31-.86-6.13-.35h0Z"/>
  <path class="cls-35" d="M97.71,175.04c2.44-.29,5.06,1.41,5.57,3.97.33,1.62-1.1,2.39-2.51,2.36-1.21,0-2.72-.45-3.4-1.36,1.04.62,2.22.95,3.38.86,3.38.02,2.18-3.35.32-4.71-.92-.78-2.25-1.06-3.36-1.11h0Z"/>
  <path class="cls-32" d="M98.43,177.02c1.68-.33,3.9,2,1.15,2.35-.42.02-1.26-.09-1.43-.44.49.04.94.05,1.37-.05.75-.16,1.31-.26.72-.93-.72-.83-1.26-.73-1.81-.91h0Z"/>
  <path class="cls-34" d="M97.44,165.77c4.2,1.14,8.14,3.43,11.18,6.56.98,1.05,2.69,2.02,2.44,3.68-.03.1,0,.1-.12.17-2.56,1.36-4.81-1.18-7.06-1.97,1.15.06,2.35.97,3.44,1.39,1.08.48,2.38.71,3.36.13l-.12.17c.16-1.33-1.42-2.33-2.23-3.26,0,0-1.53-1.53-1.53-1.53-2.65-2.45-6.05-4.16-9.35-5.33h0Z"/>
  <path class="cls-36" d="M103.04,172.21c.91.23,1.66.88,2.53,1.01,1.57.18.76-.55.1-1.23-1.29-1.34-3.46-1.39-4.78-2.53,1.77.57,3.79.74,5.06,2.24.91.9,1.48,2.06-.44,1.76-.95-.23-1.63-.93-2.5-1.21v-.05h.01Z"/>
  <path class="cls-36" d="M107.21,168.18l12.64,8.19c2.59,1.65,5.33,3.45,8.44,3.71.52,0,1.16-.28.86-.88-1.99-3.14-4.9-5.66-7.87-7.87-6.02-4.24-12.22-9.52-19.81-10,5.12-.09,9.8,2.51,13.95,5.25,4.11,2.86,8.39,5.62,11.77,9.42.84.96,1.62,1.92,2.29,3.05.6,1.87-2.1,1.37-3.08,1.02-2.45-.72-4.6-2.11-6.69-3.49.02-.04-12.66-8.33-12.5-8.4h0Z"/>
  <path class="cls-28" d="M117.59,172.84c-.68-.58-1.38-2.02-.24-2.56,1.07-.41,1.91.65,2.63,1.2,1,.82,2.04,1.59,3.13,2.29.53.39,1.1.6,1.63,1.19.56.68-.04,1.68-.82,1.81-.75.15-1.37-.23-1.92-.55.25-.07,1.1.49,1.83.22.55-.18.9-.8.52-1.17-.3-.35-1.12-.78-1.51-1.09-1.06-.76-2.08-1.58-3.06-2.45-.71-.57-1.35-1.55-2.34-1.26-1.01.46-.39,1.74.21,2.34,0,0-.04.03-.04.03h0Z"/>
  <path class="cls-32" d="M122.1,163.47c2.5.37,4.83,1.54,6.84,3.06,1.29.64,14.58,14.24,9.02,13.5-1.47-.48-3.09-1.29-4.14-2.31,1.05.68,2.18,1.24,3.35,1.66,1.37.53,2.34.45,1.26-1.25-2.6-4.16-5.89-8.18-9.64-11.4-1.91-1.61-4.34-2.72-6.68-3.26h0Z"/>
  <path class="cls-28" d="M143.05,182.78c-1.55-2.88-2.35-6.1-3.98-8.95-1.52-2.87-3.49-5.54-6.04-7.54-5.22-3.88-11.39-6.32-17.39-8.78,0,0,.02-.05.02-.05,6.22,1.98,12.44,4.45,17.62,8.52,5.32,4.16,7.35,10.91,9.76,16.8h0Z"/>
  <path class="cls-34" d="M132.9,160.91c3.79,3.07,10.48,4.59,10.89,10.35-.71-2.41-2.46-4.45-4.53-5.94-2.01-1.51-4.62-2.64-6.36-4.41h0Z"/>
  <path class="cls-36" d="M129.94,155.37c7.67,2.7,14.93,7.42,19.64,14.15,0,0-.04.03-.04.03-5.38-6.11-12.06-11.24-19.6-14.18h0Z"/>
  <path class="cls-32" d="M128.05,151.07c6.48-.92,19.52,2.39,19.45,10.52,0,0-.05,0-.05,0-.34-4.2-4.21-6.68-7.67-8.36-3.61-1.73-7.82-2.32-11.73-2.15h0Z"/>
  <path class="cls-35" d="M148.35,179.54c.87,1.61.37,3.93-1.9,3.38-.58-.2-1.01-.87-.8-1.42h.05c.21,1.05,1.42,1.2,2.22.8.88-.55.54-1.97.43-2.76h0Z"/>
  <path class="cls-28" d="M149.8,179.8c1.2.76,1.14,2.44,1.01,3.69-.16,1-1.25,1.42-2.09,1.67-.85.29-1.95.38-2.7-.24-.37-.29-.64-.76-.59-1.22,0,0,.05,0,.05,0,.22.85,1.11,1.26,1.88,1.2.79-.05,1.7-.28,2.42-.6.76-.34.85-1.29.83-2.14.02-.84-.08-1.81-.83-2.31l.03-.04h0Z"/>
  <path class="cls-32" d="M146.55,172.02c4.29,2.95,7.29,8.43,6.38,13.71,0,0-.05,0-.05,0-.04-5.24-2.23-10.49-6.33-13.71h0Z"/>
  <path class="cls-28" d="M156.85,188.29c.78,1.47,2.13,2.95,3.89,3.01,1.88.1,3.12-1.33,2.88-3.18-.17-3.47-1.54-6.83-3.24-9.74,2.34,2.65,3.59,6.2,3.64,9.73.02.87-.1,1.88-.79,2.56-2.24,2.17-5.61.03-6.39-2.38h0Z"/>
  <path class="cls-35" d="M158.72,184.79c1.05.08,1.44-.98,1.44-1.83.07-.2.05-.85.24-.95.52.91.22,2.2-.71,2.72-.17.14-.97.26-.97.05h0Z"/>
  <path class="cls-36" d="M158.74,187.4c1.69-.26,2.35-1.76,3.06-3.03.42,1.64-1.64,3.24-3.06,3.03h0Z"/>
  <path class="cls-36" d="M159.92,172.26c4.68,5.2,7.27,12.76,5.62,19.69,0,0-.05,0-.05,0,.71-6.98-1.13-14.28-5.58-19.68h0Z"/>
  <path class="cls-28" d="M169.51,177.76c-2.08-2.56-4.15-5.13-6.51-7.42-2.38-2.27-5.14-4.15-7.28-6.68,2.52,1.96,5.27,4.03,7.56,6.4,2.26,2.38,4.46,5.07,6.23,7.7h0Z"/>
  <path class="cls-35" d="M158.62,162.33c3.57,2.54,7.47,5.3,9.89,8.93-1.46-1.27-3.43-3.21-4.84-4.58-1.57-1.53-3.47-2.95-5.05-4.35h0Z"/>
  <path class="cls-36" d="M160.07,159.5c2.75,2.06,5.88,4.29,7.55,7.29-2.54-2.38-4.96-5.08-7.55-7.29h0Z"/>
  <path class="cls-28" d="M169.76,164.88c3.52,1.32,8.31,3.07,9.17,7.15-1.88-3.63-5.7-5.53-9.17-7.15h0Z"/>
  <path class="cls-36" d="M180.45,169.56c4.36,1.06,7.43,4.65,10.38,7.78,2.96,3.07,5.91,7.24,5,11.74,0,0-.05,0-.05,0,.34-4.48-2.43-8.26-5.24-11.47-2.84-3.23-5.91-6.76-10.08-8.05h0Z"/>
  <path class="cls-36" d="M191.85,187.34c-2.73-5.25-6.64-9.68-10.65-13.97,4.64,3.39,8.26,8.82,10.65,13.97h0Z"/>
  <path class="cls-36" d="M176.5,176.83c1.15,4.92,4.18,9.13,5.41,14.09,1.24,4.2.32,9.61-3.79,11.93-.55.25-1.27.64-1.8.61,5.03-1.71,6.41-7.77,5.2-12.45-1.05-4.86-4.19-9.31-5.02-14.19h0Z"/>
  <path class="cls-34" d="M173.35,184.97c2.46,3.67,3.61,9.42,1.27,13.43-1.5,1.97-4.1.87-4.65-1.26-.23-.9-.33-2.02-.14-2.82.08.93.15,1.86.47,2.7,1.55,3.45,4.55,1.78,4.93-1.39.79-3.61-.09-7.54-1.89-10.67h0Z"/>
  <path class="cls-35" d="M171.94,195.05c-.23.68.05,2,.98,1.55.92-.93.76-2.57.82-3.81.03-.83-.56-2.45-1.07-.93-.34.99-.58,2.1-.73,3.19h0ZM171.89,195.04c.21-1.36-.23-3.01.78-4.18,1.14-.71,1.53,1.09,1.47,1.91-.03,1.14-.14,2.24-.55,3.32-.13.26-.3.52-.58.67-1.08.43-1.35-.98-1.12-1.72h0Z"/>
  <path class="cls-35" d="M189.52,196.73l-4.15,4.83c-.78.77-1.31,2.07-2.67,1.91-1.43-.53-.8-2.24.05-2.92,0,0,.04.03.04.03-.48.69-1,2.09.02,2.4.9.07,1.61-1.12,2.26-1.69.03.03,4.41-4.72,4.44-4.56h0Z"/>
  <path class="cls-36" d="M193.09,196.33c-2.32,2.31-4.74,4.51-7.26,6.6l-1.9,1.56c-.63.47-1.28,1.15-2.27,1.19-2.23-.21-2.17-3-.6-3.99,0,0,.03.04.03.04-1.16,1.01-1.24,3.34.56,3.45.7-.02,1.32-.6,1.98-1.08l1.95-1.48c2.58-1.96,5.09-4.28,7.51-6.29h0Z"/>
  <path class="cls-32" d="M194.31,199.57l-4.09,6.05c-.54.74-.98,1.7-1.88,2.12-1.05.53-2.49-.44-1.86-1.61.29-.59.76-.99.96-1.56h.05c-.07.64-.51,1.16-.69,1.69-.42,1.34,1.35,1.38,1.98.53.82-.83,4.67-6.37,5.52-7.22h0Z"/>
  <path class="cls-32" d="M196.86,201.2c-.88,4.02-3.86,7.45-7.65,9.03-1.41.69-3.98,1.01-4.41-1.03-.14-.82.03-1.85.43-2.42-.18.78-.3,1.61-.09,2.34.54,1.72,2.6,1.15,3.89.66,3.82-1.36,6.69-4.82,7.83-8.57h0Z"/>
  <path class="cls-32" d="M78.48,179.69c1-.31,2.2-.59,3.13.12.78.46,1.02,1.9-.02,2.28-.23.13-.91-.05-.8-.23,1.11.26,1.26-1.16.56-1.74-.75-.76-2.01-.42-2.87-.43h0Z"/>
  <path class="cls-36" d="M66.21,191.87c-.92,1.03.14,1.89,1.24,1.77.88-.04,3.71-1.02,2.82-2.2-.26-.28-.77-.33-1.26-.36-.95-.03-2.07.03-2.8.79h0ZM66.17,191.84c.87-.98,2.35-1.46,3.67-1.18,1.06.18,1.43,1.44.59,2.14-.91.64-1.88,1.05-2.98,1.09-1.19.04-2.24-1-1.28-2.05h0Z"/>
  <path class="cls-35" d="M144.63,191.2c-7.1,3.98-11.64,11.4-13.11,19.28,0,0-.05,0-.05,0,.5-8.08,6.1-15.74,13.16-19.28h0Z"/>
  <path class="cls-36" d="M134.99,192.08c-13.4,12.19-18.7,31.93-14.26,49.35,0,0-.05.01-.05.01-5.4-17.26.8-37.64,14.3-49.36h0Z"/>
  <path class="cls-35" d="M132.49,185.94c-3.18,1.06-4.62,4.42-6.43,6.96-1.75,2.73-3.56,5.41-5.6,7.95,0,0-.04-.03-.04-.03,1.59-2.83,3.42-5.51,5.31-8.15,1.84-2.42,3.61-6.06,6.76-6.73h0Z"/>
  <path class="cls-35" d="M118.63,206.32c-2.76,4.24-3.95,9.16-4.68,14.11-.38-4.87,1.84-10.25,4.68-14.11h0Z"/>
  <path class="cls-28" d="M110.59,237.22c-1.23-13.69-2.46-28.22,3.34-41.11,1.82-4.1,5.31-8.57,10.26-8.3-2.22.12-4.52,1.13-6.12,2.76-3.19,3.31-4.7,7.91-6.01,12.23-3.22,11.15-2.15,23.08-1.46,34.42h0Z"/>
  <path class="cls-34" d="M109.24,193.38c-6.68,10.16-9.36,22.48-8.7,34.53,0,0-.05,0-.05,0-1.61-11.99,1.92-24.75,8.75-34.53h0Z"/>
  <path class="cls-35" d="M109.86,185.01c-3.05,4.3-5.21,9.35-7.39,14.13,1.14-5.07,4.24-10.08,7.39-14.13h0Z"/>
  <path class="cls-36" d="M96.66,211.17c-1.27,4.76-1.73,9.88-2.56,14.72-.24-4.84,1.11-10.15,2.56-14.72h0Z"/>
  <path class="cls-36" d="M98.41,185.75c-7.72,11.54-12.05,25.02-13.71,38.74,0,0-.05,0-.05,0,.73-13.81,5.9-27.54,13.76-38.74h0Z"/>
  <path class="cls-28" d="M76.92,195.4c-3.45,5.41-5.37,11.54-6.85,17.73.38-6.23,3.32-12.68,6.85-17.73h0Z"/>
  <path class="cls-36" d="M58.23,210.09c.2-3.7,1.05-7.95,3.6-10.69-1.69,3.38-3.16,7-3.6,10.69h0Z"/>
  <path class="cls-34" d="M81.09,200.15c.36-3.84,1.28-8.18,3.83-11.1-1.68,3.54-3.24,7.28-3.83,11.1h0Z"/>
  <path d="M33.75,242.93c.75-12.65,5.91-25.48,15.35-34.14,0,0,.05.05.05.05-8.48,9.45-14.26,21.5-15.4,34.09h0Z"/>
  <path class="cls-28" d="M126.67,224.07c.65,12.5,5.59,24.15,12.06,34.7,0,0-.08.06-.08.06-4.1-4.73-7.04-10.42-8.92-16.38-1.87-5.87-3.26-12.42-3.05-18.39h0Z"/>
  <path class="cls-36" d="M140.6,243.19c-1.96-2.53-3.7-5.26-5.17-8.12-1.44-2.78-2.98-6.1-3.01-9.14,1.4,2.9,2.5,5.84,3.73,8.8,1.34,3.26,3.14,5.88,4.45,8.47h0Z"/>
  <path class="cls-28" d="M144.88,251.25c4.41,4.95,10.39,7.65,16.39,10.14,0,0-.02.1-.02.1-3.32-.26-6.48-1.62-9.2-3.51-2.63-1.81-5.58-4.17-7.17-6.73h0Z"/>
  <path class="cls-36" d="M154.62,253.5c1.91.28,3.42,1.62,4.86,2.74,1.46,1.14,2.98,2.19,4.58,3.11,3.17,1.87,6.89,3.14,10,4.81-5.67-.67-10.67-3.87-14.9-7.53-1.38-1.23-2.72-2.61-4.56-3.02l.02-.1h0Z"/>
  <path class="cls-36" d="M203.03,264.52c6.44-.07,12.83-1.15,19.27-.68-2.87,1.03-6.46.96-9.61.99-3.15-.07-6.71.14-9.66-.31h0Z"/>
  <path class="cls-36" d="M64.17,213.14c-.2-1.62-.46-3.78.65-5.06-.14,1.7-.61,3.41-.65,5.06h0Z"/>
  <path class="cls-28" d="M20.11,265.94c30.65-5.9,62.02-11.32,93.27-7.2,4.42.69,9.04.85,13.26,2.44,4.27,1.74,7.63,4.9,11.11,7.63,3.47,2.79,7.41,4.96,11.07,7.5,11,7.41,22.46,15.17,35.9,16.7,13.28,1.09,27.04,1.07,40.15.05-13.34,1.74-26.82,1.57-40.23.76-13.64-1.29-25.36-9.27-36.37-16.7-3.67-2.58-7.59-4.77-11.07-7.62-3.49-2.79-6.79-5.9-10.86-7.59-4.15-1.57-8.69-1.76-13.04-2.46-4.43-.55-8.87-.97-13.33-1.23-26.81-1.82-53.72,3.29-79.85,7.71h0Z"/>
  <g>
    <path class="cls-32" d="M2.26,263.02c-1.39,2.52,20.45,14.48,24.08,17.32.21.16,1.04.73,2.14.84.77.08,1.62-.19,2.04-.84.57-.87.21-2.04-.24-2.98-1.12-2.32-2.68-4.43-4.59-6.16,5.01,3.21,10.36,5.78,15.83,8.11.61.26,1.26.52,1.92.47.66-.05,1.35-.52,1.41-1.18.04-.42-.17-.82-.39-1.19-1.23-2.09-2.84-3.96-4.71-5.51,2.74,1.63,5.65,2.93,8.57,4.2.93.4,2.11.76,2.88.1.56-.47.66-1.3.61-2.03-.13-1.97-1.08-3.87-2.57-5.16-.46-.4-.21-1.22.33-1.51s1.22-.16,1.79.08c1.82.74,3.1,2.37,4.48,3.77,1.38,1.4,3.16,2.71,5.12,2.51.44-2.22-.42-4.65-2.16-6.09,3.33,2.36,7.18,3.99,11.17,4.85,1.08.23,2.29.39,3.23-.18.93-.56,1.37-1.71,1.37-2.79,0-1.08-.37-2.13-.73-3.15,2.64.98,5.57,1.78,8.3,2.48,1.41.36,3.11.62,4.16-.4.79-.77.89-2.06.47-3.08-.35-.86-.91-1.42-2.15-2.46-1.18-.99-2.29-1.7-2.69-1.93-5.37-3-22.56-1.48-22.56-1.48-9.11.81-6.82.22-17.27,1.15-3.43.3-5.89.81-7.87,1.39-6.57,1.92-8.91,2.71-11.93,3.43-10.86,2.58-19.14-4.21-20.05-2.57Z"/>
    <path d="M2.26,263.02c-.64,2.69,15.24,11.42,18,13.31,2.46,1.37,4.78,3.15,7.22,4.49.85.32,1.88.37,2.59-.2,1.49-1.39-.15-3.56-.9-4.97-.99-1.6-2.21-3.06-3.61-4.32,0,0,.22-.29.22-.29,4.26,2.7,8.79,4.96,13.42,6.99,1.01.39,2.45,1.16,3.46,1.42,1.08.36,2.45-.47,1.7-1.65-1.23-2.15-2.88-4.1-4.81-5.67l.33-.47c2.58,1.53,5.31,2.77,8.07,3.96.69.3,1.36.6,2.04.63,2.5-.04,1.32-3.69.58-5.04-.46-.88-1.06-1.44-1.76-2.16-.43-.68-.01-1.6.69-1.9,1.75-.54,3.16.7,4.36,1.7,2.08,1.89,3.97,4.86,7.04,4.64,0,0-.33.3-.33.3.41-2.08-.41-4.38-2.04-5.72l.48-.62c2.97,2.09,6.34,3.58,9.86,4.47,4.72,1.57,6.29-.93,4.61-5.29,0,0-.26-.75-.26-.75l.74.28c2.57.99,5.48,1.82,8.15,2.54.9.24,1.83.44,2.72.32,2.02-.18,2.5-2.71,1.38-4.15-1.14-1.43-2.76-2.61-4.32-3.58-3.4-1.64-7.4-1.55-11.11-1.64-3.67.02-7.7.18-11.38.45-7.24.67-14.61.43-21.81,1.57-4.75.9-9.36,2.61-14.08,3.75-4.73,1.31-9.79.98-14.42-.55-2.05-.59-3.96-1.61-6.03-2.08-.29-.04-.65-.05-.82.23h0ZM2.26,263.02c.17-.28.54-.28.82-.24.9.15,1.75.52,2.61.83,9.77,3.97,15.19,2.68,24.76-.55,9.24-3.49,19.94-3,29.25-3.94,5.58-.44,11.3-.51,16.85.29,2.86.34,5.72,1.27,7.9,3.26,1.49,1.14,3.24,2.78,2.67,4.88-.54,2.29-3.33,2.21-5.11,1.67-2.73-.67-5.64-1.42-8.28-2.36,0,0,.48-.47.48-.47.94,2.1,1.46,5.52-1.19,6.65-1.43.54-2.97.05-4.33-.27-3.61-.93-7.05-2.52-10.09-4.67,0,0,.48-.62.48-.62,1.93,1.61,2.8,4.3,2.22,6.74-1.76.28-3.42-.6-4.65-1.64-1.77-1.47-2.95-3.41-4.96-4.46-.62-.33-1.34-.55-1.87-.33-.24.09-.42.34-.46.59-.03.28.05.33.41.65.56.55,1.04,1.18,1.42,1.87.79,1.61,1.75,4.29.08,5.67-1.12.72-2.51.06-3.52-.38-2.76-1.21-5.52-2.47-8.12-4.03,0,0,.33-.47.33-.47,1.98,1.64,3.65,3.62,4.92,5.87.39.6.37,1.59-.27,2.04-.57.49-1.39.54-2.03.36-5.91-2.3-11.6-5.21-16.96-8.6,0,0,.22-.29.22-.29,1.73,1.58,6.98,7.61,4.43,9.77-.83.64-1.95.56-2.84.21-2.48-1.37-4.75-3.17-7.23-4.57-2.84-1.96-18.55-10.75-17.91-13.46h0Z"/>
  </g>
  <g>
    <path class="cls-28" d="M93.64,262.55c.19-.18,13.12,9.27,16.21,10.8,1.2.59,1.74.4,1.95.25.42-.29.54-.85.59-1.35.33-3.53-1.5-7.18-4.52-9.02,6.15,3.54,9.59,10.56,15.52,14.46.97.64,2.02,1.19,3.17,1.35s2.4-.15,3.18-1.01c.78-.87.95-2.16.72-3.3-.23-1.15-.82-2.19-1.39-3.2,4.3,4.52,8.6,9.04,12.9,13.56,1.1,1.16,2.68,2.42,4.12,1.71,1.01-.5,1.11-2.2,1.15-2.87.31-5.3-6.66-12.2-9.04-14.45-5.12-5.6-9.81-7.59-13.19-8.36-1.1-.25-.99-.13-6.66-.88-3.65-.48-9.48-1.38-12.34-1.76-3.9-.52-7.01-.61-13.07-.79-10.03-.29-22.33.08-22.36.91-.02.54,5.21-.44,11.37,2.52,6.16,2.96,10.18,8.39,13.53,7.47.27-.07.85-.24,1.1-.74.84-1.66-3.04-5.19-2.93-5.29Z"/>
    <path d="M93.61,262.52c4.98,2.78,9.26,6.33,14.07,9.32,1.29.72,4.4,3.28,4.52.31.28-3.43-1.51-6.94-4.44-8.73,0,0,.22-.37.22-.37,6.28,3,13.5,16.89,20.14,15.64,1.39-.32,2.21-1.65,2.15-3.04-.03-2.08-1.66-4.17-2.61-6,1.04,1.09,8.04,8.41,9.24,9.66,0,0,3.82,3.99,3.82,3.99,1.37,1.41,4.47,5.21,5.85,2.33,1.59-5.89-4.84-12.01-8.68-15.85-3.67-3.98-8.27-7.35-13.64-8.34-3.19-.36-6.67-.81-9.83-1.27,0,0-6.55-.93-6.55-.93-6.53-1.03-13.13-.99-19.73-1.15-5.71.05-11.54-.27-17.17.68-.03.01-.12.04-.09.04-.07.03.17-.06.02-.39-.13-.15-.1-.07-.06-.08,2.8.18,5.68.39,8.36,1.33,5.44,1.56,9.21,6.08,14.1,8.56.93.38,2.19.47,2.98-.21,1.05-1.36-1.33-3.73-2.17-4.79,0,0-.27-.31-.27-.31,0,0-.14-.16-.14-.16l-.07-.08c-.01-.05-.07,0-.04-.16h0ZM93.68,262.59c1.02,1.17,4.08,3.89,2.8,5.6-.92.82-2.24.75-3.28.36-4.99-2.31-8.71-6.78-14.18-8.25-2.62-.86-5.34-1.04-8.09-1.15-.24-.04-.48-.04-.68-.3-.09-.17-.11-.36,0-.52.32-.43.91-.44,1.34-.54,5.5-.72,11.05-.64,16.58-.69,6.62.11,13.3.13,19.85,1.16,0,0,6.55.94,6.55.94,3.16.46,6.66.94,9.84,1.32,5.55,1.02,10.46,4.67,14.06,8.65,4.04,4.11,10.56,10.37,8.78,16.7-.29,1.04-1.53,1.71-2.6,1.41-1.96-.53-3.07-2.21-4.41-3.53,0,0-3.8-4.01-3.8-4.01l-7.59-8.02.46-.34c1.62,2.4,2.68,6.76-1.06,7.81-7.08,1.35-14.11-12.67-20.5-15.77,0,0,.22-.37.22-.37,3.07,1.89,4.91,5.55,4.61,9.14-.02.72-.35,1.74-1.24,1.77-1.53-.05-2.64-1.08-3.88-1.79-2.36-1.53-4.66-3.13-6.97-4.74-1.99-1.34-4.91-3.52-6.83-4.83h0Z"/>
  </g>
  <path class="cls-28" d="M29.39,269.62c3.07,2.88,6.82,4.88,10.84,6.02,0,0-.65.58-.65.58-.12-.7-.42-1.4-.89-2-.46-.61-1.09-1.1-1.84-1.44l.02-.1c.86.04,1.69.43,2.37,1.02.89.75,1.35,1.96,1.49,3.12-2.37-.54-4.56-1.69-6.59-2.98-1.8-1.16-3.42-2.58-4.83-4.15,0,0,.07-.07.07-.07h0Z"/>
  <path class="cls-35" d="M45.09,271.01c-.55,1.15,1.21,1.77,1.86,1.05.1-.06.35-.38.1-.76l.03-.1c.7-.12,1.06.84.71,1.42-.67,1.03-2.32.62-2.9-.28-.27-.47-.21-1.07.14-1.39l.08.06h0Z"/>
  <path class="cls-36" d="M64.8,266.16c2.51-.64,5.76.46,6.91,3.03.25.79-.4,1.71-1.2,1.68-1.12.01-2.16-.2-3.11-.7l.02-.1c1.04-.04,2.06-.07,2.97-.2.34-.07.35-.19.35-.48-.79-2.17-3.58-3.39-5.92-3.14,0,0-.02-.1-.02-.1h0Z"/>
  <path class="cls-36" d="M70.38,260.17c4.32.26,9.26,2.19,11.29,6.26,0,0-.08.06-.08.06-1.75-1.35-3.28-2.81-5.16-3.93-1.84-1.12-3.9-1.92-6.06-2.3,0,0,.01-.1.01-.1h0Z"/>
  <path class="cls-28" d="M73.09,266.13c-2.93-2-6.36-3-9.1-5.28,0,0,.04-.09.04-.09,1.82.22,3.41,1.06,4.88,2.1,1.49.97,2.91,2.03,4.24,3.19l-.06.08h0Z"/>
  <path class="cls-27" d="M103.55,265.59c2.87-.51,5.92.85,7.61,3.22.77.9.73,2.67-.79,2.67-1.02,0-1.54-.99-2.32-1.33,0,0,.01-.1.01-.1.62-.06,1.19.32,1.64.48,1.01.33,1.17-.27.62-1.18-1.31-2.36-4.08-3.77-6.77-3.65,0,0-.01-.1-.01-.1h0Z"/>
  <path class="cls-36" d="M122.76,266.07c2.22,2.4,5.72,6.4,4.26,9.92-.9,1.82-3.34,1.58-4.37.07-.48-.64-.75-1.34-.96-2.05l.09-.05c.46.58.87,1.18,1.38,1.62.92.83,2.29,1.06,3-.1,1-1.8-.18-4.05-1.04-5.78-.69-1.26-1.54-2.44-2.45-3.58l.08-.07h0Z"/>
  <path d="M113.07,262.17c2.34,1.02,4.66,2.37,6.49,4.17.57.65,1.08,1.37,1.42,2.2l-.08.06c-1.48-.93-2.62-2.09-3.84-3.29-1.25-1.12-2.6-2.15-4.03-3.06l.05-.09h0Z"/>
  <path class="cls-27" d="M128.38,267.2c2.38,1.2,4.65,2.67,6.74,4.36,2,1.59,4.4,3.75,5.21,6.1-2.05-1.74-3.84-3.62-5.74-5.49-1.94-1.79-4.03-3.43-6.27-4.88l.05-.09h0Z"/>
  <path class="cls-27" d="M143.14,281.06c.79.25,1.37,1.2.94,2.04-.2.48-.81.92-1.36.69-.49-.17-.89-.83-.52-1.26,0,0,.1.01.1.01.26.32.52.28.67.28.15-.03.29.01.43-.14.41-.43.14-1.16-.31-1.53,0,0,.05-.09.05-.09h0Z"/>
  <g>
    <path class="cls-28" d="M125,261.1c.47-1.11,16.46,7.96,37.72,5.3,0,0,0,0,0,0,.07-.02,16.09-3.86,31.65-1.13,1.37.24,2.75.55,3.96,1.25,1.2.7,2.22,1.84,2.46,3.21.24,1.37-.46,2.93-1.77,3.41-1.31.48-3.01-.51-3.01-1.9.18.42.51,1.01,1.12,1.46.84.62,1.44.4,1.88.9.7.8.4,2.76-.63,3.39-.86.53-2.03,0-3.3-.63-4.1-2.04-9.11-5.1-9.06-5.19.04-.06,2.79,1.17,3.42,3.47.22.82.12,1.56.01,2.04-.55,1.04-1.22,1.75-1.9,2.24-4.39,3.16-13.19.13-22.1-7.12,1.46.7,3.7,2.03,5.68,4.43,1.02,1.24,1.73,2.45,2.21,3.47.36,1,.67,2.2.2,2.55-.65.49-2.46-1.02-4.31-2.34-4.67-3.31-10.38-5.84-11.1-4.96-.71.85,3.61,4.52,2.79,5.73-.9,1.33-7.39-1.21-12.43-4-4.32-2.4-5.37-3.76-10.3-7.21-8.04-5.62-13.45-7.74-13.19-8.36Z"/>
    <path d="M124.95,261.08c.2-.22.43-.1.62-.09.59.12,1.16.32,1.74.51,5.29,1.86,10.7,3.48,16.24,4.36,6.32,1.04,12.8,1.21,19.15.38,7.82-1.73,16.04-2.5,24.1-2.08,2.02.11,4.04.28,6.05.6,2.89.38,6.65.97,7.98,4.05.68,1.51.21,3.53-1.26,4.41-1.5.96-3.87-.13-3.91-1.98,0,0-.01-1.64-.01-1.64l.65,1.51c.22.51.54.96.97,1.29.49.41.97.39,1.6.67,1.52.97.92,3.82-.69,4.4-.99.31-2-.19-2.85-.57-1.09-.53-2.16-1.08-3.22-1.66-2.14-1.18-4.24-2.33-6.32-3.72-.09-.1,0,.04-.14-.17-.11-.32.08-.54.38-.56.38.06.56.22.88.38,1.98,1.08,3.57,3.32,2.91,5.65-1.04,2.24-3.53,3.67-5.94,3.75-2.4.18-4.72-.45-6.9-1.24-5.66-2.09-10.55-6-15.16-9.79,0,0,3.82,1.82,3.82,1.82,3.53,1.69,6.49,4.61,8.14,8.17.38.94,1.09,3.58-.88,3.28-1.82-.59-3.13-2.02-4.66-2.96-2.95-1.89-6.52-4.16-9.76-4.65.55,1.52,1.97,2.61,2.72,4.26,1.83,5.79-13.56-2.72-15.1-3.89-2.41-1.57-4.55-3.47-6.86-5.14-4-2.97-8.31-5.55-12.64-7.99-.46-.27-.93-.54-1.36-.87-.12-.13-.33-.21-.3-.48h0ZM125.05,261.12c.23.55,1.14.85,1.63,1.2,1.85,1.02,3.79,2.11,5.58,3.17,4.96,2.83,9.42,6.48,14.13,9.65,4.18,2.36,8.75,4.99,13.58,5.49,2.13.1-1.99-3.86-2.21-4.83-.86-2.3,2.38-1.34,3.44-.88,2.72,1.05,5.23,2.48,7.63,4.09,1.49.92,2.84,2.35,4.42,2.83.15-.42-.22-1.54-.35-1.94-1.57-3.34-4.33-6.07-7.66-7.66l.53-.83c5.22,4.02,11.27,8.35,18.08,8.27,2.15.05,4.5-1.59,5.2-3.1.62-2.21-1.17-4.19-3.08-5.03,0,0-.06,0,.09,0,.12,0,.25-.09.29-.16.05-.04.12-.24.05-.37-.09-.15-.08-.11-.07-.11,2.92,1.91,6.17,3.73,9.34,5.32,1.02.5,2.26.99,2.87.15.57-.64.79-2.22.03-2.72-.48-.19-1.25-.34-1.69-.74-.53-.41-.92-.97-1.17-1.56l.64-.13c.17,1.96,2.96,2.31,3.82.47.97-1.74-.15-3.8-1.73-4.77-1.63-1.04-3.68-1.32-5.65-1.61-5.97-.91-12.04-.93-18.06-.47-4.02.33-8.03.85-11.97,1.71-6.39.76-12.88.53-19.22-.52-5.54-.9-10.96-2.55-16.24-4.43-.78-.2-1.62-.69-2.23-.49h0Z"/>
  </g>
  <path class="cls-34" d="M191.34,270.21c1.44-.74,2.01,1.38,2.64,2.16.81.9,1.59,1.54,2.44,2.46,0,0-.04.09-.04.09-2.14.1-3.28-2.13-3.76-3.85-.18-.5-.68-.98-1.24-.77,0,0-.05-.09-.05-.09h0Z"/>
  <g>
    <path class="cls-28" d="M170.63,268.09c4.73-.11,9.47,1.74,12.87,5.03.72.7,1.43,1.76.92,2.63-.39.67-1.28.8-2.05.87-.83.07-1.7.13-2.47-.18s-1.41-1.13-1.22-1.95"/>
    <path class="cls-32" d="M170.63,268.04c4.12-.23,8.31,1.04,11.65,3.5.86.66,1.71,1.25,2.36,2.18.87,1.17.51,2.8-1,3.18-1.84.48-5.53.25-5.01-2.43,0,0,.1.02.1.02,0,1.66,1.91,1.96,3.22,1.71,3.84-.2,1.63-2.62-.15-4.04-3.1-2.51-7.09-3.98-11.16-4.03v-.1h0Z"/>
  </g>
  <path class="cls-34" d="M168.92,271.12c2.43-.1,4.85.74,6.8,2.19.61.4,1.66,1.5.84,2.38-.74.67-1.8-.09-2.31-.67,0,0,.06-.08.06-.08.39.11,1.39.4,1.59.17,0-.03.01-.15-.04-.21-.34-.5-1.24-1.28-1.81-1.71-1.48-1.05-3.26-1.75-5.13-1.96,0,0,0-.1,0-.1h0Z"/>
  <g>
    <path class="cls-28" d="M147.52,271.1c5.8-.78,11.87.61,16.74,3.85"/>
    <path class="cls-32" d="M147.52,271.05c5.69-.93,12.39-.24,16.78,3.86,0,0-.06.08-.06.08-2.7-1.14-5.29-2.26-8.09-3.08-3.08-.89-5.69-.79-8.64-.86h0Z"/>
  </g>
  <path class="cls-36" d="M200.66,277.48c6.91,3.22,14.56,3.08,21.94,2.02,0,0,.03.1.03.1-3.5,1.55-7.46,1.87-11.22,1.34-3.67-.49-7.8-1.51-10.74-3.46h0Z"/>
  <path class="cls-28" d="M186.03,285.68c7.16,2.58,14.69,2.93,22.19,3.6,0,0,0,.1,0,.1-3.76.7-7.63.44-11.35-.34-3.64-.76-7.71-1.7-10.84-3.36h0Z"/>
  <path class="cls-35" d="M165.46,283.75c7.58,2.29,15.42,3.22,23.04,5.31-3.76.27-7.97-.79-11.73-1.75-3.74-1.05-7.93-2.03-11.31-3.56h0Z"/>
  <path class="cls-36" d="M214.06,284.94c2.45-.02,4.71-1.08,7.16-.67,0,0,.02.1.02.1-1.04.8-2.28.98-3.54.93-1.23.03-2.45-.06-3.65-.25,0,0,0-.1,0-.1h0Z"/>
  <path class="cls-35" d="M217.94,269.29c3.07.12,5.72-1.23,8.71-1.57,0,0,.04.09.04.09-1.13,1.13-2.67,1.6-4.22,1.71-1.52.18-3.06.14-4.55-.13v-.1h0Z"/>
  <path class="cls-28" d="M24.44,288.5c11.99,1.29,24.17,3.1,35.37,7.77,0,0-.03.1-.03.1-5.9-1.36-11.69-2.96-17.56-4.42-5.8-1.47-12.08-2.35-17.78-3.45h0Z"/>
  <path class="cls-36" d="M50.94,282.59c8.22-1.6,13.57,6.53,20.18,9.84,6.72,3.68,14.17,5.71,21.81,6.28,0,0,0,.1,0,.1-9.73.67-19.43-2.97-26.99-9-4.37-3.64-9.01-8.04-15-7.23h0Z"/>
  <path class="cls-36" d="M117.38,282.99c10.89-1.57,17.1,9.75,25.27,14.78,0,0-.04.09-.04.09-4.83-1.73-8.29-5.78-11.91-9.18-3.59-3.38-8.41-6.09-13.32-5.69h0Z"/>
  <path class="cls-28" d="M102.92,290.68c1.92,1.01,3.83,2.04,5.72,3.1,1.39.72,4.63,2.52,5.3,3.78-2.12-.66-3.95-1.81-5.72-3.1-1.8-1.21-3.58-2.44-5.35-3.69l.05-.09h0Z"/>
  <path class="cls-9" d="M68.83,258.86c-.07-4.5-.14-9-.21-13.5-3.01.74-5.75,1.71-8.76,2.45-.16,3.94-.32,7.87-.48,11.81"/>
  <path class="cls-12" d="M66.42,238.99c2.94-.29,5.87-.57,8.81-.86,1.23.91,2.48,1.86,3.75,2.86,1.25.98,2.46,1.96,3.63,2.93-4.59.47-9.08.74-13.68,1.22-.44-.85-.89-1.73-1.33-2.65-.5-1.04-.95-2.06-1.37-3.05-1.03,1.21-2.08,2.48-3.13,3.83-1.18,1.51-2.28,2.99-3.3,4.43l8.82-2.33-8.76,2.45"/>
  <g>
    <path class="cls-30" d="M82.98,257.81c0-2.16-.03-4.37-.09-6.61-.05-2.31-.13-4.58-.24-6.81l-14.05,1c.07,4.56.14,9.13.21,13.69l14.16-1.27Z"/>
    <path d="M82.71,257.55l-.2-3.26-.12-3.18-.32-6.69.64.57c-4.68.34-9.37.66-14.05.95l.51-.56.16,13.69-.52-.24c4.67-.39,9.33-.84,13.9-1.28ZM83.26,258.06c-4.87.41-9.65.81-14.42,1.27l-.52.05v-.29s-.27-13.69-.27-13.69v-.52s.51-.04.51-.04c4.68-.37,9.36-.72,14.04-1.05l.63-.04v.62s.16,6.72.16,6.72c.02,2.35-.06,4.73-.14,6.98Z"/>
  </g>
  <path class="cls-1" d="M98.7,237.55c8.33.23,11.9.3,12.16.28,0,0,.06,0,.13,0,.16,0,.42.01.71.13.29.12.52.34.74.56,2.09,2.15,3.68,4.79,4.6,7.64-6.2-.77-12.4-1.54-18.6-2.31"/>
  <path d="M178.66,229.85c.49-1.14,1.25-2.3,2.52-2.69,1.35-.49,3.13.56,2.93,2.17,0,0-.75-.26-.75-.26.59-1.22,1.86-2.31,3.31-2.13,1.43.06,2.69,1.78,1.86,3.05,0,0-.09-.04-.09-.04.12-2.67-3.35-2.49-4.38-.5,0,0-1.4,2.31-1.4,2.31l.66-2.57c.21-1.02-1.02-1.84-2.01-1.54-1.17.22-1.99,1.24-2.56,2.25,0,0-.09-.04-.09-.04h0Z"/>
  <path d="M38.82,129.78c.53-3.96,5.46-5.91,8.67-3.48,0,0-.66.15-.66.15,1.24-2.64,4.88-2.01,6.43-.07.54.57.98,1.19,1.37,1.84l-.08.07c-.59-.48-1.15-.98-1.73-1.41-1.63-1.33-4.55-1.92-5.48.44,0,0-.39-.34-.39-.34-2.69-2.37-7.31-.73-8.04,2.81,0,0-.1-.02-.1-.02h0Z"/>
  <path d="M154.91,98.57c.73-2.57,3.01-6,6.12-4.6.9.46,1.66,1.46,1.51,2.63l-.8-.16c.42-1.94,2.22-3.49,4.23-3.48,2.01.01,3.8,1.56,4.06,3.37l-.1.03c-1.54-3.29-6.31-3.15-7.41.28,0,0-.8-.16-.8-.16.27-1.71-1.96-2.76-3.42-1.96-1.7.7-2.6,2.49-3.31,4.1,0,0-.09-.04-.09-.04h0Z"/>
  <g>
    <path class="cls-28" d="M50.51,260.77c1.29-4.69,2.47-9.95,3.34-15.72.57-3.74.94-7.3,1.18-10.65-2.23-1.37-4.47-2.73-6.7-4.1,1.03.59,2.23.53,3.01-.12.62-.52.76-1.25.8-1.5,1.29,1.23,2.59,2.47,3.88,3.7l-1.77-5.61c.08,1.25.98,1.98,1.61,1.87.44-.07.8-.54.97-1.11.29,1.61.59,3.23.88,4.84l3.17-5.89c0,.54.35.99.78,1.07.53.11,1.17-.36,1.2-1.07-.61,1.96-1.22,3.93-1.83,5.89,1.79-1.73,3.57-3.46,5.36-5.19-.83.56-.9,1.66-.4,2.18.45.47,1.39.5,2.03-.11-2.64,2.02-5.28,4.03-7.91,6.05-.49,3.81-1.07,7.73-1.74,11.76-.72,4.34-1.51,8.52-2.35,12.55-1.84.38-3.67.76-5.51,1.15Z"/>
    <path d="M50.16,261.1c-.08-.59.16-1.48.35-2.07,2.25-8.03,3.71-16.33,4.03-24.67,0,0,.24.46.24.46-2.08-1.61-4.26-3.06-6.48-4.47,0,0,.07-.11.07-.11,1.83,1.03,3.74-.03,3.47-2.17,0,0,.52.38.52.38,1.45,1.07,2.75,2.3,4.01,3.57l-.81.5c-.51-1.88-1.04-3.83-1.29-5.76.09.86,1.01,2.17,1.87,1.49.42-.38.52-1.31.67-1.84.5,1.94,1.4,3.87,1.1,5.92,0,0-.35-.06-.35-.06l3.11-5.92s.6-1.15.61-1.16c0,.68-.44,2.05.59,2.16.42,0,.84-.41.87-.88,0-.02.29.05.29.05,0,0-1.45,6-1.45,6h0s-.91-.55-.91-.55c0,0,5.65-4.88,5.65-4.88,0,0,.17.2.17.2-1.05.61-.91,2.44.49,2.39.39,0,.78-.16,1.07-.43,0,0-7.56,6.49-7.56,6.49-.02.03.21-.38.21-.37-.93,5.88-2.01,12.37-3.02,18.27-.17.93-.66,3.63-.84,4.55,0,0-.15.76-.15.76-.07.25-.04.52-.25.74,0,0-.19.28-.2.29-1.97.46-4.07.83-6.06,1.12h0ZM50.87,260.43c1.72-.47,3.33-.88,5.07-1.2l-.31.31c-.13-.33.18-1.16.22-1.53,1.61-7.51,2.96-15.13,3.7-22.77,0,0,.02-.24.02-.24,0,0,.2-.14.2-.14,0,0,8.25-5.59,8.25-5.59-.55.58-1.62.73-2.17.05-.52-.7-.24-1.75.46-2.23l1-.69s-.84.89-.84.9c-1.26,1.37-5.61,6.07-6.78,7.34,0,0,.81-2.42.81-2.43,0,0,2.22-5.77,2.22-5.77l.41-1.06-.11,1.11c-.08,1.67-2.32,1.71-2.39,0,0,0,.51.12.5.13,0,0-3.24,5.85-3.24,5.85l-.15.28c-1.04-1.54-.99-3.39-1.18-5.16,0,0,.56.03.56.03-.21.77-1.11,1.6-1.9,1.07-.71-.42-.99-1.23-.97-1.95.88,1.79,1.58,3.63,2.24,5.49,0,0,.63,1.8.63,1.8-1.78-1.61-3.68-3.26-5.19-5.14,0,0,.52-.18.52-.18-.39,1.85-2.61,2.59-4.15,1.63,0,0,.07-.11.07-.11,2.35,1.37,4.73,2.71,7.2,3.85-.86,8.45-2.16,16.91-4.17,25.17,0,0-.19.78-.19.78-.03.14-.16.2-.33.38h0Z"/>
  </g>
  <path class="cls-19" d="M51.72,227.73c.12,1.32-.63,2.53-1.78,2.96-.99.36-2.1.07-2.83-.63-.73-.7-1.04-1.82-.76-2.8-1.07-.98-1.69-2.42-1.69-3.87,0-.61.12-1.25.47-1.75.42-.6,1.13-.95,1.85-1.08.72-.12,1.46-.04,2.19.08-.23-1.45-.42-3.08.47-4.24.49-.65,1.26-1.05,2.05-1.25.79-.2,1.62-.22,2.43-.24.54-.01,1.09-.03,1.61.11.52.14,1.03.44,1.28.92-.41-.76-.22-1.98.43-2.55.65-.57,1.54-.78,2.39-.86,1.12-.11,2.3-.02,3.31.48s1.86,1.42,2.05,2.54c2.57-1.19,5.89-.43,7.69,1.75.46.56.83,1.21.95,1.93.12.72-.04,1.5-.53,2.04,1.63-.32,3.23.99,3.82,2.54.88,2.31-.11,5.18-2.23,6.45-2.12,1.27-5.12.8-6.74-1.06-1.06.27-2.16-.47-2.67-1.44-.51-.97-.56-2.1-.6-3.19-.35,1.29-1.46,2.22-2.78,2.35-1.35.13-2.64-.62-3.21-1.86-.06.23-.71,2.32-2.9,3.15-2.21.84-4.09-.33-4.28-.46Z"/>
  <path d="M152.9,218.46c.63-1.36,1.68-2.67,3.21-3.07,1.6-.49,3.58.52,3.76,2.32,0,0-.78-.17-.78-.17,1.55-3.28,6.53-2.36,6.51,1.28,0,0-.1.01-.1.01-.82-2.58-4.25-3.16-5.67-.9,0,0-.79,1.32-.79,1.32v-1.49c-.02-1.32-1.55-2.18-2.82-1.87-1.43.24-2.52,1.4-3.23,2.62,0,0-.09-.05-.09-.05h0Z"/>
  <g>
    <path class="cls-31" d="M103.1,283.22c.15-.04.3-.1.46-.12.69-.08,1.36.08,1.93.42.28.06.56.13.84.22.17-.02.34-.02.52-.01.44.06.89.12,1.33.18.35.09.69.21,1.03.37-.26-1.93-.52-3.85-.78-5.78h-5.99c-.75-.68-5.4-4.73-12.24-4.09-6.34.59-10.04,4.78-10.77,5.64-1.88.29-3.76.58-5.65.86v2.79c2.63.91,4.35,1.47,7.36,1.51.29,0,.57.04.85.1.36-.07.72-.1,1.1-.07,3.42.34,7.08-.5,10.55-.6.34-.18.71-.32,1.1-.39,2.76-.51,5.58-1.13,8.36-1.01Z"/>
    <path d="M103.06,282.85c.85-.29,1.86-.12,2.63.34,0,0-.11-.04-.11-.04l.87.22s-.14-.01-.14-.01c0,0,.58-.02.58-.02,0,0,.03,0,.03,0l1.33.17h.03s.01,0,.01,0l1.1.39-.55.41-.8-5.77.41.36s-5.99,0-5.99,0h-.16c-6.99-6.2-16.65-5.27-22.8,1.51,0,0-5.65.86-5.65.86l.32-.37v2.79s-.26-.35-.26-.35c1.29.5,2.54,1.18,3.95,1.32,1.44.2,2.72.04,4.21.26,0,0-.15,0-.15,0,1-.21,1.99.04,2.99-.01,2.92-.04,5.77-.57,8.72-.66,0,0-.17.04-.17.04.38-.2.81-.34,1.25-.38.82-.05,2.74-.43,3.57-.56,1.56-.27,3.2-.69,4.78-.51h0ZM103.15,283.6c-1.12,0-2.49.07-3.61.08-1.99.21-4.05.53-5.89,1.33-2.89.1-5.81.71-8.74.71-.99.02-2.03-.18-2.98-.03-2.82-.1-5.56-.92-8.27-1.63,0,0-.25-.1-.25-.1v-.25c-.02-.19.01-3,0-3.11,0,0,.32-.05.32-.05l5.65-.87-.23.13c2.86-3.33,7.04-5.54,11.44-5.81,4.4-.32,8.84,1.3,12.14,4.2,0,0-.27-.11-.27-.11h5.99s.36,0,.36,0c0,0,.05.36.05.36l.76,5.78.08.64c-.36-.13-1.23-.44-1.6-.58,0,0,.04,0,.04,0l-1.33-.18h.04s-.47.01-.47.01c-.04,0-.1,0-.14-.01,0,0-.81-.21-.81-.21l-.07-.02c-.66-.41-1.45-.54-2.2-.28h0Z"/>
  </g>
  <path class="cls-32" d="M61.88,280.39c2.16-.1,4.34.14,6.44.72,2.13.51,3.95,1.74,5.97,2.51,4.05,1.46,8.45,1.59,12.72,1.26,4.33-.29,8.52-1.18,12.82-1.82,4.3-.68,9,.38,12.71,2.33,2.14.84,4.62,1.53,6.57,2.5-2.25-.65-4.49-1.32-6.73-2.02-3.9-1.78-8.22-2.69-12.45-2.07-3.8.57-9.09,1.43-12.87,1.62-4.31.26-8.78.07-12.87-1.49-2-.8-3.8-2.07-5.91-2.63-2.02-.69-4.4-.76-6.38-.92h0Z"/>
  <path class="cls-18" d="M54.25,242.2c-.49-.33-1.44.26-1.57.34-.64.4-.95.97-1.07,1.23-.29-.09-2.34-.66-4.28.61-2.17,1.42-2.29,3.91-2.3,4.14-.17.06-.65.23-1.23.6-.66.43-1.44,1.11-1.98,2.18-.99,1.96-.48,3.79-.37,4.17-.31.06-1.87.39-2.57,1.71-.99,1.86.38,4.44,2.01,5.1.96.39,1.43-.13,4.28-.7,3.53-.71,3.84-.12,4.83-.82,1.17-.84,1.57-2.78,2.32-6.62.6-3.09.27-2.82.77-4.58.29-1,.86-2.71,1.29-5.13.2-1.13.29-1.96-.13-2.24Z"/>
  <path class="cls-5" d="M20.39,264.42c-.81-.88-.94-2.54-.42-3.81.34-.83.89-1.35,1.21-1.61-1.2-1.56-1.05-3.37-.16-4.08.7-.55,1.74-.31,1.98-.25-.05-.15-.82-2.41.61-4.22,1.18-1.5,3.34-2.04,5.28-1.25.02-.21.19-2.05,1.74-3.01,1.43-.87,3.41-.63,4.79.68.1-.64.58-3.21,2.21-3.8,2.77-1,6.98,4.39,6.18,6.06-.08.17-.14.14-.84.95-.79.91-1.19,1.37-1.4,1.82-.13.27-.56,1.22-.4,2.36.11.79.39.85.28,1.22-.25.87-1.83.61-2.57,1.71-.39.57-.35,1.22-.34,1.56.1,1.97,2.09,2.74,1.87,3.52-.23.82-2.56.5-6.06.87-2.71.28-2.6.61-7.23,1.34-5.29.83-6.19.53-6.73-.06Z"/>
  <path class="cls-16" d="M125,261.1c1.3-.75,2.08-2.12,1.97-3.48-.15-1.8-1.84-3.35-3.97-3.35,1.1-.6,1.58-1.9,1.19-2.99-.45-1.22-1.91-1.91-3.25-1.4-.02-.28-.14-1.68-1.34-2.74-1.04-.92-2.23-.98-2.55-.99l-1.29,13.17"/>
  <g>
    <path class="cls-29" d="M95.48,235.69c-2.09.22-3.79.36-4.95.44-.96.07-1.55.1-4.46.28-1.28.08-2.33.15-3.01.19.06,6.98.12,13.96.17,20.94l14.97.03c.37-6.26.57-12.67.6-19.22,0-.97,0-1.93,0-2.89-1.11.08-2.21.15-3.32.23Z"/>
    <path d="M95.49,235.88c-3.58.41-8.76.86-12.41,1.13,0,0,.38-.41.38-.41.09,3.49.14,6.98.17,10.47.04,3.49-.47,6.99-.11,10.47,0,0-.3-.3-.3-.3,4.99.34,9.98.08,14.97-.12,0,0-.45.43-.45.43.46-7.23,1-14.83.92-22.09,0,0,.14.13.14.13,0,0-3.31.29-3.31.29h0ZM95.46,235.51l3.33-.17h.14s0,.13,0,.13c-.03,7.27.12,14.88-.28,22.14,0,0-.02.45-.02.45-2.64-.15-5.28-.22-7.92-.32-2.61-.14-5.21.01-7.82.13,0,0,.04-.31.04-.31.3-3.49-.26-6.98-.28-10.47-.03-3.62-.04-7.24,0-10.87,3.82-.14,9.04-.41,12.81-.7h0Z"/>
  </g>
  <polyline class="cls-8" points="86.9 257.42 87.02 249.49 90.79 249.39 94.01 249.31 93.8 257.18 93.8 257.62"/>
  <line class="cls-6" x1="90.45" y1="257.59" x2="90.45" y2="249.4"/>
  <path class="cls-23" d="M72.83,254.12c2.01-.16,4.02-.32,6.03-.48v-4.99c-2.01.14-4.02.27-6.03.41v5.07Z"/>
  <line class="cls-6" x1="74.71" y1="249.83" x2="74.06" y2="250.47"/>
  <line class="cls-6" x1="75.53" y1="249.65" x2="73.65" y2="251.53"/>
  <line class="cls-6" x1="74.59" y1="251.4" x2="73.94" y2="252.06"/>
  <path class="cls-6" d="M22.42,262.64c-.5-.52-.72-1.29-.58-2s.66-1.33,1.33-1.6c-.12-.72.05-1.48.46-2.08s1.06-1.03,1.78-1.18"/>
  <path class="cls-6" d="M24.29,255.1c.13-.72.89-1.25,1.61-1.14.54-.88,1.53-1.47,2.56-1.54"/>
  <path class="cls-6" d="M34.52,258.75c-.24-.5-.21-1.13.08-1.6s.84-.78,1.4-.78"/>
  <path class="cls-6" d="M46.26,257.09c-.1-.47-.21-.96-.08-1.42s.58-.87,1.05-.78c-.18-.5.11-1.06.53-1.38s.96-.44,1.47-.55"/>
  <path class="cls-6" d="M47.24,250.73c-.19-.25-.19-.63,0-.88s.55-.36.85-.25c0-.37.19-.73.49-.95s.7-.29,1.06-.19"/>
  <path class="cls-6" d="M116.13,252.42c.36-.51,1.14-.65,1.65-.3s.68,1.12.34,1.64c.64-.24,1.44.06,1.75.67s.09,1.44-.48,1.81"/>
  <path class="cls-6" d="M116.82,257.67c.35-.2.83-.16,1.14.09s.45.71.33,1.1"/>
  <g>
    <line class="cls-23" x1="89.7" y1="238.82" x2="89.05" y2="239.47"/>
    <line class="cls-23" x1="90.52" y1="238.64" x2="88.64" y2="240.53"/>
    <line class="cls-23" x1="89.58" y1="240.39" x2="88.93" y2="241.05"/>
    <polygon class="cls-23" points="87.82 243.12 93.28 243 93.39 237.91 87.82 238.04 87.82 243.12"/>
  </g>
  <line class="cls-6" x1="89.5" y1="238.82" x2="88.85" y2="239.47"/>
  <line class="cls-6" x1="90.32" y1="238.64" x2="88.44" y2="240.53"/>
  <line class="cls-6" x1="89.38" y1="240.39" x2="88.73" y2="241.05"/>
  <path class="cls-14" d="M87.61,250.34v2.31h2.37v-2.33c-.79,0-1.58.02-2.37.02Z"/>
  <path class="cls-14" d="M91.02,250.36v2.31h2.37v-2.33c-.79,0-1.58.02-2.37.02Z"/>
  <path class="cls-14" d="M87.61,253.33v3.63h2.37v-3.66c-.79.01-1.58.03-2.37.04Z"/>
  <path class="cls-14" d="M91.02,253.33v3.63h2.37v-3.66c-.79.01-1.58.03-2.37.04Z"/>
  <line class="cls-11" x1="88.79" y1="252.65" x2="88.79" y2="250.35"/>
  <line class="cls-11" x1="87.61" y1="251.41" x2="89.98" y2="251.41"/>
  <line class="cls-11" x1="92.21" y1="252.67" x2="92.21" y2="250.37"/>
  <line class="cls-11" x1="91.02" y1="251.43" x2="93.39" y2="251.43"/>
  <line class="cls-11" x1="88.79" y1="256.95" x2="88.79" y2="253.35"/>
  <line class="cls-11" x1="87.61" y1="255.01" x2="89.98" y2="255.02"/>
  <line class="cls-11" x1="92.21" y1="256.95" x2="92.21" y2="253.35"/>
  <line class="cls-11" x1="91.02" y1="255.01" x2="93.39" y2="255.02"/>
  <path class="cls-12" d="M99.66,235.51c-1.14-1.83-2.29-3.65-3.43-5.48-5.16-.25-10.33-.51-15.49-.76-2.51,2.88-5.03,5.76-7.54,8.64,3.36-.45,26.46-2.4,26.46-2.4Z"/>
  <line class="cls-20" x1="83.27" y1="236.56" x2="80.74" y2="229.27"/>
  <polygon class="cls-7" points="83.06 243.86 83.06 237.22 75.53 237.55 83.06 243.86"/>
  <g>
    <path class="cls-3" d="M96.7,231.84c-.84,1.65-2.15,1.34-2.48-.46-.02,1.89-2.07,2.12-2.04.08-.08,1.88-2.09,1.94-2.11,0-.02.65-.27,1.08-.59,1.29-.32.21-.71.18-.99.03-.41-.23-.67-.75-.67-1.32,0,.04-.05.85-.67,1.22-.55.33-1.08,0-1.12-.02-.32-.21-.57-.61-.64-1.2-.56,1.63-2.48,1.76-2.61-.24-.05.16-.11.28-.17.37-.23.35-.46.6-.64.74"/>
    <path class="cls-3" d="M97.97,233.46c-.84,1.65-2.15,1.34-2.48-.46-.02,1.89-2.07,2.12-2.04.08-.08,1.88-2.09,1.94-2.11,0-.02.7-.31,1.15-.67,1.34-.34.18-.69.07-.77.04-.43-.16-.74-.63-.81-1.21,0,.05-.17.87-.82,1.12-.43.17-.81-.02-.87-.05-.36-.19-.64-.61-.72-1.25-.59,1.07-1.56,1.38-2.11.98-.42-.3-.51-.96-.52-1.14-.06.16-.16.38-.34.59-.42.47-.94.49-1.08.49"/>
    <path class="cls-3" d="M98.85,234.99c-.86,1.64-2.17,1.31-2.48-.5-.04,1.88-2.1,2.09-2.04.05-.1,1.88-2.11,1.91-2.11-.03-.08,1.93-2.16,1.91-2.22-.03-.25,1.82-2.24,1.81-2.44-.03-.43,1.7-2.25,1.72-2.59-.04-.58,1.63-2.4,1.24-2.56-.46"/>
    <path class="cls-3" d="M92.97,230.54c-.58,1.42-1.92,1.1-1.98-.46-.14,1.79-1.98,1.84-2.11,0-.13,1.85-2.08,1.85-2.22,0-.3,1.77-2.12,1.74-2.45,0-.57,1.61-2.53,1.64-2.61-.32.11.75-.29.81-.48,1.34"/>
    <path class="cls-3" d="M95.51,230.46c-.68,1.35-1.96,1.62-2.33-.09"/>
  </g>
  <path class="cls-21" d="M79.12,230.78l1.8-.67.27.67-2.45.69-.52.67,3.24-.86.2.5-4,1.06-.36.55c.89-.22,1.8-.44,2.73-.64.62-.13,1.23-.26,1.83-.37.06.17.13.35.19.52l-5.22,1.09-.35.44,5.69-1.07.2.43-6.25,1.14-.33.51,6.76-1.19.18.46-7.46,1.27-.24.34,7.85-1.11.26.53-8.3,1.05-.34.51c2.9-.33,5.8-.67,8.71-1"/>
  <g>
    <path class="cls-3" d="M66.74,239.62c.43.82,1.39,1.15,2.13.83.59-.26.97-.91.93-1.62.07.82.82,1.31,1.39,1.16.54-.13.96-.85.72-1.58.76,1.06,1.16,1.24,1.39,1.16.47-.16.43-1.57.61-1.56.09,0,.06.35.33.69.05.06.44.55.94.47.27-.04.44-.23.52-.32"/>
    <path class="cls-3" d="M78.15,241.06c-.8.4-1.33.09-1.55-.81.16,1.52-1.57,1.91-2,.4.18,1.58-1.62,1.91-2.1.42,0,1.52-1.73,1.87-2.31.46-.26,1.22-1.43,1.78-2.32.79"/>
    <path class="cls-3" d="M79.7,242.01c-.73.75-1.51.4-1.75-.59.16,1.52-1.57,1.91-2,.4.18,1.58-1.62,1.91-2.1.42,0,1.52-1.73,1.87-2.31.46-.28,1.49-2.16,1.81-2.56.2-.06.54-.29.58-.43,1.07"/>
    <path class="cls-3" d="M80.78,243.31c-.8.39-1.34.07-1.54-.83.14,1.52-1.6,1.89-2.01.37.16,1.58-1.64,1.89-2.11.39-.02,1.52-1.75,1.84-2.32.43-.17,1.44-1.81,1.79-2.46.45-.23.89-.86,1.25-1.76,1.04"/>
    <path class="cls-3" d="M76.84,239.99c-.8.4-1.33.09-1.55-.81.16,1.52-1.57,1.91-2,.4.18,1.58-1.62,1.91-2.1.42,0,1.52-1.73,1.87-2.31.46-.34.49-.68.98-1.02,1.47"/>
  </g>
  <g>
    <path class="cls-3" d="M99.03,238.2c.26,1.58,2.14,1.47,2.5,0,.15,1.64,2.18,1.61,2.36,0,.02,1.72,2.12,1.73,2.15,0-.03,1.72,2.02,1.69,2.04,0-.07,1.72,1.95,1.71,1.96,0,0-.05,0-.07.02-.07.1-.03.35,1.22.91,1.39.27.08.72-.06,1.49-1"/>
    <path class="cls-3" d="M114.66,241.24c-.81,1.4-2.08,1.14-2.4-.39-.02,1.6-2,1.8-1.97.07-.07,1.59-2.02,1.64-2.04,0-.06,1.64-2.07,1.65-2.15,0-.23,1.55-2.14,1.56-2.36,0-.54,1.38-2.39,1.49-2.52-.2-.4,1.04-1.47,1.42-2.43.85"/>
    <path class="cls-3" d="M115.75,242.65c-.81,1.4-2.08,1.14-2.4-.39-.02,1.6-2,1.8-1.97.07-.07,1.59-2.02,1.64-2.04,0-.06,1.64-2.07,1.65-2.15,0-.23,1.55-2.14,1.56-2.36,0-.56,1.49-2.49,1.4-2.55-.31-.34,1.46-2.2,1.37-2.3-.17-.12.83-.61,1.15-1.38.86"/>
    <path class="cls-3" d="M116.81,244c-.78.93-1.23,1.07-1.5.98-.56-.18-.79-1.43-.89-1.4-.01,0-.02.02-.02.07-.02,1.71-2.05,1.69-1.95-.02-.04,1.69-2.09,1.69-2.04-.03-.05,1.73-2.15,1.7-2.15-.03-.2,1.6-2.23,1.61-2.36-.03-.38,1.47-2.27,1.55-2.5-.03-.18.56-.68.94-1.21.93-.65,0-1.25-.58-1.27-1.33-.14.55-.63.92-1.17.9-.47-.02-.9-.34-1.06-.81"/>
    <path class="cls-3" d="M113.58,239.93c-.81,1.4-2.08,1.14-2.4-.39-.02,1.6-2,1.8-1.97.07-.07,1.59-2.02,1.64-2.04,0-.06,1.64-2.07,1.65-2.15,0-.23,1.55-2.14,1.56-2.36,0-.55,1.46-2.46,1.43-2.52-.27.07.92-.32,1.38-1.19,1.15"/>
  </g>
  <polygon class="cls-4" points="66.21 239.18 59.8 247.69 68.93 245.13 66.21 239.18"/>
  <path class="cls-21" d="M64.91,240.57c.61-.21,1.22-.42,1.83-.63.07.15.13.29.2.44-.97.36-1.95.72-2.92,1.08l-.5.67,3.55-1.28.29.4-4.38,1.58-.34.54c.98-.34,1.98-.67,3-1,.68-.22,1.35-.42,2.01-.62.05.17.11.35.16.52l-5.63,1.7-.34.45c2.02-.6,4.05-1.2,6.07-1.8.05.13.1.25.15.38-2.19.64-4.38,1.28-6.57,1.92l-.31.5c2.4-.69,4.81-1.38,7.21-2.07.04.14.08.28.12.42-2.61.74-5.23,1.48-7.84,2.21l-.23.34c2.73-.71,5.47-1.41,8.2-2.12.04.16.09.31.13.47-2.83.7-5.66,1.39-8.49,2.09l-.32.5c2.98-.71,5.97-1.41,8.95-2.12"/>
  <polygon class="cls-26" points="116.61 246.16 115.2 259.34 98.21 257.68 98.8 244.06 116.61 246.16"/>
  <path class="cls-23" d="M99.66,257.62l.34-8.84h3.56c-.19,3.02-.39,6.05-.58,9.07l2.24.34c.19-3.05.38-6.1.56-9.15l3.44.19-.5,9.34-9.07-.96Z"/>
  <line class="cls-6" x1="101.25" y1="250.83" x2="100.6" y2="251.47"/>
  <line class="cls-6" x1="102.06" y1="250.65" x2="100.18" y2="252.53"/>
  <line class="cls-6" x1="101.13" y1="252.4" x2="100.47" y2="253.06"/>
  <line class="cls-6" x1="102.39" y1="256.15" x2="101.74" y2="256.8"/>
  <line class="cls-6" x1="107.59" y1="253.39" x2="106.94" y2="254.04"/>
  <line class="cls-6" x1="108.41" y1="253.22" x2="106.52" y2="255.1"/>
  <path class="cls-22" d="M100.46,279.54l-6.46.38-.38-3.76c.74-.01,2.18.06,3.77.83,1.66.8,2.63,1.95,3.07,2.55Z"/>
  <path class="cls-22" d="M92.56,280.03c-1.43.03-2.87.05-4.3.08v-3.82c1.36-.04,2.72-.09,4.08-.13.07,1.29.15,2.58.22,3.87Z"/>
  <path class="cls-22" d="M87.03,280.26s-.02-1.3-.02-1.3c0,0-.04-2.48-.04-2.49-.59.13-1.53.41-2.49,1.09-1.34.95-1.99,2.14-2.26,2.73,1.04.01,2.1.02,3.18,0,.55,0,1.09-.02,1.63-.04Z"/>
  <ellipse class="cls-25" cx="107.71" cy="279.75" rx=".72" ry="1.09"/>
  <ellipse class="cls-21" cx="94.69" cy="281.34" rx=".52" ry=".25"/>
  <line class="cls-21" x1="92.93" y1="274.74" x2="93.64" y2="284.63"/>
  <path class="cls-24" d="M74.92,282.77c-.6,0-1.09-.32-1.09-.72,0-.4.49-.72,1.09-.72s1.09.32,1.09.72c0,.4-.49.72-1.09.72Z"/>
  <line class="cls-6" x1="89.62" y1="276.91" x2="88.97" y2="277.57"/>
  <line class="cls-6" x1="89.42" y1="276.93" x2="89.17" y2="277.18"/>
  <line class="cls-6" x1="89.42" y1="277.44" x2="89.17" y2="277.69"/>
  <line class="cls-6" x1="91.83" y1="278.5" x2="91.17" y2="279.15"/>
  <line class="cls-6" x1="91.62" y1="278.52" x2="91.38" y2="278.76"/>
  <line class="cls-6" x1="91.62" y1="279.03" x2="91.38" y2="279.28"/>
  <path class="cls-27" d="M19.8,273.13c2.87-.51,5.92.85,7.61,3.22.77.9.73,2.67-.79,2.67-1.02,0-1.54-.99-2.32-1.33,0,0,.01-.1.01-.1.62-.06,1.19.32,1.64.48,1.01.33,1.17-.27.62-1.18-1.31-2.36-4.08-3.77-6.77-3.65,0,0-.01-.1-.01-.1h0Z"/>
  <path class="cls-36" d="M226.68,274.3c7.55,1.05,14.82-1.33,21.57-4.5,0,0,.05.08.05.08-2.89,2.5-6.58,3.97-10.34,4.57-3.65.6-7.9.84-11.29-.16h0Z"/>
  <path class="cls-28" d="M226.59,289.23c7.59-.54,14.62-3.26,21.74-5.7,0,0,.04.09.04.09-3.16,2.16-6.79,3.49-10.51,4.29-3.63.78-7.74,1.57-11.27,1.32h0Z"/>
  <path class="cls-35" d="M227.83,263.32c7.1-2.65,13.3-7.03,19.28-11.6,0,0,.03.04.03.04-5.36,5.26-12.29,9.25-19.31,11.56h0Z"/>
  <path class="cls-35" d="M2.83,275.07c5.51,4.36,12.17,6.8,18.98,8.23,0,0,0,.05,0,.05-6.95-.5-13.82-3.82-18.97-8.28h0Z"/>
  <path class="cls-36" d="M4.34,287.7c4.1,2.73,8.8,4.82,13.12,7.15-4.66-1.33-9.26-4.31-13.12-7.15h0Z"/>
  <path class="cls-36" d="M56.56,236.53c-.92,4.96-1.95,12.07-3.14,16.86.7-4.9,2.15-11.99,3.14-16.86h0Z"/>
  <path class="cls-36" d="M57.77,237.49c.78,7.04-1.08,14.2-3.39,20.75,1.82-6.68,4.06-13.8,3.39-20.75h0Z"/>
  <path class="cls-36" d="M56.52,243.18c-.58,5.65-1.64,11.45-3.85,16.66,1.74-5.43,3.15-11.05,3.85-16.66h0Z"/>
  <path class="cls-36" d="M58.96,238.93c-.35-3.15-.85-6.95,1.23-9.6-1.61,2.94-1.44,6.41-1.23,9.6h0Z"/>
  <path class="cls-36" d="M57.61,235.71c-.21-1.25-.81-3.02-.71-4.26.25.68.38,1.39.46,2.11-.02,0,.33,2.19.26,2.14h0Z"/>
  <path class="cls-36" d="M57.14,235.74c-.85-1.87-2.39-3.28-3.81-4.65,1.78.96,3.13,2.83,3.81,4.65h0Z"/>
  <path class="cls-36" d="M53.24,232.21c-.5-.3-1.23-.44-1.51-.98.6.12,1.1.61,1.51.98h0Z"/>
  <path class="cls-36" d="M65.3,229.9c-.93.58-1.55,1.54-2.39,2.16.45-.99,1.48-1.73,2.39-2.16h0Z"/>
  <path class="cls-36" d="M57.25,236.69c.07,2,.13,4.21-.61,6.07.24-2.02.57-4.08.61-6.07h0Z"/>
  <path class="cls-36" d="M55.29,247.41c-.68,4.18-1.58,8.52-3.4,12.32,1.34-4.04,2.62-8.18,3.4-12.32h0Z"/>
  <path class="cls-6" d="M52.46,221.44c-.19-.25-.19-.63,0-.88s.55-.36.85-.25c0-.37.19-.73.49-.95s.7-.29,1.06-.19"/>
  <path class="cls-6" d="M65.7,220.97c-.03-.31.17-.64.46-.75s.66-.02.85.22c.2-.31.55-.53.91-.56s.75.11,1,.39"/>
  <path class="cls-6" d="M57.6,223.26c-.19-.25-.19-.63,0-.88s.55-.36.85-.25c0-.37.19-.73.49-.95s.7-.29,1.06-.19"/>
</svg>