<?xml version="1.0" encoding="UTF-8"?>
<svg id="Layer_2" xmlns="http://www.w3.org/2000/svg" version="1.1" viewBox="0 0 326.78 326.78">
  <!-- Generator: Adobe Illustrator 30.0.0, SVG Export Plug-In . SVG Version: 2.1.1 Build 123)  -->
  <defs>
    <style>
      .st0 {
        fill: #3c2415;
      }
    </style>
  </defs>
  <g>
    <path class="st0" d="M116.14,129.54c-10.19.05-20.37.11-30.56.16-6.43.03-6.45,10.03,0,10,10.19-.05,20.37-.11,30.56-.16,6.43-.03,6.45-10.03,0-10h0Z"/>
    <path class="st0" d="M89.02,134.65c.59,8.64.83,17.3.53,25.96-.22,6.63-1.71,13.96.16,20.46,4.86,16.9,28.25,8.42,39.78,6.12,6.31-1.26,3.64-10.9-2.66-9.64s-13.41,3.37-20.11,3.84-7.96-2.89-7.77-8.91c.39-12.68.94-25.13.07-37.82-.44-6.39-10.44-6.43-10,0h0Z"/>
    <path class="st0" d="M96.82,166.75l17.91-.23c6.43-.08,6.45-10.08,0-10l-17.91.23c-6.43.08-6.45,10.08,0,10h0Z"/>
  </g>
  <path class="st0" d="M155.62,122.81c-13.67,5.72-29.52,18.3-22.28,35.12,3.21,7.46,9.72,8.59,16.1,12.24,10.18,5.82-3.99,15.17-9.14,18.04-5.62,3.14-.58,11.78,5.05,8.63,6.73-3.75,13.78-8.19,16.39-15.88,2.42-7.11.28-14.65-6.14-18.77-5.84-3.74-14.5-4.16-13.87-13.1s9.36-13.64,16.54-16.64c5.85-2.45,3.28-12.13-2.66-9.64h0Z"/>
  <path class="st0" d="M192.6,125.07c-13.27,4.44-27.41,13.71-26.12,29.6.56,6.9,4.3,12.01,10.15,15.51,2.58,1.54,6.64,2.81,6.66,6.37.02,4.6-6.02,7.57-9.32,9.52-5.54,3.27-.51,11.92,5.05,8.63,6.52-3.85,13.14-8.61,14.11-16.72.84-7.02-3.34-11.76-9.04-15.1-2.71-1.58-5.61-2.78-6.94-5.84-1.17-2.69-.92-6.05.05-8.77,2.71-7.54,11.05-11.21,18.06-13.56,6.07-2.03,3.47-11.69-2.66-9.64h0Z"/>
  <path class="st0" d="M218.03,134.17c-27.27,7.54-16.29,58.83,11.91,52.36,25.84-5.93,14.27-57.4-11.91-52.36-6.31,1.22-3.64,10.86,2.66,9.64,6.77-1.3,11.01,7.8,12.48,13,1.68,5.94,2.2,18.34-5.88,20.05-15.22,3.24-21.6-28.91-6.6-33.06,6.19-1.71,3.56-11.36-2.66-9.64Z"/>
</svg>