<?xml version="1.0" encoding="UTF-8"?>
<svg id="Layer_1" xmlns="http://www.w3.org/2000/svg" version="1.1" viewBox="0 0 35.61 34.64">
  <!-- Generator: Adobe Illustrator 30.0.0, SVG Export Plug-In . SVG Version: 2.1.1 Build 123)  -->
  <defs>
    <style>
      .st0 {
        stroke: #81c341;
        stroke-miterlimit: 10;
        stroke-width: .5px;
      }

      .st0, .st1 {
        fill: none;
      }

      .st1 {
        stroke: #000;
        stroke-width: 3px;
      }
    </style>
  </defs>
  <path d="M2.54,34.64L14.01,5.53h4.38l11.46,29.11h-5.31c-.65-2.13-1.31-4.27-1.96-6.4h-12.22l-2.32,6.4H2.54ZM12.57,24.15h8.33l-4.12-11.35-4.21,11.35Z"/>
  <path class="st0" d="M0,25.02c.1,0,1.81,0,4.52-.04,2.21-.03,4.69-2.1,6.12-3.67.18-.2.31-.37.29-.3-.31,1.03-.65,2.07-.62,3.45,0,.53.6.71,1.2.93,1.72.64,2.77-1.55,3.05-1.93.46-.6,1.1,1.33,2.11,1.52.77.15,1.54.18,2.67.15.68-.02,1.13-.63,1.47-.74.95-.31,1.64.85,1.85,1.07.25.26.6-.52,1.01-.63.98-.27,2.23.63,3.17.48.45-.07,2.98.15,6.54.11,1.27-.04,1.46-.11,1.65-.15.19-.04.38-.04.58-.04"/>
  <line class="st1" x1="10.7" y1="1.5" x2="21.7" y2="1.5"/>
</svg>