<?xml version="1.0" encoding="UTF-8"?>
<svg id="Layer_1" xmlns="http://www.w3.org/2000/svg" version="1.1" viewBox="0 0 14.62 14.62">
  <!-- Generator: Adobe Illustrator 30.0.0, SVG Export Plug-In . SVG Version: 2.1.1 Build 123)  -->
  <path d="M4.16-.19h6.3c2.4,0,4.35,1.95,4.35,4.35v6.3c0,1.15-.46,2.26-1.27,3.08-.82.82-1.92,1.27-3.08,1.27h-6.3C1.76,14.81-.19,12.86-.19,10.46v-6.3C-.19,3.01.27,1.9,1.09,1.09,1.9.27,3.01-.19,4.16-.19ZM4.01,1.31c-.72,0-1.4.28-1.91.79s-.79,1.19-.79,1.91v6.6c0,1.49,1.21,2.7,2.7,2.7h6.6c.72,0,1.4-.28,1.91-.79.51-.51.79-1.19.79-1.91v-6.6c0-1.49-1.21-2.7-2.7-2.7h-6.6ZM11.25,2.44c.25,0,.49.1.66.27.18.18.27.41.27.66s-.1.49-.27.66c-.18.18-.41.27-.66.27s-.49-.1-.66-.27c-.18-.18-.27-.41-.27-.66s.1-.49.27-.66c.18-.18.41-.27.66-.27ZM7.31,3.56c.99,0,1.95.4,2.65,1.1.7.7,1.1,1.66,1.1,2.65s-.4,1.95-1.1,2.65c-.7.7-1.66,1.1-2.65,1.1s-1.95-.4-2.65-1.1c-.7-.7-1.1-1.66-1.1-2.65s.4-1.95,1.1-2.65,1.66-1.1,2.65-1.1ZM7.31,5.06c-.6,0-1.17.24-1.59.66s-.66.99-.66,1.59.24,1.17.66,1.59c.42.42.99.66,1.59.66s1.17-.24,1.59-.66c.42-.42.66-.99.66-1.59s-.24-1.17-.66-1.59c-.42-.42-.99-.66-1.59-.66Z"/>
</svg>