<?xml version="1.0" encoding="UTF-8"?>
<svg id="Outline" xmlns="http://www.w3.org/2000/svg" xmlns:xlink="http://www.w3.org/1999/xlink" viewBox="0 0 251.16 300.99">
  <defs>
    <style>
      .cls-1, .cls-2, .cls-3, .cls-4, .cls-5, .cls-6, .cls-7, .cls-8, .cls-9, .cls-10, .cls-11, .cls-12, .cls-13, .cls-14, .cls-15, .cls-16, .cls-17, .cls-18, .cls-19, .cls-20, .cls-21, .cls-22, .cls-23, .cls-24, .cls-25, .cls-26, .cls-27, .cls-28 {
        stroke-miterlimit: 10;
      }

      .cls-1, .cls-7, .cls-17, .cls-20, .cls-24, .cls-26, .cls-28 {
        stroke-width: .5px;
      }

      .cls-1, .cls-12 {
        stroke: #42210b;
      }

      .cls-1, .cls-29 {
        fill: #6e4929;
      }

      .cls-2, .cls-3, .cls-4, .cls-6, .cls-7, .cls-8, .cls-9, .cls-10, .cls-11, .cls-13, .cls-14, .cls-15, .cls-16, .cls-17, .cls-18, .cls-19, .cls-20, .cls-21, .cls-22, .cls-23, .cls-24, .cls-25, .cls-26, .cls-27, .cls-28 {
        stroke: #000;
      }

      .cls-2, .cls-10 {
        fill: #736357;
      }

      .cls-3 {
        fill: #c1272d;
      }

      .cls-3, .cls-15, .cls-21 {
        stroke-width: .75px;
      }

      .cls-30 {
        fill: #603813;
      }

      .cls-4 {
        stroke-width: .1px;
      }

      .cls-4, .cls-5, .cls-8, .cls-13, .cls-22, .cls-23 {
        fill: none;
      }

      .cls-5 {
        stroke: #2b1607;
        stroke-width: .09px;
      }

      .cls-6 {
        fill: #999;
      }

      .cls-6, .cls-8, .cls-16 {
        stroke-width: .05px;
      }

      .cls-7 {
        fill: #009245;
      }

      .cls-31 {
        fill: #a67c52;
      }

      .cls-9, .cls-10, .cls-25, .cls-27 {
        stroke-width: .25px;
      }

      .cls-9, .cls-32 {
        fill: #c7b299;
      }

      .cls-11, .cls-33 {
        fill: #998675;
      }

      .cls-12 {
        fill: url(#linear-gradient);
      }

      .cls-13 {
        stroke-width: 0px;
      }

      .cls-14, .cls-28 {
        fill: #666;
      }

      .cls-34 {
        fill: #4d4d4d;
      }

      .cls-15, .cls-35 {
        fill: #c69c6d;
      }

      .cls-16, .cls-24, .cls-25 {
        fill: #bdccd4;
      }

      .cls-17, .cls-36 {
        fill: #2b1607;
      }

      .cls-18, .cls-21 {
        fill: #39b54a;
      }

      .cls-19 {
        fill: #1a1a1a;
      }

      .cls-20 {
        fill: #8cc63f;
      }

      .cls-23 {
        stroke-width: .15px;
      }

      .cls-37 {
        opacity: .7;
      }

      .cls-38 {
        fill: #c6aa8b;
      }

      .cls-39 {
        fill: #42210b;
      }

      .cls-26 {
        fill: red;
      }

      .cls-27 {
        fill: #ff0;
      }
    </style>
    <linearGradient id="linear-gradient" x1="-22.13" y1="150.49" x2="275.66" y2="150.49" gradientTransform="translate(-1.11 -1.09)" gradientUnits="userSpaceOnUse">
      <stop offset=".21" stop-color="#cce0f4"/>
      <stop offset=".32" stop-color="#c9def3"/>
      <stop offset=".4" stop-color="#bfdbf1"/>
      <stop offset=".47" stop-color="#afd4ef"/>
      <stop offset=".54" stop-color="#98cbeb"/>
      <stop offset=".6" stop-color="#7bc0e6"/>
      <stop offset=".66" stop-color="#56b2e0"/>
      <stop offset=".72" stop-color="#2ca1d9"/>
      <stop offset=".74" stop-color="#1e9cd7"/>
      <stop offset=".84" stop-color="#0880c5"/>
      <stop offset=".9" stop-color="#0075be"/>
    </linearGradient>
  </defs>
  <rect id="himmel" class="cls-12" x="-23.25" y="24.41" width="297.81" height="250" transform="translate(-23.75 275.07) rotate(-90)"/>
  <g id="bølge">
    <g>
      <path class="cls-30" d="M250.86,243.34c-11.1-1.11-23.31,4.87-25.61,6.02-6.74,3.43-19.26,8.63-35.39,8.45-7.43-.08-30.86-.29-45.7-17.62-3.86-4.51-14.43-16.84-10.19-31.11,4.21-14.15,19.7-19.17,21.39-19.69.91,2.67,3.22,4.62,5.96,5.01,3.87.56,6.46-2.28,6.64-2.49-1.6,2.47-1.44,5.67.35,7.87,1.6,1.97,4.26,2.84,6.79,2.22-.73.81-4.59,5.13-3.5,6.83.94,1.47,5.39.71,11.06-1.79-.73,1.4-1.96,4.21-.83,5.69,1.64,2.14,7.49.52,11.02-1.78,5.83-3.8,7.27-10.7,7.65-13.14-.18-3.13-.56-7.31-1.45-12.19-1.25-6.88-2.01-10.81-4.62-15.13-.47-.77-3.28-5.31-8.4-8.82-11.2-7.69-24.54-4.4-26.89-3.78-1.94-1.94-10.15-9.74-23.36-10.56-13.25-.82-22.38,5.93-24.54,7.62-4.17.36-10.29,1.25-17.25,3.73-14.88,5.3-24.47,14.6-32.33,23.16-25.22,27.47-48.67,64.81-53.94,73.3-1.89,3.41-4.28,7.17-7.27,11.01v33.71c37.23.4,67.6.57,88.45.66,40.17.17,70.64.11,85.69.07,32.59-.09,59.1-.3,76.26-.46v-56.77Z"/>
      <path d="M250.82,243.37c-7.38-.59-14.83,1.42-21.61,4.25-6.73,3.14-13.44,6.45-20.73,8.1-18.02,4.28-40.98,2.84-56.41-8.17-3.83-2.67-7.11-6.03-10.03-9.66-3.49-4.35-6.53-9.18-8.09-14.58-4.92-16.09,6.73-29.55,21.55-34.18,1.66,5.44,8.55,6.84,12.3,2.64,0,0,.36.27.36.27-.69,1.08-1.07,2.37-1.06,3.65-.04,4.49,4.61,7.36,8.71,5.89-1.26,1.39-2.51,2.84-3.43,4.46-.37.69-.76,1.46-.69,2.17.67,3.01,9.67-.85,11.54-1.7,0,0-.32.64-.32.64-.74,1.65-2.03,4-.68,5.58.43.43,1.09.62,1.74.69,2.71.18,5.45-.89,7.82-2.15,4.92-2.61,7.69-8.37,8.45-13.46-.3-5.69-1.22-11.31-2.36-16.89-.58-2.78-1.28-5.54-2.5-8.09-2.47-5.06-6.58-9.33-11.45-12.13-7.5-4.21-16.66-4.6-24.87-2.47-6.16-6.18-14.6-10.04-23.31-10.58-8.69-.52-17.5,2.27-24.35,7.63-6.73.58-13.39,2.12-19.66,4.65-19.13,7.53-32.09,24.42-44.77,39.83-12.6,15.86-24.18,32.53-35.09,49.61-3.72,5.66-6.8,11.73-11.06,17.03.31-1.37,0,33.71.11,33.44,0,0-.46-.46-.46-.46,48.04.29,108.79.82,156.49.79,20.83.12,72.4-.23,93.9-.29,0,0-.23.23-.23.23l.2-56.74h0ZM250.9,243.31s.2,56.8.2,56.8c0,0,0,.23,0,.23,0,0-.23,0-.23,0-11.86.13-67.74.5-78.25.59-22.47.05-55.7.02-78.25.06-21.37-.02-71.93-.56-93.9-.69,0,0-.46,0-.46,0,0,0,0-.46,0-.46,0-.15.02-33.72.02-33.86,2.11-2.69,4.04-5.5,5.8-8.43,12.24-20.25,25.84-39.72,40.5-58.29,8.56-10.46,17.1-21.11,27.62-29.71,10.24-8.48,24.59-14.15,37.09-14.88,5.24-4.05,11.57-6.66,18.14-7.47,10.99-1.41,22.39,2.66,30.21,10.47,0,0-.31-.08-.31-.08,8.32-2.11,17.57-1.66,25.16,2.61,4.99,2.88,9.16,7.22,11.68,12.41,1.25,2.61,1.96,5.43,2.54,8.22,1.14,5.61,2.06,11.28,2.35,17.01-.98,7.13-5.46,13.68-12.66,15.58-1.97.51-4.53,1.2-6.29-.29-1.59-1.79-.23-4.39.6-6.18,0,0,.33.35.33.35-3.05,1.26-6.17,2.6-9.56,2.52-4.82-.59.21-6.22,1.72-7.96,0,0,.23.39.23.39-6.09,1.54-10.81-5.22-7.39-10.44,0,0,.36.27.36.27-.92.98-2.05,1.73-3.31,2.19-3.86,1.51-8.44-.91-9.66-4.79,0,0,.26.13.26.13-14.56,4.6-25.96,17.81-21.16,33.62,1.53,5.35,4.55,10.17,8.01,14.48,2.89,3.62,6.15,6.96,9.95,9.63,15.37,10.99,38.22,12.46,56.2,8.23,7.29-1.63,13.99-4.93,20.72-8.06,6.88-2.82,14.23-4.86,21.74-4.19h0Z"/>
    </g>
    <path class="cls-1" d="M43.39,204.76c1.93,3.08,19.87-4.59,27.19-9.93,2.45-1.79,4.25-3.36,4.25-3.36,2.14-3.03,4.26-5.67,7.61-7.45,3.39-1.81,7.35-2.52,11.15-2.02,2.63.35,5.15,1.25,7.74,1.84,1.14.26,2.32.46,3.47.28,1.15-.18,2.3-.78,2.86-1.8.57-1.02.4-2.47-.54-3.16,1.1-.11,2.13.47,3.14.92s2.25.75,3.17.13c1.25-.85,1.03-2.73.66-4.19,1.8,1.94,3.62,3.89,5.81,5.38,2.19,1.48,4.81,2.48,7.45,2.27,1.37-.11,2.62.27,3.55-.74.93-1.01,1.23-2.56.75-3.84,1.54,2.6,4.1,4.56,7.01,5.37,1.02.28,2.15.42,3.11-.01.97-.44,1.65-1.62,1.23-2.59.63,1.64,1.29,3.3,2.41,4.65,1.12,1.35,2.82,2.35,4.56,2.18,1.75-.17,3.36-1.8,3.11-3.53,1.05,1.89,1.84,3.42,2.34,4.43,1.04,2.08,1.36,2.88,2.34,3.67,1.15.92,2.37,1.16,3.14,1.31.88.17,3.06.6,4.91-.53,1.39-.84,2.01-2.21,2.14-2.12.12.08-.67,1.07-.98,2.45-.36,1.6-.07,3.68,1.21,5.27,1.35,1.68,3.21,2.11,3.64,2.2,1.82.37,3.07-.26,3.27.17.26.54-1.75,1.45-2.95,3.93-.44.91-1.01,2.08-.55,2.9.76,1.34,3.92,1.05,5.94.48,2.97-.84,4.73-2.67,5.13-2.27.41.41-1.65,2.18-1.26,4.53.03.21.3,1.68,1.42,2.24.54.27,1.06.22,2.35-.03,2.24-.45,3.36-.67,4.55-1.16.44-.18,1.92-.81,3.66-2.05,1.21-.87,3.53-2.52,5.13-5.36,1.27-2.25,1.54-4.26,1.77-6.17.47-3.79-.09-6.16-1.38-14.18-1.13-7.02-.86-6.19-1.09-7.04-2.59-9.67-9.99-15.27-10.64-15.75,0,0-7.02-5.16-15.59-5.47-4.38-.16-11.11.99-11.57,1.08-.6.12-.89.18-.89.18-3.34-3-5.97-4.8-5.97-4.8-3.01-2.07-5.69-3.04-7.56-3.7-5.13-1.82-9.41-2.06-11.02-2.11-2.24-.07-8.18-.19-13.82,2.35-2.27,1.03-7.84,3.99-8.63,4.77-.07.07-.38.39-.89.55-.44.14-.82.09-.89.08-.79-.08-6.28.65-11.86,2.22-2.51.71-9.18,2.74-16.74,7.3-.73.44-2.96,1.8-5.71,3.84-2,1.48-5.12,3.94-10.23,9.06-2.57,2.57-5.45,5.63-11,12.14-8.04,9.44-12.05,14.18-11.42,15.18Z"/>
    <path class="cls-39" d="M65.97,190.68c2.11-2.2,8.14-3.44,7.88,1.17,0,.49-.15,1.05-.56,1.34l-.03-.04c.54-.79.17-1.79-.08-2.62-.26-.9-1.07-1.3-1.96-1.39-1.85-.27-3.8.49-5.25,1.53h0Z"/>
    <path class="cls-31" d="M80.17,178.24c1.97-.83,4.56-1.4,6.41.06,1.69,1.61.04,3.81-2.03,3.47-.6-.08-1.12-.9-.65-1.39,0,0,.04.03.04.03-.14.23-.08.51.07.7.49.61,1.44.25,2.01-.1.93-.53,1-1.69.27-2.43-1.59-1.45-4.31-.86-6.13-.35h0Z"/>
    <g>
      <path class="cls-29" d="M98.37,175.56c2.2-.21,4.46,1.23,5.21,3.31.24.68.31,1.5-.16,2.04-.3.35-.76.51-1.2.6-1.46.29-3.03-.08-4.2-1"/>
      <path class="cls-39" d="M98.37,175.54c2.44-.29,5.06,1.41,5.57,3.97.33,1.62-1.1,2.39-2.51,2.36-1.21,0-2.72-.45-3.4-1.36,1.04.62,2.22.95,3.38.86,3.38.02,2.18-3.35.32-4.71-.92-.78-2.25-1.06-3.36-1.11h0Z"/>
    </g>
    <path class="cls-35" d="M99.09,177.52c1.68-.33,3.9,2,1.15,2.35-.42.02-1.26-.09-1.43-.44.49.04.94.05,1.37-.05.75-.16,1.31-.26.72-.93-.72-.83-1.26-.73-1.81-.91h0Z"/>
    <path class="cls-36" d="M98.11,166.27c4.2,1.14,8.14,3.43,11.18,6.56.98,1.05,2.69,2.02,2.44,3.68-.03.1,0,.1-.12.17-2.56,1.36-4.81-1.18-7.06-1.97,1.15.06,2.35.97,3.44,1.39,1.08.48,2.38.71,3.36.13l-.12.17c.16-1.33-1.42-2.33-2.23-3.26,0,0-1.53-1.53-1.53-1.53-2.65-2.45-6.05-4.16-9.35-5.33h0Z"/>
    <path class="cls-39" d="M103.71,172.71c.91.23,1.66.88,2.53,1.01,1.57.18.76-.55.1-1.23-1.29-1.34-3.46-1.39-4.78-2.53,1.77.57,3.79.74,5.06,2.24.91.9,1.48,2.06-.44,1.76-.95-.23-1.63-.93-2.5-1.21v-.05h.01Z"/>
    <path class="cls-39" d="M107.87,168.68l12.64,8.19c2.59,1.65,5.33,3.45,8.44,3.71.52,0,1.16-.28.86-.88-1.99-3.14-4.9-5.66-7.87-7.87-6.02-4.24-12.22-9.52-19.81-10,5.12-.09,9.8,2.51,13.95,5.25,4.11,2.86,8.39,5.62,11.77,9.42.84.96,1.62,1.92,2.29,3.05.6,1.87-2.1,1.37-3.08,1.02-2.45-.72-4.6-2.11-6.69-3.49.02-.04-12.66-8.33-12.5-8.4h0Z"/>
    <path class="cls-31" d="M118.25,173.34c-.68-.58-1.38-2.02-.24-2.56,1.07-.41,1.91.65,2.63,1.2,1,.82,2.04,1.59,3.13,2.29.53.39,1.1.6,1.63,1.19.56.68-.04,1.68-.82,1.81-.75.15-1.37-.23-1.92-.55.25-.07,1.1.49,1.83.22.55-.18.9-.8.52-1.17-.3-.35-1.12-.78-1.51-1.09-1.06-.76-2.08-1.58-3.06-2.45-.71-.57-1.35-1.55-2.34-1.26-1.01.46-.39,1.74.21,2.34,0,0-.04.03-.04.03h0Z"/>
    <path class="cls-35" d="M122.76,163.97c2.5.37,4.83,1.54,6.84,3.06,1.29.64,14.58,14.24,9.02,13.5-1.47-.48-3.09-1.29-4.14-2.31,1.05.68,2.18,1.24,3.35,1.66,1.37.53,2.34.45,1.26-1.25-2.6-4.16-5.89-8.18-9.64-11.4-1.91-1.61-4.34-2.72-6.68-3.26h0Z"/>
    <path class="cls-31" d="M143.71,183.28c-1.55-2.88-2.35-6.1-3.98-8.95-1.52-2.87-3.49-5.54-6.04-7.54-5.22-3.88-11.39-6.32-17.39-8.78,0,0,.02-.05.02-.05,6.22,1.98,12.44,4.45,17.62,8.52,5.32,4.16,7.35,10.91,9.76,16.8h0Z"/>
    <path class="cls-36" d="M133.56,161.41c3.79,3.07,10.48,4.59,10.89,10.35-.71-2.41-2.46-4.45-4.53-5.94-2.01-1.51-4.62-2.64-6.36-4.41h0Z"/>
    <path class="cls-39" d="M130.6,155.87c7.67,2.7,14.93,7.42,19.64,14.15,0,0-.04.03-.04.03-5.38-6.11-12.06-11.24-19.6-14.18h0Z"/>
    <path class="cls-35" d="M128.71,151.57c6.48-.92,19.52,2.39,19.45,10.52,0,0-.05,0-.05,0-.34-4.2-4.21-6.68-7.67-8.36-3.61-1.73-7.82-2.32-11.73-2.15h0Z"/>
    <path class="cls-38" d="M149.01,180.04c.87,1.61.37,3.93-1.9,3.38-.58-.2-1.01-.87-.8-1.42h.05c.21,1.05,1.42,1.2,2.22.8.88-.55.54-1.97.43-2.76h0Z"/>
    <path class="cls-31" d="M150.46,180.3c1.2.76,1.14,2.44,1.01,3.69-.16,1-1.25,1.42-2.09,1.67-.85.29-1.95.38-2.7-.24-.37-.29-.64-.76-.59-1.22h.05c.22.85,1.11,1.25,1.88,1.19.79-.05,1.7-.28,2.42-.6.76-.34.85-1.29.83-2.14.02-.84-.08-1.81-.83-2.31l.03-.04h0Z"/>
    <path class="cls-35" d="M147.21,172.52c4.29,2.95,7.29,8.43,6.38,13.71,0,0-.05,0-.05,0-.04-5.24-2.23-10.49-6.33-13.71h0Z"/>
    <path class="cls-31" d="M157.51,188.79c.78,1.47,2.13,2.95,3.89,3.01,1.88.1,3.12-1.33,2.88-3.18-.17-3.47-1.54-6.83-3.24-9.74,2.34,2.65,3.59,6.2,3.64,9.73.02.87-.1,1.88-.79,2.56-2.24,2.17-5.61.03-6.39-2.38h0Z"/>
    <path class="cls-38" d="M159.38,185.29c1.05.08,1.44-.98,1.44-1.83.07-.2.05-.85.24-.95.52.91.22,2.2-.71,2.72-.17.14-.97.26-.97.05h0Z"/>
    <path class="cls-39" d="M159.4,187.9c1.69-.26,2.35-1.76,3.06-3.03.42,1.64-1.64,3.24-3.06,3.03h0Z"/>
    <path class="cls-39" d="M160.58,172.76c4.68,5.2,7.27,12.76,5.62,19.69,0,0-.05,0-.05,0,.71-6.98-1.13-14.28-5.58-19.68h0Z"/>
    <path class="cls-31" d="M170.17,178.26c-2.08-2.56-4.15-5.13-6.51-7.42-2.38-2.27-5.14-4.15-7.28-6.68,2.52,1.96,5.27,4.03,7.56,6.4,2.26,2.38,4.46,5.07,6.23,7.7h0Z"/>
    <path class="cls-38" d="M159.28,162.83c3.57,2.54,7.47,5.3,9.89,8.93-1.46-1.27-3.43-3.21-4.84-4.58-1.57-1.53-3.47-2.95-5.05-4.35h0Z"/>
    <path class="cls-39" d="M160.73,160c2.75,2.06,5.88,4.29,7.55,7.29-2.54-2.38-4.96-5.08-7.55-7.29h0Z"/>
    <path class="cls-31" d="M170.42,165.38c3.52,1.32,8.31,3.07,9.17,7.15-1.88-3.63-5.7-5.53-9.17-7.15h0Z"/>
    <path class="cls-39" d="M181.11,170.06c4.36,1.06,7.43,4.65,10.38,7.78,2.96,3.07,5.91,7.24,5,11.74,0,0-.05,0-.05,0,.34-4.48-2.43-8.26-5.24-11.47-2.84-3.23-5.91-6.76-10.08-8.05h0Z"/>
    <path class="cls-39" d="M192.51,187.84c-2.73-5.25-6.64-9.68-10.65-13.97,4.64,3.39,8.26,8.82,10.65,13.97h0Z"/>
    <path class="cls-39" d="M177.16,177.33c1.15,4.92,4.18,9.13,5.41,14.09,1.24,4.2.32,9.61-3.79,11.93-.55.25-1.27.64-1.8.61,5.03-1.71,6.41-7.77,5.2-12.45-1.05-4.86-4.19-9.31-5.02-14.19h0Z"/>
    <path class="cls-36" d="M174.01,185.47c2.46,3.67,3.61,9.42,1.27,13.43-1.5,1.97-4.1.87-4.65-1.26-.23-.9-.33-2.02-.14-2.82.08.93.15,1.86.47,2.7,1.55,3.45,4.55,1.78,4.93-1.39.79-3.61-.09-7.54-1.89-10.67h0Z"/>
    <path class="cls-38" d="M172.6,195.55c-.23.68.05,2,.98,1.55.92-.93.76-2.57.82-3.81.03-.83-.56-2.45-1.07-.93-.34.99-.58,2.1-.73,3.19h0ZM172.55,195.54c.21-1.36-.23-3.01.78-4.18,1.14-.71,1.53,1.09,1.47,1.91-.03,1.14-.14,2.24-.55,3.32-.13.26-.3.52-.58.67-1.08.43-1.35-.98-1.12-1.72h0Z"/>
    <path class="cls-38" d="M190.18,197.23l-4.15,4.83c-.78.77-1.31,2.07-2.67,1.91-1.43-.53-.8-2.24.05-2.92,0,0,.04.03.04.03-.48.69-1,2.09.02,2.4.9.07,1.61-1.12,2.26-1.69.03.03,4.41-4.72,4.44-4.56h0Z"/>
    <path class="cls-39" d="M193.75,196.83c-2.32,2.31-4.74,4.51-7.26,6.6l-1.9,1.56c-.63.47-1.28,1.15-2.27,1.19-2.23-.21-2.17-3-.6-3.99,0,0,.03.04.03.04-1.16,1.01-1.24,3.34.56,3.45.7-.02,1.32-.6,1.98-1.08l1.95-1.48c2.58-1.96,5.09-4.28,7.51-6.29h0Z"/>
    <path class="cls-35" d="M194.97,200.07l-4.09,6.05c-.54.74-.98,1.7-1.88,2.12-1.05.53-2.49-.44-1.86-1.61.29-.59.76-.99.96-1.56h.05c-.07.64-.51,1.16-.69,1.69-.42,1.34,1.35,1.38,1.98.53.82-.83,4.67-6.37,5.52-7.22h0Z"/>
    <path class="cls-35" d="M197.52,201.7c-.88,4.02-3.86,7.45-7.65,9.03-1.41.69-3.98,1.01-4.41-1.03-.14-.82.03-1.85.43-2.42-.18.78-.3,1.61-.09,2.34.54,1.72,2.6,1.15,3.89.66,3.82-1.36,6.69-4.82,7.83-8.57h0Z"/>
    <path class="cls-35" d="M79.14,180.19c1-.31,2.2-.59,3.13.12.78.46,1.02,1.9-.02,2.28-.23.13-.91-.05-.8-.23,1.11.26,1.26-1.16.56-1.74-.75-.76-2.01-.42-2.87-.43h0Z"/>
    <path class="cls-39" d="M66.87,192.37c-.92,1.03.14,1.89,1.24,1.77.88-.04,3.71-1.02,2.82-2.2-.26-.28-.77-.33-1.26-.36-.95-.03-2.07.03-2.8.79h0ZM66.83,192.34c.87-.98,2.35-1.46,3.67-1.18,1.06.18,1.43,1.44.59,2.14-.91.64-1.88,1.05-2.98,1.09-1.19.04-2.24-1-1.28-2.05h0Z"/>
    <path class="cls-38" d="M145.29,191.7c-7.1,3.98-11.64,11.4-13.11,19.28,0,0-.05,0-.05,0,.5-8.08,6.1-15.74,13.16-19.28h0Z"/>
    <path class="cls-39" d="M135.65,192.58c-13.4,12.19-18.7,31.93-14.26,49.35,0,0-.05.01-.05.01-5.4-17.26.8-37.64,14.3-49.36h0Z"/>
    <path class="cls-38" d="M133.15,186.44c-3.18,1.06-4.62,4.42-6.43,6.96-1.75,2.73-3.56,5.41-5.6,7.95,0,0-.04-.03-.04-.03,1.59-2.83,3.42-5.51,5.31-8.15,1.84-2.42,3.61-6.06,6.76-6.73h0Z"/>
    <path class="cls-38" d="M119.29,206.82c-2.76,4.24-3.95,9.16-4.68,14.11-.38-4.87,1.84-10.25,4.68-14.11h0Z"/>
    <path class="cls-31" d="M111.25,237.72c-1.23-13.69-2.46-28.22,3.34-41.11,1.82-4.1,5.31-8.57,10.26-8.3-2.22.12-4.52,1.13-6.12,2.76-3.19,3.31-4.7,7.91-6.01,12.23-3.22,11.15-2.15,23.08-1.46,34.42h0Z"/>
    <path class="cls-36" d="M109.9,193.88c-6.68,10.16-9.36,22.48-8.7,34.53,0,0-.05,0-.05,0-1.61-11.99,1.92-24.75,8.75-34.53h0Z"/>
    <path class="cls-38" d="M110.52,185.51c-3.05,4.3-5.21,9.35-7.39,14.13,1.14-5.07,4.24-10.08,7.39-14.13h0Z"/>
    <path class="cls-39" d="M97.32,211.67c-1.27,4.76-1.73,9.88-2.56,14.72-.24-4.84,1.11-10.15,2.56-14.72h0Z"/>
    <path class="cls-39" d="M99.07,186.25c-7.72,11.54-12.05,25.02-13.71,38.74,0,0-.05,0-.05,0,.73-13.81,5.9-27.54,13.76-38.74h0Z"/>
    <path class="cls-31" d="M77.58,195.9c-3.45,5.41-5.37,11.54-6.85,17.73.38-6.23,3.32-12.68,6.85-17.73h0Z"/>
    <path class="cls-39" d="M58.89,210.59c.2-3.7,1.05-7.95,3.6-10.69-1.69,3.38-3.16,7-3.6,10.69h0Z"/>
    <path class="cls-36" d="M81.75,200.65c.36-3.84,1.28-8.18,3.83-11.1-1.68,3.54-3.24,7.28-3.83,11.1h0Z"/>
    <path d="M34.41,243.43c.75-12.65,5.91-25.48,15.35-34.14,0,0,.05.05.05.05-8.48,9.45-14.26,21.5-15.4,34.09h0Z"/>
    <path class="cls-31" d="M127.33,224.57c.65,12.5,5.59,24.15,12.06,34.7,0,0-.08.06-.08.06-4.1-4.73-7.04-10.42-8.92-16.38-1.87-5.87-3.26-12.42-3.05-18.39h0Z"/>
    <path class="cls-39" d="M141.26,243.69c-1.96-2.53-3.7-5.26-5.17-8.12-1.44-2.78-2.98-6.1-3.01-9.14,1.4,2.9,2.5,5.84,3.73,8.8,1.34,3.26,3.14,5.88,4.45,8.47h0Z"/>
    <path class="cls-31" d="M145.54,251.75c4.41,4.95,10.39,7.65,16.39,10.14,0,0-.02.1-.02.1-3.32-.26-6.48-1.62-9.2-3.51-2.63-1.81-5.58-4.17-7.17-6.73h0Z"/>
    <path class="cls-39" d="M155.28,254c1.91.28,3.42,1.62,4.86,2.74,1.46,1.14,2.98,2.19,4.58,3.11,3.17,1.87,6.89,3.14,10,4.81-5.67-.67-10.67-3.87-14.9-7.53-1.38-1.23-2.72-2.61-4.56-3.02l.02-.1h0Z"/>
    <path class="cls-39" d="M203.69,265.02c6.44-.07,12.83-1.15,19.27-.68-2.87,1.03-6.46.96-9.61.99-3.15-.07-6.71.14-9.66-.31h0Z"/>
    <path class="cls-39" d="M64.84,213.64c-.2-1.62-.46-3.78.65-5.06-.14,1.7-.61,3.41-.65,5.06h0Z"/>
    <path class="cls-31" d="M20.77,266.44c30.65-5.9,62.02-11.32,93.27-7.2,4.42.69,9.04.85,13.26,2.44,4.27,1.74,7.63,4.9,11.11,7.63,3.47,2.79,7.41,4.96,11.07,7.5,11,7.41,22.46,15.17,35.9,16.7,13.28,1.09,27.04,1.07,40.15.05-13.34,1.74-26.82,1.57-40.23.76-13.64-1.29-25.36-9.27-36.37-16.7-3.67-2.58-7.59-4.77-11.07-7.62-3.49-2.79-6.79-5.9-10.86-7.59-4.15-1.57-8.69-1.76-13.04-2.46-4.43-.55-8.87-.97-13.33-1.23-26.81-1.82-53.72,3.29-79.85,7.71h0Z"/>
    <g>
      <path class="cls-35" d="M2.93,263.52c-1.39,2.52,20.45,14.48,24.08,17.32.21.16,1.04.73,2.14.84.77.08,1.62-.19,2.04-.84.57-.87.21-2.04-.24-2.98-1.12-2.32-2.68-4.43-4.59-6.16,5.01,3.21,10.36,5.78,15.83,8.11.61.26,1.26.52,1.92.47.66-.05,1.35-.52,1.41-1.18.04-.42-.17-.82-.39-1.19-1.23-2.09-2.84-3.96-4.71-5.51,2.74,1.63,5.65,2.93,8.57,4.2.93.4,2.11.76,2.88.1.56-.47.66-1.3.61-2.03-.13-1.97-1.08-3.87-2.57-5.16-.46-.4-.21-1.22.33-1.51s1.22-.16,1.79.08c1.82.74,3.1,2.37,4.48,3.77,1.38,1.4,3.16,2.71,5.12,2.51.44-2.22-.42-4.65-2.16-6.09,3.33,2.36,7.18,3.99,11.17,4.85,1.08.23,2.29.39,3.23-.18.93-.56,1.37-1.71,1.37-2.79,0-1.08-.37-2.13-.73-3.15,2.64.98,5.57,1.78,8.3,2.48,1.41.36,3.11.62,4.16-.4.79-.77.89-2.06.47-3.08-.35-.86-.91-1.42-2.15-2.46-1.18-.99-2.29-1.7-2.69-1.93-5.37-3-22.56-1.48-22.56-1.48-9.11.81-6.82.22-17.27,1.15-3.43.3-5.89.81-7.87,1.39-6.57,1.92-8.91,2.71-11.93,3.43-10.86,2.58-19.14-4.21-20.05-2.57Z"/>
      <path d="M2.93,263.52c-.64,2.69,15.24,11.42,18,13.31,2.46,1.37,4.78,3.15,7.22,4.49.85.32,1.88.37,2.59-.2,1.49-1.39-.15-3.56-.9-4.97-.99-1.6-2.21-3.06-3.61-4.32,0,0,.22-.29.22-.29,4.26,2.7,8.79,4.96,13.42,6.99,1.01.39,2.45,1.16,3.46,1.42,1.08.36,2.45-.47,1.7-1.65-1.23-2.15-2.88-4.1-4.81-5.67l.33-.47c2.58,1.53,5.31,2.77,8.07,3.96.69.3,1.36.6,2.04.63,2.5-.04,1.32-3.69.58-5.04-.46-.88-1.06-1.44-1.76-2.16-.43-.68-.01-1.6.69-1.9,1.75-.54,3.16.7,4.36,1.7,2.08,1.89,3.97,4.86,7.04,4.64,0,0-.33.3-.33.3.41-2.08-.41-4.38-2.04-5.72l.48-.62c2.97,2.09,6.34,3.58,9.86,4.47,4.72,1.57,6.29-.93,4.61-5.29,0,0-.26-.75-.26-.75l.74.28c2.57.99,5.48,1.82,8.15,2.54.9.24,1.83.44,2.72.32,2.02-.18,2.5-2.71,1.38-4.15-1.14-1.43-2.76-2.61-4.32-3.58-3.4-1.64-7.4-1.55-11.11-1.64-3.67.02-7.7.18-11.38.45-7.24.67-14.61.43-21.81,1.57-4.75.9-9.36,2.61-14.08,3.75-4.73,1.31-9.79.98-14.42-.55-2.05-.59-3.96-1.61-6.03-2.08-.29-.04-.65-.05-.82.23h0ZM2.93,263.52c.17-.28.54-.28.82-.24.9.15,1.75.52,2.61.83,9.77,3.97,15.19,2.68,24.76-.55,9.24-3.49,19.94-3,29.25-3.94,5.58-.44,11.3-.51,16.85.29,2.86.34,5.72,1.27,7.9,3.26,1.49,1.14,3.24,2.78,2.67,4.88-.54,2.29-3.33,2.21-5.11,1.67-2.73-.67-5.64-1.42-8.28-2.36,0,0,.48-.47.48-.47.94,2.1,1.46,5.52-1.19,6.65-1.43.54-2.97.05-4.33-.27-3.61-.93-7.05-2.52-10.09-4.67,0,0,.48-.62.48-.62,1.93,1.61,2.8,4.3,2.22,6.74-1.76.28-3.42-.6-4.65-1.64-1.77-1.47-2.95-3.41-4.96-4.46-.62-.33-1.34-.55-1.87-.33-.24.09-.42.34-.46.59-.03.28.05.33.41.65.56.55,1.04,1.18,1.42,1.87.79,1.61,1.75,4.29.08,5.67-1.12.72-2.51.06-3.52-.38-2.76-1.21-5.52-2.47-8.12-4.03,0,0,.33-.47.33-.47,1.98,1.64,3.65,3.62,4.92,5.87.39.6.37,1.59-.27,2.04-.57.49-1.39.54-2.03.36-5.91-2.3-11.6-5.21-16.96-8.6,0,0,.22-.29.22-.29,1.73,1.58,6.98,7.61,4.43,9.77-.83.64-1.95.56-2.84.21-2.48-1.37-4.75-3.17-7.23-4.57-2.84-1.96-18.55-10.75-17.91-13.46h0Z"/>
    </g>
    <g>
      <path class="cls-31" d="M94.3,263.05c.19-.18,13.12,9.27,16.21,10.8,1.2.59,1.74.4,1.95.25.42-.29.54-.85.59-1.35.33-3.53-1.5-7.18-4.52-9.02,6.15,3.54,9.59,10.56,15.52,14.46.97.64,2.02,1.19,3.17,1.35s2.4-.15,3.18-1.01c.78-.87.95-2.16.72-3.3-.23-1.15-.82-2.19-1.39-3.2,4.3,4.52,8.6,9.04,12.9,13.56,1.1,1.16,2.68,2.42,4.12,1.71,1.01-.5,1.11-2.2,1.15-2.87.32-5.49-5.59-11.17-9.04-14.45-3.91-3.72-7.4-7.03-13.06-8.79-2.52-.78-4.99-1.11-8.4-1.56-2.16-.29-2.44-.23-9.83-.86-5.05-.43-5.56-.51-7.97-.66-1.23-.08-4.31-.28-7.51-.34-5.68-.12-9.88.23-18.05.92-8.01.68-9.11,1-9.11,1.01,0,.02,5.55-1.35,12.22.12,2.54.56,4.47,1.36,5.46,1.81,7.16,3.25,10.17,8.39,13.53,7.47.27-.07.85-.24,1.1-.74.84-1.66-3.04-5.19-2.93-5.29Z"/>
      <path d="M94.27,263.02c4.98,2.79,9.26,6.33,14.07,9.32,1.29.72,4.4,3.28,4.52.31.28-3.43-1.51-6.95-4.44-8.74,0,0,.22-.37.22-.37,6.27,2.99,13.54,16.94,20.17,15.64,1.4-.33,2.21-1.67,2.14-3.07-.04-2.05-1.64-4.11-2.58-5.92,3.09,3.24,9.04,9.44,12.12,12.65.96.96,2.49,2.74,3.56,3.54,4,2.88,3.92-3.2,2.84-5.57-2.65-6.15-8.32-10.58-13.21-14.97-7.62-6.76-19.43-6.09-28.95-7.11-2.95-.2-7.16-.45-10.15-.6-3.38-.26-6.77-.13-10.14.19-3.26.25-12.02.93-15.19,1.23-.93.13-3.24.3-4.18.52.1.09.46-.73.26-.6-.04-.16-.27-.27-.37-.24-.11.01,0,0-.02,0h.04c6.96-1.31,14.43-.16,20.48,3.55,1.47.88,2.85,1.89,4.19,2.94,1.96,1.34,3.91,3.72,6.49,3.21,2.93-.78-.69-4.41-1.67-5.6,0,0-.1-.12-.1-.12-.02-.07-.09-.03-.08-.2h0ZM94.34,263.09c1.1,1.16,2.41,2.48,3,4.04.14.41.2.9-.04,1.32-.83,1.14-2.56,1-3.69.48-3.07-1.55-5.44-4.05-8.44-5.68-2.9-1.69-6.11-2.84-9.42-3.36-3.51-.54-7.13-.51-10.61.18,0,0-.04,0-.04,0l-.1.02c-.12.03-.38-.08-.44-.23-.25.14.14-.69.27-.61,1.06-.23,3.21-.46,4.33-.59,7.54-.77,15.31-1.52,22.89-1.18,3.95.15,8.8.3,12.71.82,7.92.85,17.78.63,25.04,4.2,4.61,2.33,8.23,6.09,11.87,9.67,2.35,2.45,4.66,5.1,5.92,8.38,2.12,5.68-.79,10.51-5.83,4.6-1.07-1.12-4.12-4.37-5.24-5.55,0,0-6.99-7.4-6.99-7.4l.44-.33c1.61,2.36,2.67,6.76-1.03,7.8-5.28,1.08-10.68-6.67-13.94-10.05-1.95-2.18-4.06-4.23-6.57-5.71l.22-.37c3.07,1.89,4.91,5.55,4.61,9.13-.02.72-.35,1.74-1.24,1.77-1.53-.05-2.64-1.08-3.88-1.79-2.36-1.53-4.66-3.13-6.97-4.74-1.99-1.34-4.91-3.52-6.83-4.83h0Z"/>
    </g>
    <path class="cls-31" d="M30.05,270.12c3.07,2.88,6.82,4.88,10.84,6.02,0,0-.65.58-.65.58-.12-.7-.42-1.4-.89-2-.46-.61-1.09-1.1-1.84-1.44l.02-.1c.86.04,1.69.43,2.37,1.02.89.75,1.35,1.96,1.49,3.12-2.37-.54-4.56-1.69-6.59-2.98-1.8-1.16-3.42-2.58-4.83-4.15l.07-.07h0Z"/>
    <path class="cls-38" d="M45.75,271.51c-.55,1.15,1.21,1.77,1.86,1.05.1-.06.35-.38.1-.76l.03-.1c.7-.12,1.06.84.71,1.42-.67,1.03-2.32.62-2.9-.28-.27-.47-.21-1.07.14-1.39l.08.06h0Z"/>
    <path class="cls-39" d="M65.46,266.66c2.51-.64,5.76.46,6.91,3.03.25.79-.4,1.71-1.2,1.68-1.12.01-2.16-.2-3.11-.7l.02-.1c1.04-.04,2.06-.07,2.97-.2.34-.07.35-.19.35-.48-.79-2.17-3.58-3.39-5.92-3.14,0,0-.02-.1-.02-.1h0Z"/>
    <path class="cls-39" d="M71.04,260.67c4.32.26,9.26,2.19,11.29,6.26,0,0-.08.06-.08.06-1.75-1.35-3.28-2.81-5.16-3.93-1.84-1.12-3.9-1.92-6.06-2.3,0,0,.01-.1.01-.1h0Z"/>
    <path class="cls-31" d="M73.75,266.63c-2.93-2-6.36-3-9.1-5.28,0,0,.04-.09.04-.09,1.82.22,3.41,1.06,4.88,2.1,1.49.97,2.91,2.03,4.24,3.19l-.06.08h0Z"/>
    <path class="cls-30" d="M104.21,266.09c2.87-.51,5.92.85,7.61,3.22.77.9.73,2.67-.79,2.67-1.02,0-1.54-.99-2.32-1.33,0,0,.01-.1.01-.1.62-.06,1.19.32,1.64.48,1.01.33,1.17-.27.62-1.18-1.31-2.36-4.08-3.77-6.77-3.65,0,0-.01-.1-.01-.1h0Z"/>
    <path class="cls-39" d="M123.42,266.57c2.22,2.4,5.72,6.4,4.26,9.92-.9,1.82-3.34,1.58-4.37.07-.48-.64-.75-1.34-.96-2.05l.09-.05c.46.58.87,1.18,1.38,1.62.92.83,2.29,1.06,3-.1,1-1.8-.18-4.05-1.04-5.78-.69-1.26-1.54-2.44-2.45-3.58,0,0,.08-.07.08-.07h0Z"/>
    <path d="M113.73,262.67c2.34,1.02,4.66,2.37,6.49,4.17.57.65,1.08,1.37,1.42,2.2l-.08.06c-1.48-.93-2.62-2.09-3.84-3.29-1.25-1.12-2.6-2.15-4.03-3.06,0,0,.05-.09.05-.09h0Z"/>
    <path class="cls-30" d="M129.04,267.7c2.38,1.2,4.65,2.67,6.74,4.36,2,1.59,4.4,3.75,5.21,6.1-2.05-1.74-3.84-3.62-5.74-5.49-1.94-1.79-4.03-3.43-6.27-4.88l.05-.09h0Z"/>
    <path class="cls-30" d="M143.8,281.56c.79.25,1.37,1.2.94,2.04-.2.48-.81.92-1.36.69-.49-.17-.89-.83-.52-1.26,0,0,.1.01.1.01.26.32.52.28.67.28.15-.03.29.01.43-.14.41-.43.14-1.16-.31-1.53,0,0,.05-.09.05-.09h0Z"/>
    <g>
      <path class="cls-31" d="M125.66,261.6c.47-1.11,16.46,7.96,37.72,5.3,0,0,0,0,0,0,.07-.02,16.09-3.86,31.65-1.13,1.37.24,2.75.55,3.96,1.25,1.2.7,2.22,1.84,2.46,3.21.24,1.37-.46,2.93-1.77,3.41-1.31.48-3.01-.51-3.01-1.9.18.42.51,1.01,1.12,1.46.84.62,1.44.4,1.88.9.7.8.4,2.76-.63,3.39-.86.53-2.03,0-3.3-.63-4.1-2.04-9.11-5.1-9.06-5.19.04-.06,2.79,1.17,3.42,3.47.22.82.12,1.56.01,2.04-.55,1.04-1.22,1.75-1.9,2.24-4.39,3.16-13.19.13-22.1-7.12,1.46.7,3.7,2.03,5.68,4.43,1.02,1.24,1.73,2.45,2.21,3.47.36,1,.67,2.2.2,2.55-.65.49-2.46-1.02-4.31-2.34-4.67-3.31-10.38-5.84-11.1-4.96-.71.85,3.61,4.52,2.79,5.73-.9,1.33-7.39-1.21-12.43-4-4.32-2.4-5.37-3.76-10.3-7.21-8.04-5.62-13.45-7.74-13.19-8.36Z"/>
      <path d="M125.61,261.58c.2-.22.43-.1.62-.09.59.12,1.16.32,1.74.51,5.29,1.86,10.7,3.48,16.24,4.36,6.32,1.04,12.8,1.21,19.15.38,7.82-1.73,16.04-2.5,24.1-2.08,2.02.11,4.04.28,6.05.6,2.89.38,6.65.97,7.98,4.05.68,1.51.21,3.53-1.26,4.41-1.5.96-3.87-.13-3.91-1.98,0,0-.01-1.64-.01-1.64l.65,1.51c.33.75.89,1.4,1.66,1.66.58.12,1.44.43,1.62,1.17.41,1.27-.05,3.01-1.4,3.53-.99.31-2-.19-2.85-.57-1.09-.53-2.16-1.08-3.22-1.66-2.14-1.18-4.24-2.33-6.32-3.72-.09-.1,0,.04-.14-.17-.11-.32.08-.54.38-.56.38.06.56.22.88.38,1.98,1.08,3.57,3.32,2.91,5.65-1.04,2.24-3.53,3.67-5.94,3.75-2.4.18-4.72-.45-6.9-1.24-5.66-2.09-10.55-6-15.16-9.79,0,0,3.82,1.82,3.82,1.82,3.53,1.69,6.49,4.61,8.14,8.17.38.94,1.09,3.58-.88,3.28-1.82-.59-3.13-2.02-4.66-2.96-2.95-1.89-6.52-4.16-9.76-4.65.55,1.52,1.97,2.61,2.72,4.26,1.83,5.79-13.56-2.72-15.1-3.89-2.41-1.57-4.55-3.47-6.86-5.14-4-2.97-8.31-5.55-12.64-7.99-.46-.27-.93-.54-1.36-.87-.12-.13-.33-.21-.3-.48h0ZM125.71,261.62c.23.55,1.14.85,1.63,1.2,1.85,1.02,3.79,2.11,5.58,3.17,4.96,2.83,9.42,6.48,14.13,9.65,4.18,2.36,8.75,4.99,13.58,5.49,2.13.1-1.99-3.86-2.21-4.83-.86-2.3,2.38-1.33,3.44-.88,2.72,1.05,5.23,2.48,7.63,4.09,1.49.92,2.84,2.35,4.42,2.83.15-.42-.22-1.54-.35-1.94-1.57-3.34-4.33-6.07-7.66-7.66l.53-.83c5.22,4.02,11.27,8.35,18.08,8.27,2.15.05,4.5-1.59,5.2-3.1.62-2.21-1.17-4.19-3.08-5.03,0,0-.06,0,.09,0,.12,0,.25-.09.29-.16.05-.04.12-.24.05-.37-.09-.15-.08-.11-.07-.11,2.92,1.91,6.17,3.73,9.34,5.32,1.02.5,2.26.99,2.87.15.57-.64.79-2.22.03-2.72-.48-.19-1.25-.34-1.69-.74-.53-.41-.92-.97-1.17-1.56l.64-.13c.17,1.96,2.96,2.31,3.82.47.97-1.74-.15-3.8-1.73-4.77-1.63-1.04-3.68-1.32-5.65-1.61-5.97-.91-12.04-.93-18.06-.47-4.02.33-8.03.85-11.97,1.71-6.39.76-12.88.53-19.22-.52-5.54-.9-10.96-2.55-16.24-4.43-.78-.2-1.62-.69-2.23-.49h0Z"/>
    </g>
    <path class="cls-36" d="M192,270.71c1.44-.74,2.01,1.38,2.64,2.16.81.9,1.59,1.54,2.44,2.46,0,0-.04.09-.04.09-2.14.1-3.28-2.13-3.76-3.85-.18-.5-.68-.98-1.24-.77,0,0-.05-.09-.05-.09h0Z"/>
    <g>
      <path class="cls-31" d="M171.29,268.59c4.73-.11,9.47,1.74,12.87,5.03.72.7,1.43,1.76.92,2.63-.39.67-1.28.8-2.05.87-.83.07-1.7.13-2.47-.18s-1.41-1.13-1.22-1.95"/>
      <path class="cls-35" d="M171.29,268.54c4.12-.23,8.31,1.04,11.65,3.5.86.66,1.71,1.25,2.36,2.18.87,1.17.51,2.8-1,3.18-1.84.48-5.53.25-5.01-2.43,0,0,.1.02.1.02,0,1.66,1.91,1.96,3.22,1.71,3.84-.2,1.63-2.62-.15-4.04-3.1-2.51-7.09-3.98-11.16-4.03v-.1h0Z"/>
    </g>
    <path class="cls-36" d="M169.58,271.62c2.43-.1,4.85.74,6.8,2.19.61.4,1.66,1.5.84,2.38-.74.67-1.8-.09-2.31-.67,0,0,.06-.08.06-.08.39.11,1.39.4,1.59.17,0-.03.01-.15-.04-.21-.34-.5-1.24-1.28-1.81-1.71-1.48-1.05-3.26-1.75-5.13-1.96v-.1h0Z"/>
    <g>
      <path class="cls-31" d="M148.19,271.6c5.8-.78,11.87.61,16.74,3.85"/>
      <path class="cls-35" d="M148.18,271.55c5.69-.93,12.39-.24,16.78,3.86,0,0-.06.08-.06.08-2.7-1.14-5.29-2.26-8.09-3.08-3.08-.89-5.69-.79-8.64-.86h0Z"/>
    </g>
    <path class="cls-39" d="M201.32,277.98c6.91,3.22,14.56,3.08,21.94,2.02,0,0,.03.1.03.1-3.5,1.55-7.46,1.87-11.22,1.34-3.67-.49-7.8-1.51-10.74-3.46h0Z"/>
    <path class="cls-31" d="M186.69,286.18c7.16,2.58,14.69,2.93,22.19,3.6,0,0,0,.1,0,.1-3.76.7-7.63.44-11.35-.34-3.64-.76-7.71-1.7-10.84-3.36h0Z"/>
    <path class="cls-38" d="M166.12,284.25c7.58,2.29,15.42,3.22,23.04,5.31-3.76.27-7.97-.79-11.73-1.75-3.74-1.05-7.93-2.03-11.31-3.56h0Z"/>
    <path class="cls-39" d="M214.72,285.44c2.45-.02,4.71-1.08,7.16-.67,0,0,.02.1.02.1-1.04.8-2.28.98-3.54.93-1.23.03-2.45-.06-3.65-.25v-.1h0Z"/>
    <path class="cls-38" d="M218.6,269.79c3.07.12,5.72-1.23,8.71-1.57,0,0,.04.09.04.09-1.13,1.13-2.67,1.6-4.22,1.71-1.52.18-3.06.14-4.55-.13v-.1h0Z"/>
    <path class="cls-31" d="M25.1,289c11.99,1.29,24.17,3.1,35.37,7.77,0,0-.03.1-.03.1-5.9-1.36-11.69-2.96-17.56-4.42-5.8-1.47-12.08-2.35-17.78-3.45h0Z"/>
    <path class="cls-39" d="M51.61,283.09c8.22-1.6,13.57,6.53,20.18,9.84,6.72,3.68,14.17,5.71,21.81,6.28,0,0,0,.1,0,.1-9.73.67-19.43-2.97-26.99-9-4.37-3.64-9.01-8.04-15-7.23h0Z"/>
    <path class="cls-39" d="M118.04,283.49c10.89-1.57,17.1,9.75,25.27,14.78,0,0-.04.09-.04.09-4.83-1.73-8.29-5.78-11.91-9.18-3.59-3.38-8.41-6.09-13.32-5.69h0Z"/>
    <path class="cls-31" d="M103.58,291.18c1.92,1.01,3.83,2.04,5.72,3.1,1.39.72,4.63,2.52,5.3,3.78-2.12-.66-3.95-1.81-5.72-3.1-1.8-1.21-3.58-2.44-5.35-3.69l.05-.09h0Z"/>
    <path class="cls-30" d="M20.46,273.63c2.87-.51,5.92.85,7.61,3.22.77.9.73,2.67-.79,2.67-1.02,0-1.54-.99-2.32-1.33,0,0,.01-.1.01-.1.62-.06,1.19.32,1.64.48,1.01.33,1.17-.27.62-1.18-1.31-2.36-4.08-3.77-6.77-3.65,0,0-.01-.1-.01-.1h0Z"/>
    <path class="cls-39" d="M227.34,274.8c7.55,1.05,14.82-1.33,21.57-4.5,0,0,.05.08.05.08-2.89,2.5-6.58,3.97-10.34,4.57-3.65.6-7.9.84-11.29-.16h0Z"/>
    <path class="cls-31" d="M227.25,289.73c7.59-.54,14.62-3.26,21.74-5.7,0,0,.04.09.04.09-3.16,2.16-6.79,3.49-10.51,4.29-3.63.78-7.74,1.57-11.27,1.32h0Z"/>
    <path class="cls-38" d="M228.49,263.82c7.1-2.65,13.3-7.03,19.28-11.6,0,0,.03.04.03.04-5.36,5.26-12.29,9.25-19.31,11.56h0Z"/>
    <path class="cls-38" d="M3.49,275.57c5.51,4.36,12.17,6.8,18.98,8.23,0,0,0,.05,0,.05-6.95-.5-13.82-3.82-18.97-8.28h0Z"/>
    <path class="cls-39" d="M5,288.2c4.1,2.73,8.8,4.82,13.12,7.15-4.66-1.33-9.26-4.31-13.12-7.15h0Z"/>
    <path class="cls-31" d="M46.76,232.59c-2.18,6.04-2.71,12.43-2.79,18.8-1-6.16.45-13.1,2.79-18.8h0Z"/>
    <path class="cls-38" d="M62.52,222.04c-1.78,4.97-2.51,10.4-3.32,15.6-.26-5.19,1.37-10.85,3.32-15.6h0Z"/>
    <path d="M75.35,241.3c-.84-10-.2-20.71,4.58-29.73,0,0,.06.03.06.03-3.61,9.44-5.12,19.74-4.64,29.71h0Z"/>
    <path class="cls-31" d="M31.65,229.16c-6.95,10.41-9.95,22.71-11.06,35.03,0,0-.1,0-.1,0-.47-6.25.58-12.56,2.63-18.46,2.01-5.82,4.8-11.91,8.54-16.57h0Z"/>
    <path class="cls-39" d="M72.59,216.98c-4.94,12.98-6.13,27.08-4.67,40.83,0,0-.05,0-.05,0-2.39-13.62-.43-28.16,4.72-40.84h0Z"/>
    <path class="cls-39" d="M55.9,211.55c-4.94,12.98-6.13,27.08-4.67,40.83,0,0-.05,0-.05,0-2.39-13.62-.43-28.16,4.72-40.84h0Z"/>
    <path class="cls-38" d="M82.51,227.73c-.21,5.05,1.28,9.9,3.16,14.52-2.81-4-3.64-9.76-3.16-14.52h0Z"/>
    <path class="cls-38" d="M105.48,234.72c-.21,5.05,1.28,9.9,3.16,14.52-2.81-4-3.64-9.76-3.16-14.52h0Z"/>
    <path class="cls-36" d="M89.77,222.26c-1.21,12.1,2.13,24.26,8.3,34.63,0,0-.04.03-.04.03-6.98-9.88-9.77-22.82-8.26-34.66h0Z"/>
    <path class="cls-39" d="M83.46,255.44c-2.01-3.11-3.81-7.06-3.36-10.77.62,3.73,1.55,7.52,3.36,10.77h0Z"/>
    <path class="cls-39" d="M121.45,257.4c-2.01-3.11-3.81-7.06-3.36-10.77.62,3.73,1.55,7.52,3.36,10.77h0Z"/>
    <path class="cls-39" d="M32.57,259.54c-1.07-3.55-1.71-7.84-.24-11.28-.44,3.75-.6,7.65.24,11.28h0Z"/>
  </g>
  <g id="bil">
    <g>
      <g>
        <path class="cls-34" d="M103.77,283.72c.15-.04.3-.1.46-.12.69-.08,1.36.08,1.93.42.28.06.56.13.84.22.17-.02.34-.02.52-.01.44.06.89.12,1.33.18.35.09.69.21,1.03.37-.26-1.93-.52-3.85-.78-5.78h-5.99c-.75-.68-5.4-4.73-12.24-4.09-6.34.59-10.04,4.78-10.77,5.64-1.88.29-3.76.58-5.65.86v2.79c2.63.91,4.35,1.47,7.36,1.51.29,0,.57.04.85.1.36-.07.72-.1,1.1-.07,3.42.34,7.08-.5,10.55-.6.34-.18.71-.32,1.1-.39,2.76-.51,5.58-1.13,8.36-1.01Z"/>
        <path d="M103.72,283.35c.85-.29,1.86-.12,2.63.34,0,0-.11-.04-.11-.04l.87.22s-.14-.01-.14-.01c0,0,.58-.02.58-.02,0,0,.03,0,.03,0l1.33.17h.03s.01,0,.01,0l1.1.39-.55.41-.8-5.77.41.36s-5.99,0-5.99,0h-.16c-6.99-6.2-16.65-5.27-22.8,1.51,0,0-5.65.86-5.65.86l.32-.37v2.79s-.26-.35-.26-.35c1.29.5,2.54,1.18,3.95,1.32,1.44.2,2.72.04,4.21.26,0,0-.15,0-.15,0,1-.21,1.99.04,2.99-.01,2.92-.04,5.77-.57,8.72-.66,0,0-.17.04-.17.04.38-.2.81-.34,1.25-.38.82-.05,2.74-.43,3.57-.56,1.56-.27,3.2-.69,4.78-.51h0ZM103.81,284.1c-1.12,0-2.49.07-3.61.08-1.99.21-4.05.53-5.89,1.33-2.89.1-5.81.71-8.74.71-.99.02-2.03-.18-2.98-.03-2.82-.1-5.56-.92-8.27-1.63,0,0-.25-.1-.25-.1v-.25c-.02-.19.01-3,0-3.11,0,0,.32-.05.32-.05l5.65-.87-.23.13c2.86-3.33,7.04-5.54,11.44-5.81,4.4-.32,8.84,1.3,12.14,4.2,0,0-.27-.11-.27-.11h5.99s.36,0,.36,0c0,0,.05.36.05.36l.76,5.78.08.64c-.36-.13-1.23-.44-1.6-.58,0,0,.04,0,.04,0l-1.33-.18h.04s-.47.01-.47.01c-.04,0-.1,0-.14-.01,0,0-.81-.21-.81-.21l-.07-.02c-.66-.41-1.45-.54-2.2-.28h0Z"/>
      </g>
      <path class="cls-24" d="M101.12,280.04l-6.46.38-.38-3.76c.74-.01,2.18.06,3.77.83,1.66.8,2.63,1.95,3.07,2.55Z"/>
      <path class="cls-24" d="M93.22,280.53c-1.43.03-2.87.05-4.3.08v-3.82c1.36-.04,2.72-.09,4.08-.13.07,1.29.15,2.58.22,3.87Z"/>
      <path class="cls-24" d="M87.69,280.76s-.02-1.3-.02-1.3c0,0-.04-2.48-.04-2.49-.59.13-1.53.41-2.49,1.09-1.34.95-1.99,2.14-2.26,2.73,1.04.01,2.1.02,3.18,0,.55,0,1.09-.02,1.63-.04Z"/>
      <ellipse class="cls-27" cx="108.37" cy="280.25" rx=".72" ry="1.09"/>
      <ellipse class="cls-23" cx="95.35" cy="281.84" rx=".52" ry=".25"/>
      <line class="cls-23" x1="93.59" y1="275.24" x2="94.3" y2="285.13"/>
      <path class="cls-26" d="M75.58,283.27c-.6,0-1.09-.32-1.09-.72,0-.4.49-.72,1.09-.72s1.09.32,1.09.72c0,.4-.49.72-1.09.72Z"/>
      <line class="cls-8" x1="90.28" y1="277.41" x2="89.63" y2="278.07"/>
      <line class="cls-8" x1="90.08" y1="277.43" x2="89.83" y2="277.68"/>
      <line class="cls-8" x1="90.08" y1="277.94" x2="89.83" y2="278.19"/>
      <line class="cls-8" x1="92.49" y1="279" x2="91.83" y2="279.65"/>
      <line class="cls-8" x1="92.28" y1="279.02" x2="92.04" y2="279.26"/>
      <line class="cls-8" x1="92.28" y1="279.53" x2="92.04" y2="279.78"/>
    </g>
    <path class="cls-35" d="M62.55,280.89c2.16-.1,4.34.14,6.44.72,2.13.51,3.95,1.74,5.97,2.51,4.05,1.46,8.45,1.59,12.72,1.26,4.33-.29,8.52-1.18,12.82-1.82,4.3-.68,9,.38,12.71,2.33,2.14.84,4.62,1.53,6.57,2.5-2.25-.65-4.49-1.32-6.73-2.02-3.9-1.78-8.22-2.69-12.45-2.07-3.8.57-9.09,1.43-12.87,1.62-4.31.26-8.78.07-12.87-1.49-2-.8-3.8-2.07-5.91-2.63-2.02-.69-4.4-.76-6.38-.92h0Z"/>
  </g>
  <g id="fugle">
    <path d="M179.32,230.35c.49-1.14,1.25-2.3,2.52-2.69,1.35-.49,3.13.56,2.93,2.17,0,0-.75-.26-.75-.26.59-1.22,1.86-2.31,3.31-2.13,1.43.06,2.69,1.78,1.86,3.05,0,0-.09-.04-.09-.04.12-2.67-3.35-2.49-4.38-.5,0,0-1.4,2.31-1.4,2.31l.66-2.57c.21-1.02-1.02-1.84-2.01-1.54-1.17.22-1.99,1.24-2.56,2.25,0,0-.09-.04-.09-.04h0Z"/>
    <path d="M39.49,130.28c.53-3.96,5.46-5.91,8.67-3.48,0,0-.66.15-.66.15,1.24-2.64,4.88-2.01,6.43-.07.54.57.98,1.19,1.37,1.84l-.08.07c-.59-.48-1.15-.98-1.73-1.41-1.63-1.33-4.55-1.92-5.48.44,0,0-.39-.34-.39-.34-2.69-2.37-7.31-.73-8.04,2.81,0,0-.1-.02-.1-.02h0Z"/>
    <path d="M155.58,99.07c.73-2.57,3.01-6,6.12-4.6.9.46,1.66,1.46,1.51,2.63l-.8-.16c.42-1.94,2.22-3.49,4.23-3.48,2.01.01,3.8,1.56,4.06,3.37l-.1.03c-1.54-3.29-6.31-3.15-7.41.28,0,0-.8-.16-.8-.16.27-1.71-1.96-2.76-3.42-1.96-1.7.7-2.6,2.49-3.31,4.1,0,0-.09-.04-.09-.04h0Z"/>
    <path d="M153.56,218.96c.63-1.36,1.68-2.67,3.21-3.07,1.6-.49,3.58.52,3.76,2.32,0,0-.78-.17-.78-.17,1.55-3.28,6.53-2.36,6.51,1.28,0,0-.1.01-.1.01-.82-2.58-4.25-3.16-5.67-.9,0,0-.79,1.32-.79,1.32v-1.49c-.02-1.32-1.55-2.18-2.82-1.87-1.43.24-2.52,1.4-3.23,2.62,0,0-.09-.05-.09-.05h0Z"/>
  </g>
  <g id="huse">
    <g>
      <g>
        <path class="cls-18" d="M125.66,261.6c1.3-.75,2.08-2.12,1.97-3.48-.15-1.8-1.84-3.35-3.97-3.35,1.1-.6,1.58-1.9,1.19-2.99-.45-1.22-1.91-1.91-3.25-1.4-.02-.28-.14-1.68-1.34-2.74-1.04-.92-2.23-.98-2.55-.99l-1.29,13.17"/>
        <g>
          <path class="cls-11" d="M69.49,259.36c-.07-4.5-.14-9-.21-13.5-3.01.74-5.75,1.71-8.76,2.45-.16,3.94-.32,7.87-.48,11.81"/>
          <path class="cls-14" d="M67.08,239.49c2.94-.29,5.87-.57,8.81-.86,1.23.91,2.48,1.86,3.75,2.86,1.25.98,2.46,1.96,3.63,2.93-4.59.47-9.08.74-13.68,1.22-.44-.85-.89-1.73-1.33-2.65-.5-1.04-.95-2.06-1.37-3.05-1.03,1.21-2.08,2.48-3.13,3.83-1.18,1.51-2.28,2.99-3.3,4.43l8.82-2.33-8.76,2.45"/>
          <g>
            <path class="cls-33" d="M83.65,258.31c0-2.16-.03-4.37-.09-6.61-.05-2.31-.13-4.58-.24-6.81l-14.05,1c.07,4.56.14,9.13.21,13.69l14.16-1.27Z"/>
            <path d="M83.37,258.05c-.24-3.64-.44-9.45-.64-13.14,0,0,.64.57.64.57-4.68.34-9.37.66-14.05.95l.51-.56s.16,13.69.16,13.69l-.52-.24c4.67-.39,9.33-.84,13.9-1.28h0ZM83.93,258.56c-5.04.42-9.98.84-14.93,1.32,0,0,0-.29,0-.29l-.26-13.69s0-.52,0-.52c0,0,.52-.04.52-.04,4.89-.39,9.78-.75,14.67-1.09.1,4.27.26,10.14.01,14.32h0Z"/>
          </g>
          <path class="cls-2" d="M99.36,238.05c8.33.23,11.9.3,12.16.28,0,0,.06,0,.13,0,.16,0,.42.01.71.13.29.12.52.34.74.56,2.09,2.15,3.68,4.79,4.6,7.64-6.2-.77-12.4-1.54-18.6-2.31"/>
          <g>
            <path class="cls-32" d="M96.14,236.19c-2.09.22-3.79.36-4.95.44-.96.07-1.55.1-4.46.28-1.28.08-2.33.15-3.01.19.06,6.98.12,13.96.17,20.94l14.97.03c.37-6.26.57-12.67.6-19.22,0-.97,0-1.93,0-2.89-1.11.08-2.21.15-3.32.23Z"/>
            <path d="M96.16,236.38c-3.58.41-8.76.86-12.41,1.13,0,0,.38-.41.38-.41.09,3.49.14,6.98.17,10.47.04,3.49-.47,6.99-.11,10.47,0,0-.3-.3-.3-.3,4.99.34,9.98.08,14.97-.12,0,0-.45.43-.45.43.46-7.23,1-14.83.92-22.09,0,0,.14.13.14.13,0,0-3.31.29-3.31.29h0ZM96.12,236.01l3.33-.17h.14s0,.13,0,.13c-.03,7.27.12,14.88-.28,22.14,0,0-.02.45-.02.45-2.64-.15-5.28-.22-7.92-.32-2.61-.14-5.21.01-7.82.13,0,0,.04-.31.04-.31.3-3.49-.26-6.98-.28-10.47-.03-3.62-.04-7.24,0-10.87,3.82-.14,9.04-.41,12.81-.7h0Z"/>
          </g>
          <polyline class="cls-10" points="87.56 257.92 87.68 249.99 91.46 249.89 94.67 249.81 94.47 257.68 94.47 258.12"/>
          <line class="cls-8" x1="91.12" y1="258.09" x2="91.12" y2="249.9"/>
          <path class="cls-25" d="M73.49,254.62c2.01-.16,4.02-.32,6.03-.48v-4.99c-2.01.14-4.02.27-6.03.41v5.07Z"/>
          <line class="cls-8" x1="75.37" y1="250.33" x2="74.72" y2="250.97"/>
          <line class="cls-8" x1="76.19" y1="250.15" x2="74.31" y2="252.03"/>
          <line class="cls-8" x1="75.25" y1="251.9" x2="74.6" y2="252.56"/>
          <g>
            <line class="cls-25" x1="90.36" y1="239.32" x2="89.71" y2="239.97"/>
            <line class="cls-25" x1="91.18" y1="239.14" x2="89.3" y2="241.03"/>
            <line class="cls-25" x1="90.24" y1="240.89" x2="89.59" y2="241.55"/>
            <polygon class="cls-25" points="88.48 243.62 93.94 243.5 94.05 238.41 88.48 238.54 88.48 243.62"/>
          </g>
          <line class="cls-8" x1="90.16" y1="239.32" x2="89.51" y2="239.97"/>
          <line class="cls-8" x1="90.98" y1="239.14" x2="89.1" y2="241.03"/>
          <line class="cls-8" x1="90.04" y1="240.89" x2="89.39" y2="241.55"/>
          <path class="cls-16" d="M88.27,250.84v2.31h2.37v-2.33c-.79,0-1.58.02-2.37.02Z"/>
          <path class="cls-16" d="M91.68,250.86v2.31h2.37v-2.33c-.79,0-1.58.02-2.37.02Z"/>
          <path class="cls-16" d="M88.27,253.83v3.63h2.37v-3.66c-.79.01-1.58.03-2.37.04Z"/>
          <path class="cls-16" d="M91.68,253.83v3.63h2.37v-3.66c-.79.01-1.58.03-2.37.04Z"/>
          <line class="cls-13" x1="89.46" y1="253.15" x2="89.46" y2="250.85"/>
          <line class="cls-13" x1="88.27" y1="251.91" x2="90.64" y2="251.91"/>
          <line class="cls-13" x1="92.87" y1="253.17" x2="92.87" y2="250.87"/>
          <line class="cls-13" x1="91.68" y1="251.93" x2="94.05" y2="251.93"/>
          <line class="cls-13" x1="89.46" y1="257.45" x2="89.46" y2="253.85"/>
          <line class="cls-13" x1="88.27" y1="255.51" x2="90.64" y2="255.52"/>
          <line class="cls-13" x1="92.87" y1="257.45" x2="92.87" y2="253.85"/>
          <line class="cls-13" x1="91.68" y1="255.51" x2="94.05" y2="255.52"/>
          <path class="cls-14" d="M100.32,236.01c-1.14-1.83-2.29-3.65-3.43-5.48-5.16-.25-10.33-.51-15.49-.76-2.51,2.88-5.03,5.76-7.54,8.64,3.36-.45,26.46-2.4,26.46-2.4Z"/>
          <line class="cls-22" x1="83.93" y1="237.06" x2="81.4" y2="229.77"/>
          <polygon class="cls-9" points="83.72 244.36 83.72 237.72 76.19 238.05 83.72 244.36"/>
          <g>
            <path class="cls-4" d="M97.37,232.34c-.84,1.65-2.15,1.34-2.48-.46-.02,1.89-2.07,2.12-2.04.08-.08,1.88-2.09,1.94-2.11,0-.02.65-.27,1.08-.59,1.29-.32.21-.71.18-.99.03-.41-.23-.67-.75-.67-1.32,0,.04-.05.85-.67,1.22-.55.33-1.08,0-1.12-.02-.32-.21-.57-.61-.64-1.2-.56,1.63-2.48,1.76-2.61-.24-.05.16-.11.28-.17.37-.23.35-.46.6-.64.74"/>
            <path class="cls-4" d="M98.63,233.96c-.84,1.65-2.15,1.34-2.48-.46-.02,1.89-2.07,2.12-2.04.08-.08,1.88-2.09,1.94-2.11,0-.02.7-.31,1.15-.67,1.34-.34.18-.69.07-.77.04-.43-.16-.74-.63-.81-1.21,0,.05-.17.87-.82,1.12-.43.17-.81-.02-.87-.05-.36-.19-.64-.61-.72-1.25-.59,1.07-1.56,1.38-2.11.98-.42-.3-.51-.96-.52-1.14-.06.16-.16.38-.34.59-.42.47-.94.49-1.08.49"/>
            <path class="cls-4" d="M99.51,235.49c-.86,1.64-2.17,1.31-2.48-.5-.04,1.88-2.1,2.09-2.04.05-.1,1.88-2.11,1.91-2.11-.03-.08,1.93-2.16,1.91-2.22-.03-.25,1.82-2.24,1.81-2.44-.03-.43,1.7-2.25,1.72-2.59-.04-.58,1.63-2.4,1.24-2.56-.46"/>
            <path class="cls-4" d="M93.63,231.04c-.58,1.42-1.92,1.1-1.98-.46-.14,1.79-1.98,1.84-2.11,0-.13,1.85-2.08,1.85-2.22,0-.3,1.77-2.12,1.74-2.45,0-.57,1.61-2.53,1.64-2.61-.32.11.75-.29.81-.48,1.34"/>
            <path class="cls-4" d="M96.17,230.96c-.68,1.35-1.96,1.62-2.33-.09"/>
          </g>
          <path class="cls-23" d="M79.78,231.28l1.8-.67.27.67-2.45.69-.52.67,3.24-.86.2.5-4,1.06-.36.55c.89-.22,1.8-.44,2.73-.64.62-.13,1.23-.26,1.83-.37.06.17.13.35.19.52l-5.22,1.09-.35.44,5.69-1.07.2.43-6.25,1.14-.33.51,6.76-1.19.18.46-7.46,1.27-.24.34,7.85-1.11.26.53-8.3,1.05-.34.51c2.9-.33,5.8-.67,8.71-1"/>
          <g>
            <path class="cls-4" d="M67.4,240.12c.43.82,1.39,1.15,2.13.83.59-.26.97-.91.93-1.62.07.82.82,1.31,1.39,1.16.54-.13.96-.85.72-1.58.76,1.06,1.16,1.24,1.39,1.16.47-.16.43-1.57.61-1.56.09,0,.06.35.33.69.05.06.44.55.94.47.27-.04.44-.23.52-.32"/>
            <path class="cls-4" d="M78.81,241.56c-.8.4-1.33.09-1.55-.81.16,1.52-1.57,1.91-2,.4.18,1.58-1.62,1.91-2.1.42,0,1.52-1.73,1.87-2.31.46-.26,1.22-1.43,1.78-2.32.79"/>
            <path class="cls-4" d="M80.36,242.51c-.73.75-1.51.4-1.75-.59.16,1.52-1.57,1.91-2,.4.18,1.58-1.62,1.91-2.1.42,0,1.52-1.73,1.87-2.31.46-.28,1.49-2.16,1.81-2.56.2-.06.54-.29.58-.43,1.07"/>
            <path class="cls-4" d="M81.44,243.81c-.8.39-1.34.07-1.54-.83.14,1.52-1.6,1.89-2.01.37.16,1.58-1.64,1.89-2.11.39-.02,1.52-1.75,1.84-2.32.43-.17,1.44-1.81,1.79-2.46.45-.23.89-.86,1.25-1.76,1.04"/>
            <path class="cls-4" d="M77.5,240.49c-.8.4-1.33.09-1.55-.81.16,1.52-1.57,1.91-2,.4.18,1.58-1.62,1.91-2.1.42,0,1.52-1.73,1.87-2.31.46-.34.49-.68.98-1.02,1.47"/>
          </g>
          <g>
            <path class="cls-4" d="M99.69,238.7c.26,1.58,2.14,1.47,2.5,0,.15,1.64,2.18,1.61,2.36,0,.02,1.72,2.12,1.73,2.15,0-.03,1.72,2.02,1.69,2.04,0-.07,1.72,1.95,1.71,1.96,0,0-.05,0-.07.02-.07.1-.03.35,1.22.91,1.39.27.08.72-.06,1.49-1"/>
            <path class="cls-4" d="M115.32,241.74c-.81,1.4-2.08,1.14-2.4-.39-.02,1.6-2,1.8-1.97.07-.07,1.59-2.02,1.64-2.04,0-.06,1.64-2.07,1.65-2.15,0-.23,1.55-2.14,1.56-2.36,0-.54,1.38-2.39,1.49-2.52-.2-.4,1.04-1.47,1.42-2.43.85"/>
            <path class="cls-4" d="M116.41,243.15c-.81,1.4-2.08,1.14-2.4-.39-.02,1.6-2,1.8-1.97.07-.07,1.59-2.02,1.64-2.04,0-.06,1.64-2.07,1.65-2.15,0-.23,1.55-2.14,1.56-2.36,0-.56,1.49-2.49,1.4-2.55-.31-.34,1.46-2.2,1.37-2.3-.17-.12.83-.61,1.15-1.38.86"/>
            <path class="cls-4" d="M117.47,244.5c-.78.93-1.23,1.07-1.5.98-.56-.18-.79-1.43-.89-1.4-.01,0-.02.02-.02.07-.02,1.71-2.05,1.69-1.95-.02-.04,1.69-2.09,1.69-2.04-.03-.05,1.73-2.15,1.7-2.15-.03-.2,1.6-2.23,1.61-2.36-.03-.38,1.47-2.27,1.55-2.5-.03-.18.56-.68.94-1.21.93-.65,0-1.25-.58-1.27-1.33-.14.55-.63.92-1.17.9-.47-.02-.9-.34-1.06-.81"/>
            <path class="cls-4" d="M114.24,240.43c-.81,1.4-2.08,1.14-2.4-.39-.02,1.6-2,1.8-1.97.07-.07,1.59-2.02,1.64-2.04,0-.06,1.64-2.07,1.65-2.15,0-.23,1.55-2.14,1.56-2.36,0-.55,1.46-2.46,1.43-2.52-.27.07.92-.32,1.38-1.19,1.15"/>
          </g>
          <polygon class="cls-6" points="66.87 239.68 60.46 248.19 69.59 245.63 66.87 239.68"/>
          <path class="cls-23" d="M65.57,241.07c.61-.21,1.22-.42,1.83-.63.07.15.13.29.2.44-.97.36-1.95.72-2.92,1.08l-.5.67,3.55-1.28.29.4-4.38,1.58-.34.54c.98-.34,1.98-.67,3-1,.68-.22,1.35-.42,2.01-.62.05.17.11.35.16.52l-5.63,1.7-.34.45c2.02-.6,4.05-1.2,6.07-1.8.05.13.1.25.15.38-2.19.64-4.38,1.28-6.57,1.92l-.31.5c2.4-.69,4.81-1.38,7.21-2.07.04.14.08.28.12.42-2.61.74-5.23,1.48-7.84,2.21l-.23.34c2.73-.71,5.47-1.41,8.2-2.12.04.16.09.31.13.47-2.83.7-5.66,1.39-8.49,2.09l-.32.5c2.98-.71,5.97-1.41,8.95-2.12"/>
          <polygon class="cls-28" points="117.27 246.66 115.86 259.84 98.87 258.18 99.46 244.56 117.27 246.66"/>
          <path class="cls-25" d="M100.32,258.12l.34-8.84h3.56c-.19,3.02-.39,6.05-.58,9.07l2.24.34c.19-3.05.38-6.1.56-9.15l3.44.19-.5,9.34-9.07-.96Z"/>
          <line class="cls-8" x1="101.91" y1="251.33" x2="101.26" y2="251.97"/>
          <line class="cls-8" x1="102.72" y1="251.15" x2="100.84" y2="253.03"/>
          <line class="cls-8" x1="101.79" y1="252.9" x2="101.13" y2="253.56"/>
          <line class="cls-8" x1="108.25" y1="253.89" x2="107.6" y2="254.54"/>
          <line class="cls-8" x1="109.07" y1="253.72" x2="107.19" y2="255.6"/>
        </g>
      </g>
      <path class="cls-8" d="M116.79,252.92c.36-.51,1.14-.65,1.65-.3s.68,1.12.34,1.64c.64-.24,1.44.06,1.75.67s.09,1.44-.48,1.81"/>
      <path class="cls-8" d="M117.48,258.17c.35-.2.83-.16,1.14.09s.45.71.33,1.1"/>
    </g>
    <line class="cls-8" x1="103.05" y1="256.65" x2="102.4" y2="257.3"/>
  </g>
  <g id="træer">
    <path class="cls-8" d="M24.96,255.6c.13-.72.89-1.25,1.61-1.14.54-.88,1.53-1.47,2.56-1.54"/>
    <g>
      <g>
        <path class="cls-31" d="M51.18,261.27c1.29-4.69,2.47-9.95,3.34-15.72.57-3.74.94-7.3,1.18-10.65-2.23-1.37-4.47-2.73-6.7-4.1,1.03.59,2.23.53,3.01-.12.62-.52.76-1.25.8-1.5,1.29,1.23,2.59,2.47,3.88,3.7l-1.77-5.61c.08,1.25.98,1.98,1.61,1.87.44-.07.8-.54.97-1.11.29,1.61.59,3.23.88,4.84l3.17-5.89c0,.54.35.99.78,1.07.53.11,1.17-.36,1.2-1.07-.61,1.96-1.22,3.93-1.83,5.89,1.79-1.73,3.57-3.46,5.36-5.19-.83.56-.9,1.66-.4,2.18.45.47,1.39.5,2.03-.11-2.64,2.02-5.28,4.03-7.91,6.05-.49,3.81-1.07,7.73-1.74,11.76-.72,4.34-1.51,8.52-2.35,12.55-1.84.38-3.67.76-5.51,1.15Z"/>
        <path d="M50.82,261.6c-.08-.59.16-1.48.35-2.07,2.25-8.03,3.71-16.33,4.03-24.67,0,0,.24.46.24.46-2.08-1.61-4.26-3.06-6.48-4.47,0,0,.07-.11.07-.11,1.83,1.03,3.74-.03,3.47-2.17,0,0,.52.38.52.38,1.45,1.07,2.75,2.3,4.01,3.57l-.81.5c-.51-1.88-1.04-3.83-1.29-5.76.09.86,1.01,2.17,1.87,1.49.42-.38.52-1.31.67-1.84.5,1.94,1.4,3.87,1.1,5.92,0,0-.35-.06-.35-.06l3.11-5.92s.6-1.15.61-1.16c0,.68-.44,2.05.59,2.16.42,0,.84-.41.87-.88,0-.02.29.05.29.05,0,0-1.45,6-1.45,6,0,0,0,0,0,0l-.91-.56s5.65-4.88,5.65-4.88c0,0,.17.2.17.2-1.05.61-.91,2.44.49,2.39.39,0,.78-.16,1.07-.43,0,0-7.56,6.49-7.56,6.49-.02.03.21-.38.21-.37-.93,5.88-2.01,12.37-3.02,18.27-.17.93-.66,3.63-.84,4.55,0,0-.15.76-.15.76-.07.25-.04.52-.25.74,0,0-.19.28-.2.29-1.97.46-4.07.83-6.06,1.12h0ZM51.53,260.93c1.72-.47,3.33-.88,5.07-1.2l-.31.31c-.13-.33.18-1.16.22-1.53,1.61-7.51,2.96-15.13,3.7-22.77,0,0,.02-.24.02-.24,0,0,.2-.14.2-.14,0,0,8.25-5.59,8.25-5.59-.55.58-1.62.73-2.17.05-.52-.7-.24-1.75.46-2.23l1-.69s-.84.89-.84.9c-1.26,1.37-5.61,6.07-6.78,7.34,0,0,.81-2.42.81-2.43,0,0,2.22-5.77,2.22-5.77l.41-1.06-.11,1.11c-.08,1.67-2.32,1.71-2.39,0,0,0,.51.12.5.13,0,0-3.24,5.85-3.24,5.85l-.15.28c-1.04-1.54-.99-3.39-1.18-5.16,0,0,.56.03.56.03-.21.77-1.11,1.6-1.9,1.07-.71-.42-.99-1.23-.97-1.95.88,1.79,1.58,3.63,2.24,5.49,0,0,.63,1.8.63,1.8-1.78-1.61-3.68-3.26-5.19-5.14,0,0,.52-.18.52-.18-.39,1.85-2.61,2.59-4.15,1.63,0,0,.07-.11.07-.11,2.35,1.37,4.73,2.71,7.2,3.85-.86,8.45-2.16,16.91-4.17,25.17,0,0-.19.78-.19.78-.03.14-.16.2-.33.38h0Z"/>
      </g>
      <path class="cls-21" d="M52.38,228.23c.12,1.32-.63,2.53-1.78,2.96-.99.36-2.1.07-2.83-.63-.73-.7-1.04-1.82-.76-2.8-1.07-.98-1.69-2.42-1.69-3.87,0-.61.12-1.25.47-1.75.42-.6,1.13-.95,1.85-1.08.72-.12,1.46-.04,2.19.08-.23-1.45-.42-3.08.47-4.24.49-.65,1.26-1.05,2.05-1.25.79-.2,1.62-.22,2.43-.24.54-.01,1.09-.03,1.61.11.52.14,1.03.44,1.28.92-.41-.76-.22-1.98.43-2.55.65-.57,1.54-.78,2.39-.86,1.12-.11,2.3-.02,3.31.48s1.86,1.42,2.05,2.54c2.57-1.19,5.89-.43,7.69,1.75.46.56.83,1.21.95,1.93.12.72-.04,1.5-.53,2.04,1.63-.32,3.23.99,3.82,2.54.88,2.31-.11,5.18-2.23,6.45-2.12,1.27-5.12.8-6.74-1.06-1.06.27-2.16-.47-2.67-1.44-.51-.97-.56-2.1-.6-3.19-.35,1.29-1.46,2.22-2.78,2.35-1.35.13-2.64-.62-3.21-1.86-.06.23-.71,2.32-2.9,3.15-2.21.84-4.09-.33-4.28-.46Z"/>
      <path class="cls-20" d="M54.92,242.7c-.49-.33-1.44.26-1.57.34-.64.4-.95.97-1.07,1.23-.29-.09-2.34-.66-4.28.61-2.17,1.42-2.29,3.91-2.3,4.14-.17.06-.65.23-1.23.6-.66.43-1.44,1.11-1.98,2.18-.99,1.96-.48,3.79-.37,4.17-.31.06-1.87.39-2.57,1.71-.99,1.86.38,4.44,2.01,5.1.96.39,1.43-.13,4.28-.7,3.53-.71,3.84-.12,4.83-.82,1.17-.84,1.57-2.78,2.32-6.62.6-3.09.27-2.82.77-4.58.29-1,.86-2.71,1.29-5.13.2-1.13.29-1.96-.13-2.24Z"/>
      <path class="cls-7" d="M21.05,264.92c-.81-.88-.94-2.54-.42-3.81.34-.83.89-1.35,1.21-1.61-1.2-1.56-1.05-3.37-.16-4.08.7-.55,1.74-.31,1.98-.25-.05-.15-.82-2.41.61-4.22,1.18-1.5,3.34-2.04,5.28-1.25.02-.21.19-2.05,1.74-3.01,1.43-.87,3.41-.63,4.79.68.1-.64.58-3.21,2.21-3.8,2.77-1,6.98,4.39,6.18,6.06-.08.17-.14.14-.84.95-.79.91-1.19,1.37-1.4,1.82-.13.27-.56,1.22-.4,2.36.11.79.39.85.28,1.22-.25.87-1.83.61-2.57,1.71-.39.57-.35,1.22-.34,1.56.1,1.97,2.09,2.74,1.87,3.52-.23.82-2.56.5-6.06.87-2.71.28-2.6.61-7.23,1.34-5.29.83-6.19.53-6.73-.06Z"/>
      <path class="cls-8" d="M23.08,263.14c-.5-.52-.72-1.29-.58-2s.66-1.33,1.33-1.6c-.12-.72.05-1.48.46-2.08s1.06-1.03,1.78-1.18"/>
      <path class="cls-8" d="M35.18,259.25c-.24-.5-.21-1.13.08-1.6s.84-.78,1.4-.78"/>
      <path class="cls-8" d="M46.92,257.59c-.1-.47-.21-.96-.08-1.42s.58-.87,1.05-.78c-.18-.5.11-1.06.53-1.38s.96-.44,1.47-.55"/>
      <path class="cls-8" d="M47.9,251.23c-.19-.25-.19-.63,0-.88s.55-.36.85-.25c0-.37.19-.73.49-.95s.7-.29,1.06-.19"/>
      <path class="cls-39" d="M57.22,237.03c-.92,4.96-1.95,12.07-3.14,16.86.7-4.9,2.15-11.99,3.14-16.86h0Z"/>
      <path class="cls-39" d="M58.43,237.99c.78,7.04-1.08,14.2-3.39,20.75,1.82-6.68,4.06-13.8,3.39-20.75h0Z"/>
      <path class="cls-39" d="M57.18,243.68c-.58,5.65-1.64,11.45-3.85,16.66,1.74-5.43,3.15-11.05,3.85-16.66h0Z"/>
      <path class="cls-39" d="M59.62,239.43c-.35-3.15-.85-6.95,1.23-9.6-1.61,2.94-1.44,6.41-1.23,9.6h0Z"/>
      <path class="cls-39" d="M58.27,236.21c-.21-1.25-.81-3.02-.71-4.26.25.68.38,1.39.46,2.11-.02,0,.33,2.19.26,2.14h0Z"/>
      <path class="cls-39" d="M57.8,236.24c-.85-1.87-2.39-3.28-3.81-4.65,1.78.96,3.13,2.83,3.81,4.65h0Z"/>
      <path class="cls-39" d="M53.9,232.71c-.5-.3-1.23-.44-1.51-.98.6.12,1.1.61,1.51.98h0Z"/>
      <path class="cls-39" d="M65.97,230.4c-.93.58-1.55,1.54-2.39,2.16.45-.99,1.48-1.73,2.39-2.16h0Z"/>
      <path class="cls-39" d="M57.91,237.19c.07,2,.13,4.21-.61,6.07.24-2.02.57-4.08.61-6.07h0Z"/>
      <path class="cls-39" d="M55.95,247.91c-.68,4.18-1.58,8.52-3.4,12.32,1.34-4.04,2.62-8.18,3.4-12.32h0Z"/>
      <path class="cls-8" d="M53.12,221.94c-.19-.25-.19-.63,0-.88s.55-.36.85-.25c0-.37.19-.73.49-.95s.7-.29,1.06-.19"/>
      <path class="cls-8" d="M66.36,221.47c-.03-.31.17-.64.46-.75s.66-.02.85.22c.2-.31.55-.53.91-.56s.75.11,1,.39"/>
      <path class="cls-8" d="M58.26,223.76c-.19-.25-.19-.63,0-.88s.55-.36.85-.25c0-.37.19-.73.49-.95s.7-.29,1.06-.19"/>
    </g>
  </g>
  <g id="lade">
    <g id="lade-2" data-name="lade">
      <path class="cls-3" d="M194.65,257.36c3.09-.39,6.18-.79,9.26-1.18.06-1.01.12-2.01.17-3.02-3.14-.04-6.28-.07-9.42-.11,0,1.44-.01,2.87-.02,4.31Z"/>
      <path class="cls-15" d="M187.6,247.06c4.22.23,8.44.45,12.66.68l3.83,5.41c-3.14-.04-6.28-.07-9.42-.11-2.35-2-4.71-3.99-7.06-5.99Z"/>
      <path class="cls-3" d="M180.56,257.16v-4.8c2.14-1.9,4.29-3.8,6.43-5.69,2.46,2.26,4.92,4.52,7.37,6.77.09,1.31.19,2.62.28,3.93-2.24.19-4.72.3-7.4.24-2.41-.05-4.65-.21-6.69-.45Z"/>
      <path class="cls-19" d="M184.2,257.4c-.12-1.82,1.18-3.24,2.46-3.32,1.42-.09,3.04,1.46,2.82,3.52"/>
      <rect class="cls-17" x="185.09" y="250.06" width="3.8" height="2.66" transform="translate(-2.72 2.05) rotate(-.62)"/>
    </g>
    <g>
      <path class="cls-31" d="M179.09,257.15c0-1.51.03-3.02.09-4.54-1.06-.04-2.12-.08-3.19-.12-.15-1.1-.17-2.22-.06-3.33,2.2.06,4.4.13,6.6.19-.02,1.02-.04,2.03-.05,3.05-1.14.14-2.29.2-3.45.17"/>
      <path class="cls-39" d="M178.71,257.15l.34-4.54.12.13-3.19-.05h-.18s0-.17,0-.17c-.07-1.19-.1-2.36-.02-3.55,0,0,.17.01.17.01,2.27.14,4.54.16,6.81.15,0,0,0,.22,0,.22-.01,1.06-.05,2.12-.12,3.18-1.19.13-2.4.21-3.6.12,0,0,0-.2,0-.2,1.14-.02,2.29-.06,3.42-.22,0,0-.14.15-.14.15-.03-1.02-.03-2.03,0-3.05,0,0,.21.22.21.22-2.2-.14-4.4-.24-6.6-.23,0,0,.18-.16.18-.16-.17,1.09-.16,2.21.08,3.29,0,0-.19-.17-.19-.17l3.18.2c.15,0,.11-.01.12.13,0,0,.16,4.53.16,4.53,0,0-.75,0-.75,0h0Z"/>
    </g>
    <path class="cls-29" d="M179.11,252.81c.01.26,0,.53-.02.79-.01-.26,0-.53.02-.79,0,0-.03.26,0,0Z"/>
    <path class="cls-29" d="M179.2,252.91c0,.42,0,.83-.03,1.25-.01-.42,0-.83.03-1.25Z"/>
    <path class="cls-29" d="M179.06,253.76c0,.26-.02.53-.05.79,0-.26.02-.53.05-.79,0,0-.04.26,0,0Z"/>
    <path class="cls-29" d="M179.28,253.69c.02.4.02.8,0,1.2-.02-.4-.02-.8,0-1.2Z"/>
    <path class="cls-29" d="M179.12,254.33c0,.61-.04,1.21-.09,1.82,0-.61.04-1.21.09-1.82Z"/>
    <path class="cls-29" d="M179.21,254.89c.02.26.02.53,0,.79-.02-.26-.02-.53,0-.79Z"/>
    <path class="cls-29" d="M178.99,254.7c-.02.4-.05.81-.11,1.21.02-.4.05-.81.11-1.21Z"/>
    <path class="cls-29" d="M179.15,255.75c.03.39.05.78.04,1.16-.03-.39-.05-.78-.04-1.16Z"/>
    <path class="cls-29" d="M179.31,255.65c.02.14.03.29.02.43-.03-.14-.03-.29-.02-.43Z"/>
    <path class="cls-29" d="M179.32,254.99c.02.08.03.16,0,.25-.02-.08-.03-.16,0-.25Z"/>
    <path class="cls-29" d="M178.95,255.93c0,.15-.01.29-.05.43,0-.15.01-.29.05-.43,0,0-.04.14,0,0Z"/>
    <path class="cls-29" d="M178.98,256.41c0,.22,0,.45-.03.67,0-.22,0-.45.03-.67Z"/>
    <path class="cls-29" d="M179.33,256.46c.03.22.05.44.04.67-.03-.22-.04-.44-.04-.67,0,0,0,.22,0,0Z"/>
    <path class="cls-29" d="M175.88,249.37c.01.59,0,1.19-.02,1.78-.02-.59,0-1.19.02-1.78Z"/>
    <path class="cls-29" d="M175.94,251.06c.03.22.04.45.02.67-.03-.22-.04-.45-.02-.67Z"/>
    <path class="cls-29" d="M175.83,251.43c.05.38.08.75.1,1.13-.05-.38-.08-.75-.1-1.13Z"/>
    <path class="cls-29" d="M176,249.04c0,.22,0,.45-.03.67,0-.22,0-.45.03-.67Z"/>
    <path class="cls-29" d="M176.2,252.41c.96.05,1.92.11,2.88.2-.96-.05-1.92-.11-2.88-.2Z"/>
    <path class="cls-29" d="M182.45,252.34c-.38.07-.76.13-1.15.16.38-.08.76-.13,1.15-.16Z"/>
    <path class="cls-29" d="M181.19,252.48c-.56.07-1.12.12-1.69.15.56-.07,1.12-.12,1.69-.15Z"/>
    <path class="cls-29" d="M181.46,252.56c-.15.03-.3.04-.46.04.15-.03.3-.04.46-.04Z"/>
    <path class="cls-29" d="M179.57,252.52c-.15.03-.3.04-.46.04.15-.03.3-.04.46-.04Z"/>
    <path class="cls-29" d="M176.59,252.56c-.19,0-.38,0-.56-.03.19,0,.37,0,.56.03Z"/>
    <path class="cls-29" d="M176.2,249.12c1.03.01,2.05.05,3.08.1-1.03-.01-2.05-.05-3.08-.1Z"/>
    <path class="cls-29" d="M179.68,249.18c.96.05,1.92.11,2.88.2-.96-.05-1.92-.11-2.88-.2Z"/>
    <path class="cls-29" d="M179.31,249.27c-.15.02-.31.02-.46,0,.15-.02.31-.02.46,0Z"/>
    <path class="cls-29" d="M176.7,249.19c-.15.04-.3.05-.46.05.15-.04.3-.05.46-.05,0,0-.15,0,0,0Z"/>
    <path class="cls-29" d="M181.65,249.43c-.48,0-.95,0-1.42-.04.48,0,.95,0,1.42.04Z"/>
    <path class="cls-29" d="M179.35,249.36c-.72,0-1.43-.03-2.15-.08.72,0,1.43.03,2.15.08Z"/>
    <path class="cls-29" d="M182.45,249.22c-.66.02-1.32.02-1.97,0,.66-.02,1.32-.01,1.97,0Z"/>
    <path class="cls-29" d="M180.06,249.32c-.13.01-.26,0-.39-.02.13-.01.26,0,.39.02Z"/>
    <path class="cls-29" d="M182.58,249.53c.03.56.03,1.11.02,1.67-.03-.56-.03-1.11-.02-1.67,0,0-.01.56,0,0Z"/>
    <path class="cls-29" d="M182.51,251.11c.01.21,0,.42-.02.63-.01-.21,0-.42.02-.63,0,0-.03.21,0,0Z"/>
    <path class="cls-29" d="M182.62,251.45c-.01.35-.05.71-.1,1.06.01-.36.05-.71.1-1.06,0,0-.05.35,0,0Z"/>
    <path class="cls-29" d="M182.44,249.22c.03.21.04.42.03.63-.03-.21-.04-.42-.03-.63,0,0,0,.21,0,0Z"/>
    <path class="cls-29" d="M182.45,250.05c.01.21,0,.42-.02.63-.01-.21,0-.42.02-.63,0,0-.03.21,0,0Z"/>
    <g class="cls-37">
      <path class="cls-29" d="M181.93,249.86c-.47,0-.94,0-1.4-.04.47,0,.94,0,1.4.04,0,0-.47-.03,0,0Z"/>
    </g>
    <g class="cls-37">
      <path class="cls-29" d="M179.83,249.58c-1.33-.02-2.65-.05-3.98-.11,1.33.02,2.65.05,3.98.11Z"/>
    </g>
    <g class="cls-37">
      <path class="cls-29" d="M180.06,249.9c-.96,0-1.91-.03-2.87-.08.96,0,1.91.03,2.87.08Z"/>
    </g>
    <g class="cls-37">
      <path class="cls-29" d="M177.72,249.66c-.47,0-.94,0-1.4-.04.47,0,.94,0,1.4.04,0,0-.47-.03,0,0Z"/>
    </g>
    <g class="cls-37">
      <path class="cls-29" d="M182.2,249.68c-.97,0-1.95-.03-2.92-.08.97,0,1.95.03,2.92.08Z"/>
    </g>
    <g class="cls-37">
      <path class="cls-29" d="M181.97,250.13c-.47.02-.93.03-1.4.01.47-.02.93-.03,1.4-.01,0,0-.47-.02,0,0Z"/>
    </g>
    <g class="cls-37">
      <path class="cls-29" d="M179.92,250.29c-1.32.03-2.65.05-3.98.04,1.32-.03,2.65-.04,3.98-.04,0,0-1.33,0,0,0Z"/>
    </g>
    <g class="cls-37">
      <path class="cls-29" d="M178.63,250.2c-.47.02-.93.03-1.4.01.47-.02.93-.03,1.4-.01,0,0-.47-.02,0,0Z"/>
    </g>
    <g class="cls-37">
      <path class="cls-29" d="M177.75,250.13c-.47.02-.93.03-1.4.01.47-.02.93-.03,1.4-.01,0,0-.47-.02,0,0Z"/>
    </g>
    <g class="cls-37">
      <path class="cls-29" d="M182.23,250.05c-.97.03-1.95.04-2.92.03.97-.03,1.95-.04,2.92-.03,0,0-.97-.01,0,0Z"/>
    </g>
    <g class="cls-37">
      <path class="cls-29" d="M181.97,250.84c-.47,0-.94,0-1.4-.04.47,0,.94,0,1.4.04,0,0-.47-.03,0,0Z"/>
    </g>
    <g class="cls-37">
      <path class="cls-29" d="M179.87,250.56c-1.33-.02-2.65-.05-3.98-.11,1.33.02,2.65.05,3.98.11Z"/>
    </g>
    <g class="cls-37">
      <path class="cls-29" d="M180.1,250.87c-.96,0-1.91-.03-2.87-.08.96,0,1.91.03,2.87.08Z"/>
    </g>
    <g class="cls-37">
      <path class="cls-29" d="M177.75,250.64c-.47,0-.94,0-1.4-.04.47,0,.94,0,1.4.04,0,0-.47-.03,0,0Z"/>
    </g>
    <g class="cls-37">
      <path class="cls-29" d="M182.23,250.65c-.97,0-1.95-.03-2.92-.08.97,0,1.95.03,2.92.08Z"/>
    </g>
    <g class="cls-37">
      <path class="cls-29" d="M182,251.1c-.47.02-.93.03-1.4.01.47-.02.93-.03,1.4-.01,0,0-.47-.02,0,0Z"/>
    </g>
    <g class="cls-37">
      <path class="cls-29" d="M179.95,251.27c-1.32.03-2.65.05-3.98.04,1.32-.03,2.65-.04,3.98-.04,0,0-1.33,0,0,0Z"/>
    </g>
    <g class="cls-37">
      <path class="cls-29" d="M178.67,251.17c-.47.02-.93.03-1.4.01.47-.02.93-.03,1.4-.01,0,0-.47-.02,0,0Z"/>
    </g>
    <g class="cls-37">
      <path class="cls-29" d="M177.79,251.11c-.47.02-.93.03-1.4.01.47-.02.93-.03,1.4-.01,0,0-.47-.02,0,0Z"/>
    </g>
    <g class="cls-37">
      <path class="cls-29" d="M182.27,251.02c-.97.03-1.95.04-2.92.03.97-.03,1.95-.04,2.92-.03,0,0-.97-.01,0,0Z"/>
    </g>
    <g class="cls-37">
      <path class="cls-29" d="M181.97,251.81c-.47,0-.94,0-1.4-.04.47,0,.94,0,1.4.04,0,0-.47-.03,0,0Z"/>
    </g>
    <g class="cls-37">
      <path class="cls-29" d="M179.87,251.53c-1.33-.02-2.65-.05-3.98-.11,1.33.02,2.65.05,3.98.11Z"/>
    </g>
    <g class="cls-37">
      <path class="cls-29" d="M180.1,251.85c-.96,0-1.91-.03-2.87-.08.96,0,1.91.03,2.87.08Z"/>
    </g>
    <g class="cls-37">
      <path class="cls-29" d="M177.75,251.61c-.47,0-.94,0-1.4-.04.47,0,.94,0,1.4.04,0,0-.47-.03,0,0Z"/>
    </g>
    <g class="cls-37">
      <path class="cls-29" d="M182.23,251.63c-.97,0-1.95-.03-2.92-.08.97,0,1.95.03,2.92.08Z"/>
    </g>
    <g class="cls-37">
      <path class="cls-29" d="M182,252.08c-.47.02-.93.03-1.4.01.47-.02.93-.03,1.4-.01,0,0-.47-.02,0,0Z"/>
    </g>
    <g class="cls-37">
      <path class="cls-29" d="M179.95,252.24c-1.32.03-2.65.05-3.98.04,1.32-.03,2.65-.04,3.98-.04,0,0-1.33,0,0,0Z"/>
    </g>
    <g class="cls-37">
      <path class="cls-29" d="M178.67,252.15c-.47.02-.93.03-1.4.01.47-.02.93-.03,1.4-.01,0,0-.47-.02,0,0Z"/>
    </g>
    <g class="cls-37">
      <path class="cls-29" d="M177.79,252.08c-.47.02-.93.03-1.4.01.47-.02.93-.03,1.4-.01,0,0-.47-.02,0,0Z"/>
    </g>
    <g class="cls-37">
      <path class="cls-29" d="M182.27,252c-.97.03-1.95.04-2.92.03.97-.03,1.95-.04,2.92-.03,0,0-.97-.01,0,0Z"/>
    </g>
    <path class="cls-5" d="M176.81,250.5h-.3c.03.2.03.41-.01.61.12,0,.24,0,.36-.01-.11.01-.23,0-.34,0,0-.11,0-.22,0-.33h.24"/>
    <path class="cls-5" d="M176.97,250.53c.05.2.12.39.21.57.1-.18.18-.37.25-.57"/>
    <path class="cls-5" d="M178.01,251.12c-.09-.2-.17-.4-.26-.6-.08.2-.16.4-.25.6.01-.03.04-.09.06-.15.02-.05.02-.06.03-.07.03-.04.1-.07.3-.03"/>
    <path class="cls-5" d="M178.2,250.52c0,.21-.01.43-.02.64,0-.1.01-.23.08-.37.09-.18.27-.29.26-.28-.08.09-.17.18-.25.26.09.12.17.23.26.35"/>
    <path class="cls-5" d="M178.74,250.54c0,.08,0,.17,0,.25s.03.17.08.24.15.1.23.07c.1-.04.14-.16.14-.26s-.03-.21,0-.32"/>
    <path class="cls-5" d="M179.71,250.51h-.28c0,.1,0,.2,0,.29q.1,0,.3,0-.2,0-.3,0c0,.06,0,.11,0,.17,0,.05,0,.1,0,.15.11,0,.22,0,.33-.01"/>
    <path class="cls-5" d="M179.95,251.12c0-.17,0-.35.01-.52,0-.02,0-.05.02-.06.02-.03.06-.03.09-.03.04,0,.14,0,.18.06.05.07,0,.2-.1.25-.07.03-.14,0-.16,0,.03-.01.11-.04.16,0,.03.02.04.06.05.08.02.06.05.15.09.26"/>
    <path class="cls-5" d="M180.53,250.52l-.02.6"/>
    <path class="cls-5" d="M180.8,251.11c0-.1,0-.2,0-.3,0-.08,0-.15,0-.23.14.15.28.31.42.46,0-.17.02-.34.02-.52"/>
    <path class="cls-5" d="M181.9,250.55c-.07-.02-.15-.04-.23-.04s-.16.03-.2.09c-.04.06-.05.14-.05.21,0,.09.02.19.09.25.04.04.1.06.15.06.08,0,.16-.01.22-.07s.08-.15.04-.22c-.05,0-.11,0-.16-.01"/>
  </g>
</svg>