<?xml version="1.0" encoding="UTF-8"?>
<svg id="Layer_1" xmlns="http://www.w3.org/2000/svg" version="1.1" viewBox="0 0 14.62 14.62">
  <!-- Generator: Adobe Illustrator 30.0.0, SVG Export Plug-In . SVG Version: 2.1.1 Build 123)  -->
  <path d="M11.29,0H3.34c-.88,0-1.73.35-2.36.98-.63.63-.98,1.47-.98,2.36v7.95c0,.88.35,1.73.98,2.36.63.63,1.47.98,2.36.98h7.95c.88,0,1.73-.35,2.36-.98s.98-1.47.98-2.36V3.34c0-.88-.35-1.73-.98-2.36-.63-.63-1.47-.98-2.36-.98ZM4.94,11.81s0,.08-.02.12c-.01.04-.04.07-.06.1-.03.03-.06.05-.1.07-.04.02-.08.02-.12.02h-1.34c-.08,0-.16-.04-.21-.09-.06-.06-.09-.14-.09-.22v-5.55s0-.08.02-.12c.01-.04.04-.07.06-.1.03-.03.06-.05.1-.07.04-.02.08-.02.12-.02h1.34s.08,0,.12.02c.04.02.07.04.1.07.03.03.05.06.06.1.01.04.02.08.02.12v5.54ZM3.95,4.79c-.14,0-.29-.03-.42-.09-.13-.06-.25-.14-.36-.24-.1-.1-.18-.22-.24-.36-.05-.13-.08-.28-.08-.42,0-.14.03-.29.09-.42.06-.13.14-.25.24-.36.1-.1.22-.18.36-.24.13-.05.28-.08.42-.08.29,0,.56.13.76.34.2.21.31.48.31.77,0,.29-.12.56-.32.77-.2.2-.48.32-.76.33M12.07,11.8c0,.08-.03.15-.08.2-.05.05-.12.09-.2.09h-1.41c-.08,0-.15-.03-.2-.09-.05-.05-.08-.13-.08-.2v-2.57c0-.38.12-1.67-1.02-1.67-.88,0-1.06.9-1.09,1.3v2.99c0,.08-.03.15-.08.2-.05.05-.13.09-.2.09h-1.37c-.08,0-.15-.03-.21-.09-.05-.05-.09-.13-.09-.21v-5.62c0-.08.03-.15.09-.2.05-.05.13-.08.2-.08h1.37c.08,0,.15.03.2.08.05.05.09.13.09.2v.48c.2-.29.47-.52.8-.67.32-.15.68-.2,1.03-.16,2.28,0,2.27,2.13,2.27,3.34l-.02,2.58Z"/>
</svg>