<?xml version="1.0" encoding="UTF-8"?>
<svg id="logo" xmlns="http://www.w3.org/2000/svg" xmlns:xlink="http://www.w3.org/1999/xlink" viewBox="0 0 529.4 613.21">
  <defs>
    <style>
      .cls-1 {
        fill: none;
      }

      .cls-1, .cls-2, .cls-3, .cls-4 {
        stroke: #231f20;
        stroke-miterlimit: 10;
      }

      .cls-5 {
        fill: #412312;
      }

      .cls-6, .cls-3 {
        fill: #603a17;
      }

      .cls-7 {
        fill: #010101;
      }

      .cls-8 {
        fill: #eeede3;
      }

      .cls-9 {
        fill: #a77d52;
      }

      .cls-2, .cls-10 {
        fill: #eae9df;
      }

      .cls-11, .cls-4 {
        fill: #f4f3e8;
      }

      .cls-12 {
        fill: #6f4a2a;
      }

      .cls-13 {
        clip-path: url(#clippath-1);
      }

      .cls-14 {
        clip-path: url(#clippath-2);
      }

      .cls-15 {
        fill: #fff;
      }

      .cls-16 {
        fill: #c7ac8c;
      }

      .cls-17 {
        fill: #919396;
      }

      .cls-18 {
        fill: #2b190f;
      }

      .cls-19 {
        fill: #c59c6d;
      }

      .cls-20 {
        clip-path: url(#clippath);
      }
    </style>
    <clipPath id="clippath">
      <path class="cls-2" d="M510.58,518.31c.39,38.04-133.68,78.07-249.7,78.07S10.79,556.35,11.18,518.31c.2-19.11,34.32-37.63,82.56-51.37,6.65-1.89,13.57-3.69,20.71-5.39.08-.02.15-.04.22-.06,44.55-10.6,97.48-17.23,146.21-17.23s101.24,6.58,145.68,17.11c59.27,14.04,103.8,35.11,104.02,56.94Z"/>
    </clipPath>
    <clipPath id="clippath-1">
      <path class="cls-4" d="M129.54,488.1c-9.56-4.44-22.18-11.17-35.79-21.16-7.97-5.85-19.31-14.91-31.76-28.94-16.56-18.65-22.2-31.99-24.42-43.98-1.46-7.9-3.8-21.61,3.96-34.45,1.53-2.53,7.34-11.83,18.99-15.85,10.95-3.79,20.64-.68,25.81.98,7.09,2.28,12.28,5.72,15.47,8.2-.09,3.75.66,6.42,1.37,8.18.58,1.44,1.14,2.26,1.49,4.02.47,2.32.19,4.18-.07,5.72-1.07,6.42-1.6,9.64-1.94,11.02-.73,2.94-1.79,6.68-3.34,10.95-3.22-8.13-6.65-14.46-9.27-18.84-5.03-8.41-7.54-10.38-9.8-11.58-.99-.53-8.05-4.16-14.61-1.06-5.53,2.62-7.5,8.52-8.47,11.43-6.56,19.68,17.7,51.46,20.52,55.09,4.4,5.23,9.62,10.81,15.77,16.43,3.83,3.5,7.59,6.63,11.21,9.42,1.62,1.16,3.27,2.39,4.95,3.69,1.78,1.39,3.47,2.76,5.07,4.12,4.95,8.87,9.91,17.74,14.86,26.61Z"/>
    </clipPath>
    <clipPath id="clippath-2">
      <path class="cls-4" d="M422.04,391.47c-.93,12.06-2.68,32.79-11.29,56.91-.2.56-2.2,6.46-4.35,11.7-3.25,7.93-19.86,48.43-56.93,71.78-27.76,17.49-54.64,17.58-87.76,17.7-36.04.13-67.87.24-97.16-21.17,0,0-29.3-21.41-49.89-68.19-1.02-2.31-5-12.62-6.52-17.51-.04-.13-.08-.27-.12-.4-1.01-3.38-1.8-6.34-2.44-8.81-.27-1.05-.54-2.09-.78-3.12-.06-.22-.11-.43-.16-.64-.58-2.51-1.13-5.07-1.65-7.71-1.01-5.19-1.78-10.19-2.37-14.96-.07-.56-.14-1.1-.19-1.64v-.04c-.05-.46-.1-.92-.14-1.39-.05-.48-.1-.94-.14-1.42-.04-.48-.09-.95-.13-1.44-.12-1.45-.23-2.92-.33-4.43-.06-1.01-.12-2.02-.17-3.05-.02-.52-.05-1.04-.07-1.56-.04-1.02-.07-2.04-.1-3.08-.01-.57-.02-1.14-.03-1.7,0-.52-.02-1.02-.02-1.54,0-.63-.01-1.28-.01-1.93,0-.97.01-1.94.03-2.93v-.29c.02-.88.04-1.78.07-2.69,0-.14.01-.29.01-.44.03-.7.05-1.41.08-2.1.1-2.13.22-4.21.37-6.23v-.02c.16-2.02.33-3.98.53-5.88.12-1.15.25-2.28.38-3.38.02-.24.05-.47.08-.69.07-.5.13-.98.19-1.46.23-1.76.48-3.49.75-5.15-.07,1.48,0,3.59.72,5.94,4.45,14.68,28.29,20.35,59.27,24.46,24.53,3.26,58.45,6.19,100.21,5.04,9.44.04,59.6.12,106.05-5.04,15.58-1.73,38.03-4.86,51.51-21.71h0c1.28-2.49,2.13-4.6,2.63-5.91-14.69-9.67-34.99-20.8-60.68-28.62-25.45-7.75-50.52-9.06-100.7-10.6-20.07-.61-43.58-.6-70.2,2.56-.93.11-1.92.24-1.92.24-13.29,1.66-26.39,3.3-39.36,7.14-13.13,3.89-22.5,8.96-25.15,10.43-9.83,5.46-17.25,11.41-22.38,16.09,4.81-4.31,12.29-10.38,22.38-16.09,14.33-8.11,31.2-13.94,66.42-17.8,6.74-.74,13.03-1.28,19.05-1.68,15.9-1.05,30.83-1.35,51.15-.88,30.24.7,45.36,1.04,65.51,3.68,0,0,34.03,4.46,54.87,13.61.09.04,8.63,3.79,8.63,3.79s6.79,3.21,32.37,18.14c.98,14.42.59,26.71-.14,36.13Z"/>
    </clipPath>
  </defs>
  <path class="cls-4" d="M103,422.95c.52,2.66,1.07,5.25,1.65,7.78-1.79-7.51-3.05-14.8-3.9-21.79v-.02c-.04-.35-.08-.71-.12-1.06.59,4.81,1.36,9.85,2.37,15.09Z"/>
  <g>
    <path class="cls-10" d="M510.58,518.31c.39,38.04-133.68,78.07-249.7,78.07S10.79,556.35,11.18,518.31c.2-19.11,34.32-37.63,82.56-51.37,6.65-1.89,13.57-3.69,20.71-5.39.08-.02.15-.04.22-.06,44.55-10.6,97.48-17.23,146.21-17.23s101.24,6.58,145.68,17.11c59.27,14.04,103.8,35.11,104.02,56.94Z"/>
    <g class="cls-20">
      <path class="cls-11" d="M528.07,503.03c-3.26-15.93-15.48-30.99-29.78-38.44-13.47-7.02-27.88-9.25-42.73-10.31-10.26-2.77-20.51-5.53-30.77-8.3-1.78-.9-3.65-1.56-5.6-1.87-8-1.29-16.01-2.58-24.01-3.87-8.35-1.35-15.93-1.36-23.5,3.07-6.33,3.7-12.36,10.96-14.02,18.23-.28,1.24-3.67,14.02,3.07,23.5,6.4,9,17.58,8.98,39.97,12.02,33.21,4.51,49.82,6.76,50.88,12,2.02,9.93-50.84,29.76-89.04,40.51-26.47,7.45-56.28,15.63-97.2,16.37-37.37.68-63.98-5.21-95.76-12.24-16.45-3.64-89.43-19.78-88.32-33.39.75-9.15,34.9-15.89,39.36-16.77,16.21-3.2,20.22-.8,28.86-5.39,12.82-6.79,25.83-23.53,21.3-37.52-4.88-15.09-21.29-26.64-37.52-21.3-22.1,7.27-44.2,14.53-66.29,21.8-13.74.97-27.58,3-39.61,10.18-14.37,8.58-24.67,22.67-26.91,39.33-4.25,31.65,21.22,52.88,47.39,64.25,46.08,20.03,96.48,29.68,146.23,34.98,92.56,9.87,188.75-2.35,275.71-35.65,12.18-4.66,25.34-8.85,35.91-16.68,9.82-7.28,16.55-15.31,21.02-26.86,3.4-8.8,3.21-18.56,1.35-27.68ZM58.38,524.48c-.93,1.31-1.02.78.05-.54.05.01.11.02.16.04-.07.17-.14.34-.21.5Z"/>
    </g>
    <path class="cls-1" d="M510.58,518.31c.39,38.04-133.68,78.07-249.7,78.07S10.79,556.35,11.18,518.31c.2-19.11,34.32-37.63,82.56-51.37,6.65-1.89,13.57-3.69,20.71-5.39.08-.02.15-.04.22-.06,44.55-10.6,97.48-17.23,146.21-17.23s101.24,6.58,145.68,17.11c59.27,14.04,103.8,35.11,104.02,56.94Z"/>
  </g>
  <path class="cls-4" d="M419.76,360.8s-6.25,16.52-23.63,26.25c-42.2,23.63-135.25,21.84-135.25,21.84,0,0-74.75-1.44-125.93-22-26.49-10.64-31.2-22.9-32.44-28-.6-2.44-.72-4.55-.72-5.99,4.87-4.64,12.28-10.81,22.39-16.23,4.26-2.28,11.04-5.51,25.35-9.6,20.39-5.81,36.77-7.84,41.11-8.36,26.64-3.19,50.16-3.2,70.24-2.58,50.26,1.55,75.37,2.87,100.76,10.69,25.77,7.94,46.04,19.22,60.53,28.88-.48,1.12-1.28,2.94-2.41,5.1Z"/>
  <path class="cls-3" d="M419.76,360.29h0c-11.74,15.65-41.82,21.4-41.82,21.4-20.19,3.85-61.63,7.44-115.96,6.32-46.22,1.14-81.95-2.35-106.35-5.89-23.56-3.42-48.54-8.62-53.12-23.72-.71-2.35-.78-4.46-.72-5.92,5.13-4.66,12.55-10.6,22.39-16.05,2.65-1.46,12.02-6.52,25.16-10.4,12.97-3.83,26.08-5.46,39.38-7.12,0,0,.99-.12,1.92-.23,26.64-3.15,50.16-3.16,70.24-2.55,50.26,1.53,75.38,2.84,100.76,10.57,25.77,7.85,46.04,19,60.53,28.55-.48,1.11-1.28,2.91-2.41,5.04Z"/>
  <g>
    <path class="cls-11" d="M129.54,488.1c-9.56-4.44-22.18-11.17-35.79-21.16-7.97-5.85-19.31-14.91-31.76-28.94-16.56-18.65-22.2-31.99-24.42-43.98-1.46-7.9-3.8-21.61,3.96-34.45,1.53-2.53,7.34-11.83,18.99-15.85,10.95-3.79,20.64-.68,25.81.98,7.09,2.28,12.28,5.72,15.47,8.2-.09,3.75.66,6.42,1.37,8.18.58,1.44,1.14,2.26,1.49,4.02.47,2.32.19,4.18-.07,5.72-1.07,6.42-1.6,9.64-1.94,11.02-.73,2.94-1.79,6.68-3.34,10.95-3.22-8.13-6.65-14.46-9.27-18.84-5.03-8.41-7.54-10.38-9.8-11.58-.99-.53-8.05-4.16-14.61-1.06-5.53,2.62-7.5,8.52-8.47,11.43-6.56,19.68,17.7,51.46,20.52,55.09,4.4,5.23,9.62,10.81,15.77,16.43,3.83,3.5,7.59,6.63,11.21,9.42,1.62,1.16,3.27,2.39,4.95,3.69,1.78,1.39,3.47,2.76,5.07,4.12,4.95,8.87,9.91,17.74,14.86,26.61Z"/>
    <g class="cls-13">
      <path class="cls-15" d="M63.63,421.88c-9.11-8.82-15.22-20.49-16.66-33.16-1.27-11.17,1.23-30.47,14.5-33.65,3.75-.9,2.16-6.69-1.6-5.79-14.92,3.57-19.82,22.95-19.16,36.23.76,15.4,7.64,29.92,18.67,40.61,2.77,2.69,7.02-1.55,4.24-4.24Z"/>
    </g>
    <path class="cls-1" d="M129.54,488.1c-9.56-4.44-22.18-11.17-35.79-21.16-7.97-5.85-19.31-14.91-31.76-28.94-16.56-18.65-22.2-31.99-24.42-43.98-1.46-7.9-3.8-21.61,3.96-34.45,1.53-2.53,7.34-11.83,18.99-15.85,10.95-3.79,20.64-.68,25.81.98,7.09,2.28,12.28,5.72,15.47,8.2-.09,3.75.66,6.42,1.37,8.18.58,1.44,1.14,2.26,1.49,4.02.47,2.32.19,4.18-.07,5.72-1.07,6.42-1.6,9.64-1.94,11.02-.73,2.94-1.79,6.68-3.34,10.95-3.22-8.13-6.65-14.46-9.27-18.84-5.03-8.41-7.54-10.38-9.8-11.58-.99-.53-8.05-4.16-14.61-1.06-5.53,2.62-7.5,8.52-8.47,11.43-6.56,19.68,17.7,51.46,20.52,55.09,4.4,5.23,9.62,10.81,15.77,16.43,3.83,3.5,7.59,6.63,11.21,9.42,1.62,1.16,3.27,2.39,4.95,3.69,1.78,1.39,3.47,2.76,5.07,4.12,4.95,8.87,9.91,17.74,14.86,26.61Z"/>
  </g>
  <g>
    <path class="cls-11" d="M422.04,391.47c-.93,12.06-2.68,32.79-11.29,56.91-.2.56-2.2,6.46-4.35,11.7-3.25,7.93-19.86,48.43-56.93,71.78-27.76,17.49-54.64,17.58-87.76,17.7-36.04.13-67.87.24-97.16-21.17,0,0-29.3-21.41-49.89-68.19-1.02-2.31-5-12.62-6.52-17.51-.04-.13-.08-.27-.12-.4-1.01-3.38-1.8-6.34-2.44-8.81-.27-1.05-.54-2.09-.78-3.12-.06-.22-.11-.43-.16-.64-.58-2.51-1.13-5.07-1.65-7.71-1.01-5.19-1.78-10.19-2.37-14.96-.07-.56-.14-1.1-.19-1.64v-.04c-.05-.46-.1-.92-.14-1.39-.05-.48-.1-.94-.14-1.42-.04-.48-.09-.95-.13-1.44-.12-1.45-.23-2.92-.33-4.43-.06-1.01-.12-2.02-.17-3.05-.02-.52-.05-1.04-.07-1.56-.04-1.02-.07-2.04-.1-3.08-.01-.57-.02-1.14-.03-1.7,0-.52-.02-1.02-.02-1.54,0-.63-.01-1.28-.01-1.93,0-.97.01-1.94.03-2.93v-.29c.02-.88.04-1.78.07-2.69,0-.14.01-.29.01-.44.03-.7.05-1.41.08-2.1.1-2.13.22-4.21.37-6.23v-.02c.16-2.02.33-3.98.53-5.88.12-1.15.25-2.28.38-3.38.02-.24.05-.47.08-.69.07-.5.13-.98.19-1.46.23-1.76.48-3.49.75-5.15-.07,1.48,0,3.59.72,5.94,4.45,14.68,28.29,20.35,59.27,24.46,24.53,3.26,58.45,6.19,100.21,5.04,9.44.04,59.6.12,106.05-5.04,15.58-1.73,38.03-4.86,51.51-21.71h0c1.28-2.49,2.13-4.6,2.63-5.91-14.69-9.67-34.99-20.8-60.68-28.62-25.45-7.75-50.52-9.06-100.7-10.6-20.07-.61-43.58-.6-70.2,2.56-.93.11-1.92.24-1.92.24-13.29,1.66-26.39,3.3-39.36,7.14-13.13,3.89-22.5,8.96-25.15,10.43-9.83,5.46-17.25,11.41-22.38,16.09,4.81-4.31,12.29-10.38,22.38-16.09,14.33-8.11,31.2-13.94,66.42-17.8,6.74-.74,13.03-1.28,19.05-1.68,15.9-1.05,30.83-1.35,51.15-.88,30.24.7,45.36,1.04,65.51,3.68,0,0,34.03,4.46,54.87,13.61.09.04,8.63,3.79,8.63,3.79s6.79,3.21,32.37,18.14c.98,14.42.59,26.71-.14,36.13Z"/>
    <g class="cls-14">
      <path class="cls-15" d="M184.9,514.13c-35.62-25.52-54-68.84-58.08-111.43-.64-6.72-5.28-12.5-12.5-12.5-6.26,0-13.15,5.74-12.5,12.5,5,52.2,27.01,101.89,70.46,133.02,5.49,3.93,13.92.96,17.1-4.48,3.68-6.29,1.02-13.16-4.48-17.1Z"/>
      <g>
        <path class="cls-8" d="M438.19,378.35c-1.95-7.07-7.42-14.74-14.02-18.23-7.08-3.74-15.65-5.61-23.5-3.07-7.01,2.27-15.19,6.92-18.23,14.02-12.63,29.57-24.43,59.71-38.55,88.6-3.26,6.67-6.69,13.3-10.79,19.51-.39.6-.79,1.24-1.19,1.88-.49.59-.98,1.18-1.48,1.76-1.95,2.21-4.05,4.29-6.24,6.26-.06.09-1.04.97-1.97,1.7-.66.55-1.33,1.09-1.98,1.66.52-.46.97-.85,1.37-1.2-.06.04-.12.09-.18.12-2.55,1.77-5.19,3.42-7.89,4.97-4.67,2.69-9.52,5.04-14.44,7.23-15.07,6.11-30.51,11.32-45.66,17.24-16.75,6.53-33.63,12.92-51.38,16.01-2.01.2-4.02.37-6.05.48-15.9.88-31.27,13.4-30.5,30.5.71,15.77,13.44,31.44,30.5,30.5,23.01-1.27,44.58-7.5,65.96-15.69,17.87-6.84,35.99-13.16,53.72-20.35,20.38-8.26,40.22-17.89,55.72-33.98,15.6-16.2,25.1-36.77,34.02-57.1,10.1-23.01,19.8-46.19,29.67-69.3,3.36-7.86,5.45-14.88,3.07-23.5Z"/>
        <path class="cls-8" d="M323.81,489.43c.13-.12.25-.24.38-.36.05-.08-.59.43-2.57,2.15.19-.14.39-.29.6-.46.53-.44,1.07-.88,1.58-1.34Z"/>
      </g>
    </g>
    <path class="cls-1" d="M422.04,391.47c-.93,12.06-2.68,32.79-11.29,56.91-.2.56-2.2,6.46-4.35,11.7-3.25,7.93-19.86,48.43-56.93,71.78-27.76,17.49-54.64,17.58-87.76,17.7-36.04.13-67.87.24-97.16-21.17,0,0-29.3-21.41-49.89-68.19-1.02-2.31-5-12.62-6.52-17.51-.04-.13-.08-.27-.12-.4-1.01-3.38-1.8-6.34-2.44-8.81-.27-1.05-.54-2.09-.78-3.12-.06-.22-.11-.43-.16-.64-.58-2.51-1.13-5.07-1.65-7.71-1.01-5.19-1.78-10.19-2.37-14.96-.07-.56-.14-1.1-.19-1.64v-.04c-.05-.46-.1-.92-.14-1.39-.05-.48-.1-.94-.14-1.42-.04-.48-.09-.95-.13-1.44-.12-1.45-.23-2.92-.33-4.43-.06-1.01-.12-2.02-.17-3.05-.02-.52-.05-1.04-.07-1.56-.04-1.02-.07-2.04-.1-3.08-.01-.57-.02-1.14-.03-1.7,0-.52-.02-1.02-.02-1.54,0-.63-.01-1.28-.01-1.93,0-.97.01-1.94.03-2.93v-.29c.02-.88.04-1.78.07-2.69,0-.14.01-.29.01-.44.03-.7.05-1.41.08-2.1.1-2.13.22-4.21.37-6.23v-.02c.16-2.02.33-3.98.53-5.88.12-1.15.25-2.28.38-3.38.02-.24.05-.47.08-.69.07-.5.13-.98.19-1.46.23-1.76.48-3.49.75-5.15-.07,1.48,0,3.59.72,5.94,4.45,14.68,28.29,20.35,59.27,24.46,24.53,3.26,58.45,6.19,100.21,5.04,9.44.04,59.6.12,106.05-5.04,15.58-1.73,38.03-4.86,51.51-21.71h0c1.28-2.49,2.13-4.6,2.63-5.91-14.69-9.67-34.99-20.8-60.68-28.62-25.45-7.75-50.52-9.06-100.7-10.6-20.07-.61-43.58-.6-70.2,2.56-.93.11-1.92.24-1.92.24-13.29,1.66-26.39,3.3-39.36,7.14-13.13,3.89-22.5,8.96-25.15,10.43-9.83,5.46-17.25,11.41-22.38,16.09,4.81-4.31,12.29-10.38,22.38-16.09,14.33-8.11,31.2-13.94,66.42-17.8,6.74-.74,13.03-1.28,19.05-1.68,15.9-1.05,30.83-1.35,51.15-.88,30.24.7,45.36,1.04,65.51,3.68,0,0,34.03,4.46,54.87,13.61.09.04,8.63,3.79,8.63,3.79s6.79,3.21,32.37,18.14c.98,14.42.59,26.71-.14,36.13Z"/>
  </g>
  <path class="cls-17" d="M416.61,363.76c-1.57,1.89-4.47,4.95-9.63,7.86-10.39,5.87-23.29,7.42-32.32,8.44-21.57,2.43-28.76,3.01-28.77,3.01-28.03,2.29-42.04,3.43-49.43,3.82-20.05,1.06-35.27,1.26-40.72,1.31-10.81.1-20.87,0-30.4-.23-15.02-.36-25.47-1-33.97-1.69-4.38-.35-17.98-1.5-35.74-4.17-13.58-2.04-20.78-3.65-28.61-6.29-13.03-4.4-18.49-8.53-21.68-14.01-1.99-3.41-2.73-6.7-3.04-8.91-.34.13-.79.37-1.12.81-2.02,2.66,2.71,9.3,3.53,10.46,2.42,3.4,7.54,8.86,23.17,13.93,7.11,2.31,12.82,3.38,20.05,4.56,19.38,3.17,33.74,4.56,33.74,4.56,9.04.88,26.47,2.37,49.47,2.91,11.61.27,19.72.18,35.94,0,17.94-.2,26.91-.3,39.12-1.07,4.29-.27,13.18-1.06,30.96-2.63,9.97-.88,16-1.44,23.53-2.26,10.35-1.12,19.02-2.22,29.73-4.81,1.83-.44,3.32-.83,4.31-1.1,1.34-.47,10.49-3.75,16.75-8.29,2.65-1.92,4.91-4.17,5.62-4.87,2.19-2.18,2.79-3.17,3.1-3.75,1.27-2.32,1.45-4.6,1.44-6-.87,2.14-2.4,5.24-5.03,8.42Z"/>
  <g id="bølge">
    <g>
      <path class="cls-6" d="M358.75,234.68c-32.01-30.37-87.62-13.55-106.54-46.33-12.03-20.84-5.17-54.68,19.79-72.11,18.7-13.06,40.9-12.24,48.15-11.7-1.4,6.25,3.52,10.62,8.38,11.8,5.44,1.32,9.07-5.37,9.33-5.87-2.24,5.82-2.02,13.34.49,18.53,2.25,4.64,5.98,6.68,9.55,5.22-1.03,1.91-6.45,12.07-4.91,16.08,1.32,3.46,7.57,1.68,15.54-4.21-1.02,3.3-2.76,9.91-1.17,13.39,2.3,5.04,10.52,1.22,15.48-4.2,8.19-8.95,10.21-25.19,10.75-30.94-.25-7.36-.79-17.21-2.04-28.7-1.76-16.19-2.82-25.46-6.49-35.61-.66-1.82-4.6-12.49-11.81-20.77-15.74-18.1-34.49-10.36-37.79-8.9-2.72-4.58-14.27-22.93-32.83-24.86-18.61-1.94-31.45,13.96-34.48,17.94-5.86.85-14.46,2.95-24.24,8.78-22.44,13.38-35.83,37.1-45.43,54.53-5.95,10.81-9.9,19.16-10.93,21.42-24.2,53.08-36.31,79.62-30.54,96.61,14.14,41.64,107.17,30.37,119.76,65.11,6.28,17.32-7.45,46.04-82.16,96.53,29.28.43,59.03.44,89.21,0,30.19-.44,59.94-1.33,89.22-2.62,26.33-75.67,14.64-111.13-4.3-129.11Z"/>
      <path class="cls-7" d="M358.71,234.72c-15.48-14.78-37.4-18.53-57.7-22.15-10.26-1.9-20.68-3.75-30.28-8.06-21.34-9.09-27.87-31.55-22.75-52.88,6.3-26.9,29.38-44.66,56.47-47.01,5.21-.55,10.47-.63,15.7-.24,0,0,.18.01.18.01,0,0-.04.18-.04.18-1.5,5.88,3.9,11.38,9.57,11.74,3.55,0,6.18-3.07,7.81-5.93,0,0,.34.15.34.15-.9,2.4-1.39,4.96-1.5,7.52-.55,6.52,3.1,19.3,11.82,15.74-1.47,2.72-2.84,5.51-3.92,8.4-6.04,15.74,7.65,8.59,14.53,3.27-1.1,4-4.13,13.03.31,15.69,2.45,1.07,5.31-.17,7.53-1.38,4.74-2.65,8.3-7.02,10.61-11.9,3.52-7.36,5.12-15.49,5.92-23.57-.37-10.7-1.22-21.79-2.48-32.56-1.57-16.19-4.2-32.77-13.48-46.5-5.41-8.45-13.73-15.77-23.96-17.13-6-.92-12.26.12-17.81,2.52,0,0-.26.12-.26.12,0,0-.15-.25-.15-.25-17.28-28.71-45.09-34.44-66.97-6.73-43.09,6.91-64.27,51.96-81.53,87.3-4.31,9.47-8.63,18.94-12.83,28.46-6.17,14.29-12.61,28.6-16.27,43.76-6.37,24.78,7.46,38.21,29.23,46.88,14.53,5.73,29.85,8.9,44.93,12.89,25.35,6.55,58.48,17.25,42.84,50.04-7.07,14.08-18.52,25.34-30,35.85-15.57,13.89-32.48,26.14-49.72,37.8,0,0-.24-.81-.24-.81,59.12,1.11,119.98-.14,178.23-2.25,0,0,2.66-8.08,2.66-8.08,4.45-13.34,8.01-27.33,10.44-41.17,2.58-16.68,3.6-34.14-.58-50.63-.51-1.91-1.3-4.16-1.88-6.09-.39-1.16-1.93-4.66-2.42-5.89-3.15-6.32-7.22-12.27-12.35-17.15h0ZM358.78,234.65c25.57,24.58,21.48,64.98,14.04,96.56,0,0-.98,4.14-.98,4.14l-.5,2.07c-1.58,5.43-3.58,13.01-5.45,18.36,0,0-2.64,8.09-2.64,8.09-59.71,3.1-120.09,3.68-180.05,2.97,17.61-11.92,34.83-24.48,50.71-38.6,20.52-18.23,54.3-54.34,16.87-73.96-18.64-9.39-39.66-12.19-59.49-18.24-18.95-5.59-43.43-14.78-45.98-37.31-.82-10.55,2.55-20.79,5.94-30.6,7.14-19.59,16.11-38.4,24.67-57.38,4.28-9.5,9.14-18.73,14.22-27.82,10.04-18.13,21.85-36.15,39.13-48.16,8.15-5.81,19.57-10.67,28.59-11.56,21.79-28.02,50.63-21.98,67.87,6.98,0,0-.41-.13-.41-.13,5.36-2.34,11.32-3.32,17.14-2.72,5.13.62,10.09,2.55,14.27,5.58.96.59,2.31,1.85,3.21,2.58.85.72,2.1,2.09,2.91,2.92,5.53,6.1,9.42,13.53,12.35,21.17,3.86,10.31,4.96,21.31,6.19,32.11,1.25,10.85,2.11,21.75,2.46,32.67-1.55,14.04-5.42,32.51-20.64,37.45-5.65,1.47-7.23-3.08-6.66-7.77.26-2.74.94-5.41,1.74-8.03l.37.26c-4.19,3.33-18.14,11.6-15.91-.02.96-4.29,2.91-8.28,4.96-12.14,0,0,.26.29.26.29-8.87,2.84-12.34-9.69-11.82-16.36.11-2.6.61-5.2,1.53-7.64,0,0,.34.15.34.15-1.69,2.96-4.45,6.12-8.15,6.11-4.64-.35-9.27-3.9-10.02-8.63-.17-1.18-.1-2.37.13-3.53l.15.2c-5.21-.39-10.45-.32-15.65.22-26.99,2.3-50.02,19.95-56.31,46.76-5.1,21.25,1.36,43.62,22.63,52.69,9.57,4.3,19.98,6.16,30.24,8.07,20.31,3.63,42.26,7.41,57.74,22.21h0Z"/>
    </g>
    <g>
      <path class="cls-12" d="M162.8,140.74c2.71,7.24,27.92-10.81,38.2-23.39,3.44-4.21,5.98-7.92,5.98-7.92,3.01-7.14,5.99-13.34,10.69-17.54,4.76-4.25,10.32-5.94,15.67-4.75,3.7.82,7.24,2.95,10.88,4.34,1.6.61,3.25,1.08,4.88.67,1.62-.41,3.23-1.84,4.02-4.24.8-2.4.57-5.81-.76-7.44,1.55-.27,2.99,1.12,4.41,2.17s3.17,1.77,4.45.31c1.76-2,1.45-6.42.93-9.87,2.53,4.56,5.09,9.16,8.17,12.66,3.08,3.5,6.76,5.84,10.46,5.35,1.93-.26,3.68.64,4.99-1.74,1.31-2.38,1.73-6.02,1.06-9.05,2.16,6.11,5.76,10.74,9.84,12.65,1.43.67,3.02,1,4.38-.03,1.36-1.03,2.32-3.8,1.73-6.1.89,3.85,1.81,7.77,3.38,10.95,1.58,3.17,3.96,5.52,6.41,5.13,2.45-.39,4.72-4.23,4.36-8.31,1.48,4.44,2.58,8.05,3.29,10.43,1.46,4.9,1.91,6.77,3.29,8.64,1.62,2.17,3.33,2.73,4.41,3.09,1.23.4,4.3,1.41,6.9-1.24,1.95-1.99,2.83-5.2,3.01-5,.17.19-.94,2.52-1.38,5.76-.51,3.77-.1,8.66,1.7,12.41,1.89,3.95,4.52,4.96,5.12,5.17,2.55.88,4.31-.62,4.6.4.36,1.28-2.46,3.42-4.14,9.25-.62,2.15-1.42,4.91-.77,6.83,1.07,3.15,5.51,2.48,8.34,1.14,4.17-1.98,6.64-6.29,7.2-5.34.58.98-2.32,5.14-1.77,10.67.05.49.42,3.95,2,5.28.76.64,1.49.53,3.3-.08,3.15-1.05,4.72-1.58,6.4-2.72.63-.43,2.69-1.9,5.14-4.83,1.71-2.04,4.96-5.93,7.22-12.61,1.78-5.29,2.16-10.02,2.49-14.53.66-8.92-.12-14.5-1.94-33.38-1.59-16.52-1.21-14.57-1.53-16.57-3.64-22.77-14.03-35.94-14.95-37.07,0,0-9.86-12.14-21.9-12.87-6.16-.37-15.61,2.33-16.26,2.54-.84.28-1.26.41-1.26.41-4.7-7.06-8.39-11.31-8.39-11.31-4.22-4.86-7.99-7.15-10.62-8.72-7.2-4.28-13.22-4.85-15.49-4.96-3.15-.16-11.5-.45-19.42,5.54-3.19,2.41-11.02,9.4-12.13,11.23-.09.15-.53.92-1.25,1.3-.62.33-1.15.21-1.25.19-1.11-.19-8.82,1.53-16.67,5.23-3.53,1.66-12.89,6.46-23.52,17.19-1.02,1.03-4.16,4.24-8.03,9.04-2.82,3.49-7.2,9.27-14.38,21.32-3.61,6.06-7.66,13.26-15.46,28.59-11.3,22.22-16.93,33.38-16.05,35.74Z"/>
      <path class="cls-5" d="M162.82,140.73c3.33,6.62,23.04-8.99,26.7-12.12,6.72-5.51,12.52-12.03,17.41-19.2,2.75-6.41,5.63-13.15,11.02-17.83,3.92-3.46,9.29-5.56,14.54-4.67,5.24.79,9.56,4.42,14.74,5.29,5.77.56,7.86-7.65,5.07-11.67,0,0-.09-.12-.09-.12l.15-.02c2.72-.27,4.18,2.82,6.69,3.26,4.64.3,3.37-8.18,2.95-11.09,1.8,3.23,3.58,6.48,5.67,9.53,3.1,4.43,7.58,9.68,13.55,8.84,1.25-.08,2.74.28,3.73-.66,2.24-2.65,2.41-6.66,1.79-9.95,0,0,.23-.07.23-.07,1.93,5.25,5.16,10.76,10.59,12.9,3.84,1.58,5.96-3.16,5.13-6.31,0,0,.26-.06.26-.06,1.2,4.81,2.11,10.08,5.39,13.96,1.61,1.96,4.46,2.98,6.33.78,2.01-2.17,2.44-5.33,2.07-8.18,0,0,.37,1.18.37,1.18,0,0,2.86,9.06,2.86,9.06,1.02,2.97,1.59,6.16,3.04,8.94,2.08,3.95,8.36,6.41,11.79,2.8,1.3-1.34,2.03-3.12,2.81-4.81.04-.05.02-.09.18-.18.24-.04.27.18.25.28-.07.45-.22.79-.33,1.18-2.51,6.62-1.61,20.57,6.91,22.14.99.14,1.96-.28,2.97-.21.8.22.47,1.31.19,1.79-.79,1.4-1.68,2.69-2.35,4.12-.7,1.41-1.22,2.89-1.65,4.41-.55,2.19-1.44,4.67-.35,6.8,2.33,3.25,7.89.83,10.39-1.17,1.42-1.07,2.56-2.46,3.93-3.62.18-.1.33-.3.7-.24.32.13.34.43.34.69-.09,1.02-.55,1.95-.82,2.9-.49,1.49-.87,3.02-1.02,4.58-.18,2.31.05,4.75,1.1,6.84.35.65.87,1.33,1.56,1.46.7.11,1.48-.19,2.22-.41,0,0,2.25-.76,2.25-.76,4.63-1.34,8-4.91,10.87-8.63,1.93-2.49,3.51-5.24,4.72-8.15,6.87-17.32,2.23-38.28.94-56.3-.29-3.15-.57-6.31-.82-9.46-1.36-9.35-4.12-18.56-8.29-27.04-2.84-5.61-6.03-11.2-10.89-15.29-2.35-2.09-4.88-4-7.65-5.49-2.76-1.49-5.75-2.6-8.86-2.97-6.31-.6-12.72,1.06-18.72,2.87-4.28-6.2-8.55-12.65-14.64-17.22-9.79-7.59-23.79-10.72-35.13-4.79-2.22,1.14-4.23,2.62-6.15,4.24-3.31,2.85-6.7,5.69-9.58,8.98-.65,1.09-1.66,2.29-3.12,1.97-11.75,1.76-22.67,7.67-31.86,15.06-15.78,12.64-26.54,30.16-36.23,47.63-7.19,13.25-13.97,26.71-20.64,40.23-1.62,3.4-3.28,6.79-4.55,10.34-.37,1.17-.89,2.42-.63,3.65h0ZM162.78,140.75c-.29-1.25.27-2.5.62-3.68,1.26-3.55,2.91-6.95,4.53-10.36,6.64-13.53,13.4-27.01,20.56-40.28,9.67-17.53,20.41-35.08,36.19-47.79,8.75-7.18,19.06-12.6,30.18-14.97.63-.11,1.23-.24,1.92-.24,2.09.38,2.67-2.19,4.04-3.24,4.52-4.35,9.03-8.92,14.57-11.96,13.93-7.29,31.22-1.25,41.22,9.92,3.33,3.8,6.25,7.9,9.06,12.08,0,0-.27-.09-.27-.09,6.04-1.8,12.41-3.43,18.75-2.83,3.18.38,6.23,1.51,9.03,3.03,4.2,2.29,7.89,5.41,11.12,8.92,3.14,3.61,5.45,7.83,7.6,12.07,5.72,11.46,8.48,23.92,9.13,36.66,1.25,18.11,5.92,39.08-1,56.5-1.23,2.94-2.83,5.72-4.78,8.23-2.87,3.74-6.39,7.42-11.06,8.75-1.43.4-3.14,1.32-4.66,1.18-1.69-.46-2.23-2.44-2.63-3.93-1.04-3.96.16-7.96,1.44-11.69.04-.18.09-.38.09-.54.02-.17-.06-.33-.08-.33-.04-.03-.24.07-.37.18-1.34,1.15-2.49,2.53-3.92,3.61-2.63,2.14-8.47,4.56-10.92,1.06-1.16-2.23-.25-4.83.32-7.07.43-1.53.96-3.04,1.67-4.47.68-1.44,1.59-2.77,2.36-4.12.2-.37.51-1.13.03-1.3-.95-.03-1.92.36-2.92.22-3.34-.35-5.61-3.33-6.84-6.19-2.32-5.57-1.98-11.87-.03-17.48,0-.01,0-.05,0-.02-.02-.01.05.08.16.06-.7,1.57-1.54,3.55-2.87,4.91-3.55,3.77-10.12,1.26-12.27-2.87-1.48-2.84-2.03-6-3.06-9,0,0-2.85-9.05-2.85-9.05,0,0,.28-.06.28-.06.31,3.42-1.51,9.01-5.78,8.43-5.93-1.88-7.27-10.89-8.65-16.15,0,0,.26-.06.26-.06.86,3.37-1.4,8.26-5.47,6.61-5.51-2.17-8.78-7.74-10.73-13.06,0,0,.23-.07.23-.07.74,3.26.37,11.39-4.43,10.89-.9-.06-1.74.06-2.63.1-1.8.03-3.54-.59-5.06-1.5-6.07-3.84-9.29-10.6-12.77-16.62,0,0,.18-.06.18-.06.4,2.94,1.49,11.1-3.25,10.76-2.52-.41-3.97-3.5-6.63-3.27,0,0,.05-.14.05-.14,2.14,3.26,1.54,8.36-1.48,10.89-2.17,1.84-5.2.96-7.52-.05-3.62-1.47-7.07-3.55-10.96-4.2-5.21-.89-10.54,1.19-14.43,4.62-5.37,4.65-8.25,11.38-11,17.77-4.89,7.19-10.73,13.71-17.46,19.22-4.05,3.43-23.45,18.71-26.8,12.08h0Z"/>
    </g>
    <path class="cls-5" d="M194.53,107.62c1.71-2.83,5.38-5.47,8.75-3.84,2.35,1.49,2.21,4.77,2.25,7.24-.08.8-.2,1.93-.77,2.45.37-.77.43-1.63.42-2.46-.26-2.24-.07-5.46-2.1-6.88-3.23-1.66-6.73,1.02-8.55,3.5h0Z"/>
    <path class="cls-9" d="M214.48,78.34c2.91-2.41,8.45-2.69,9.58,1.72.59,1.85.43,4.14-1.07,5.53-.71.65-1.92,1.27-2.8.55-.74-.7-.86-1.87-.45-2.75-.42,2.13.98,3.75,2.91,1.85,1.26-1.29,1.5-3.32,1.01-5.07-1.07-4.37-6.27-3.83-9.18-1.83h0Z"/>
    <g>
      <path class="cls-12" d="M240.06,71.99c3.1-.49,6.27,2.89,7.31,7.8.34,1.59.43,3.53-.22,4.81-.42.82-1.06,1.2-1.69,1.41-2.05.69-4.26-.2-5.91-2.35"/>
      <path class="cls-5" d="M240.06,71.97c4.67-.4,7.12,5.03,7.7,8.94.37,2.1-.09,5.04-2.62,5.47-2.25.53-4.43-.87-5.61-2.69,1.36,1.39,3.38,2.82,5.49,2.2,2.27-.41,2.56-3.01,2.34-4.94-.47-3.89-2.81-9.12-7.31-8.98h0Z"/>
    </g>
    <path class="cls-19" d="M241.07,76.65c2.37-.37,5.08,4.19,1.96,5.06-.78.25-1.96.05-2.35-.58,1.19.6,3.45.22,3.36-1.37-.25-1.47-1.44-3.05-2.97-3.11h0Z"/>
    <path class="cls-18" d="M239.69,50.15c4.74,2.28,8.73,5.92,11.96,10.05,1.62,2.07,3.04,4.29,4.39,6.54,1.29,2.26,3.03,4.61,2.68,7.39-.48.86-2.05,1.23-2.96.95-2.93-.78-4.53-3.81-7-5.19,2.66,1.09,4.25,4.07,7.09,4.75.9.2,1.81-.08,2.44-.73l-.07.14c.33-2.61-1.37-4.9-2.56-7.1-1.3-2.27-2.69-4.49-4.27-6.57-3.11-4.18-7.18-7.82-11.7-10.25h0Z"/>
    <path class="cls-5" d="M247.56,65.32c1.41.66,2.29,2.2,3.76,2.57.75.18,1.44-.25,1.11-1.08-.81-2.08-2.19-4.09-4.06-5.31-1.27-.7-2.89-1.54-3.81-2.63,1.33.88,2.61,1.54,4.07,2.21,2.07,1.27,3.3,3.43,4.11,5.64.36,1.03-.48,1.69-1.47,1.42-1.56-.53-2.48-2.05-3.7-2.82h0Z"/>
    <path class="cls-5" d="M253.4,55.82l17.6,19.23c2.92,3.13,5.86,6.53,9.81,8.36,1.29.61,3.45,1.27,3.6-.83.03-.51-.1-1.02-.29-1.51-.81-2-1.71-3.98-2.72-5.9-4.03-7.7-9.76-14.31-15.42-20.88-5.51-6.32-11.79-13.89-20.64-14.62,9.04.34,15.38,8.1,21.02,14.29,5.68,6.57,11.41,13.24,15.4,21.02,1,1.94,1.9,3.92,2.7,5.95.19.52.35,1.08.3,1.66-.77,4.63-7.79-1.11-9.43-2.68-3.17-2.97-18.84-20.58-21.93-24.11h0Z"/>
    <path class="cls-9" d="M267.99,66.72c-.88-1.53-1.6-3.43-.91-5.18.22-.6.91-1.07,1.56-.84,1.1.38,1.76,1.83,2.43,2.68.69.97,1.4,1.93,2.13,2.87,1.44,1.95,3.21,3.55,4.65,5.5.77,1.36.37,3.6-1.25,4.09-.98.16-1.76-.6-2.43-1.17.68.3,1.47,1.13,2.37.89,1.3-.52,1.57-2.46.87-3.56-2.24-2.73-4.7-5.41-6.61-8.43-.58-.76-1.29-2.29-2.23-2.62-.53-.2-1.09.15-1.3.68-.78,1.69.08,3.61.73,5.1h0Z"/>
    <path class="cls-19" d="M274.32,44.74c4.56,1.27,7.9,5,10.61,8.71,1.54,1.52,20.07,34.15,10.97,29.59-1.94-1.22-3.88-2.91-5.1-4.74,1.53,1.74,3.28,3.3,5.27,4.47,6.03,3.19-3.89-15.5-4.53-17.04-2.06-4.16-4.16-8.32-6.8-12.13-2.6-3.77-6.02-7.43-10.4-8.85h0Z"/>
    <path class="cls-9" d="M303.77,90.15c-1.92-5.86-2.81-12-4.6-17.91-1.7-5.91-3.75-11.77-6.82-17.1-6.34-10.61-16.83-17.99-27.09-24.51,0,0,.02-.04.02-.04,10.53,6.1,21.22,13.62,27.41,24.36,6.19,10.81,7.94,23.44,11.08,35.2h0Z"/>
    <path class="cls-18" d="M289.51,38.72c2.88,4.01,6.93,6.93,10.02,10.77,3.13,3.8,5.18,8.62,5.27,13.57,0,0-.05,0-.05,0-.63-4.86-2.57-9.45-5.54-13.33-2.93-3.86-7.16-6.96-9.7-11.02h0Z"/>
    <path class="cls-5" d="M285.35,25.67c12.52,7.65,21.76,19.99,27.59,33.31,0,0-.05.02-.05.02-6.63-12.89-15.2-25.46-27.54-33.33h0Z"/>
    <path class="cls-19" d="M282.69,15.55c13.67-2.32,28.11,10.95,27.32,24.73,0,0-.05,0-.05,0-.28-13.7-13.44-26.52-27.27-24.73h0Z"/>
    <path class="cls-16" d="M311.2,82.56c.52,2.19,1.31,6.13-.95,7.59-1.13.69-2.47-.19-2.73-1.36-.12-.44-.27-1.29-.04-1.61.04.52.16,1.03.36,1.48.58,1.57,2.44,1.58,3.15.04.79-1.88.43-4.24.21-6.14h0Z"/>
    <path class="cls-9" d="M313.25,83.19c1.19,1.27,1.3,3.14,1.42,4.79.07,2.37.47,5.73-2.1,7.04-1.43.94-3.68,1.6-4.77-.22-.45-.7-.82-1.75-.62-2.47.09.83.4,1.63.9,2.26,1.09,1.52,2.9.77,4.25,0,2.46-1.19,2.05-4.26,2.09-6.6,0-1.65-.21-3.5-1.17-4.8h0Z"/>
    <path class="cls-19" d="M308.68,64.86c7.1,8.94,9.8,21.01,8.96,32.25,0,0-.05,0-.05,0-.07-11.22-2.05-23.17-8.91-32.25h0Z"/>
    <path class="cls-9" d="M323.15,103.15c3.39,11.22,10.81,8.7,9.54-2.35-.42-7.17-2.05-14.36-4.56-20.99,1.61,3.24,2.74,6.7,3.56,10.22.79,3.53,1.25,7.14,1.4,10.75.07,2.66.31,5.61-1.14,8.01-.94,1.63-3.2,2.47-4.81,1.3-2.2-1.58-3.37-4.49-3.98-6.94h0Z"/>
    <path class="cls-16" d="M325.78,94.94c.3.12.63.04.88-.16,1.25-1.09,1.19-2.92,1.25-4.45.09-.61-.02-1.42.22-1.96.49,2.15.48,5.04-1.39,6.53-.2.2-1.03.23-.96.03h0Z"/>
    <path class="cls-5" d="M325.82,101.08c3.03-.88,3.55-4.52,4.24-7.17,0,0,.05,0,.05,0,.37,2.65-1.42,6.89-4.29,7.17h0Z"/>
    <path class="cls-5" d="M327.47,65.42c7.23,14.12,9.77,30.61,7.9,46.32,0,0-.05,0-.05,0,1-15.73-.9-32.11-7.85-46.31h0Z"/>
    <path class="cls-9" d="M340.96,78.33c-2.77-5.79-5.51-11.61-8.8-17.12-3.27-5.52-7.54-10.41-10.58-16.08,0,0,.04-.03.04-.03,3.5,5.39,7.74,10.28,10.88,15.9,3.17,5.56,6,11.52,8.45,17.32h0Z"/>
    <path class="cls-16" d="M325.65,42.05c5.34,6.4,10.54,13.38,13.9,20.96-4.27-7.08-8.84-14.55-13.9-20.96h0Z"/>
    <path class="cls-5" d="M327.68,35.38c4.13,5.22,8.25,10.92,10.62,17.1-3.35-5.79-6.68-11.78-10.62-17.1h0Z"/>
    <path class="cls-9" d="M341.3,48.05c6.18,3.73,11.92,9.31,12.93,16.77,0,0-.05.01-.05.01-1.07-3.45-2.61-6.73-4.81-9.61-2.16-2.88-5.3-5.05-8.08-7.18h0Z"/>
    <path class="cls-5" d="M356.32,59.08c4.08,1.8,6.8,5.58,9.17,9.2,2.34,3.71,4.42,7.57,6.49,11.44,4.16,7.67,6.94,16.5,5.92,25.29,0,0-.05,0-.05,0,.51-8.8-2.25-17.36-6.23-25.11-2.03-3.87-4.06-7.76-6.35-11.49-2.27-3.68-5.08-7.41-8.96-9.33h0Z"/>
    <path class="cls-5" d="M372.34,100.89c-3.58-11.56-8.75-22.53-14.97-32.89,0,0,.04-.03.04-.03,6.98,9.85,11.67,21.45,14.93,32.92h0Z"/>
    <path class="cls-5" d="M350.76,76.17c2.26,16.29,10.39,32.03,7.69,48.79-.75,4.06-2.03,8.2-4.65,11.46-.88,1-2.06,2.14-3.29,2.48,1.25-.58,2.28-1.55,3.11-2.62,4.08-5.58,4.93-12.86,4.85-19.6-.17-13.85-6.19-26.95-7.71-40.52h0Z"/>
    <path class="cls-18" d="M346.34,95.33c2.95,7.53,3.9,15.77,3.28,23.81-.33,2.98-.42,6.28-2.32,8.79-2.95,3.44-5.51-1.87-5.7-4.54-.27-1.98-.38-4.17-.19-6.06.09,2.01.15,4.03.51,6,.28,2.23,2.43,7.27,5.01,4.28,1.79-2.4,1.94-5.6,2.31-8.51.77-7.99-.24-16.29-2.88-23.78h0Z"/>
    <path class="cls-16" d="M344.35,119.04c-.11,1.18-.27,2.48.36,3.53.15.24.39.48.66.45.27-.02.47-.27.62-.51,1.11-2.77.91-5.97.98-8.92-.1-1.29-.05-2.75-.76-3.78-.25-.33-.38-.08-.57.31-.85,2.86-.98,5.93-1.29,8.92h0ZM344.3,119.03c.28-1.85-.31-9.43,1.72-9.87.28.01.42.17.54.3.87,1.18.73,2.75.81,4.12-.15,3,.03,6.24-1.23,9.02-.37.69-1.15.76-1.52.02-.6-1.1-.42-2.4-.32-3.59h0Z"/>
    <path class="cls-16" d="M369.06,122.98l-5.84,11.16c-.8,1.21-2.28,5.82-4.23,4.05-1.28-1.85-.47-4.52.61-6.15-.37.98-.73,1.97-.84,2.99-.09.98.02,2.12.6,2.82,1.26,1.23,2.86-3.09,3.5-3.92.04.02,6.12-11.12,6.19-10.97h0Z"/>
    <path class="cls-5" d="M374.08,122.03c-4.01,6.59-8.38,12.98-13.04,19.13-.74.9-1.39,2.04-2.57,2.48-2.33.51-2.97-2.91-2.86-4.59.12-1.51.62-3.28,1.61-4.33-.81,1.31-1.23,2.83-1.26,4.34,0,1.39.31,3.14,1.46,3.98,1.36.74,2.43-1.29,3.22-2.19,4.81-6,9.2-12.53,13.43-18.83h0Z"/>
    <path class="cls-19" d="M375.79,129.68l-5.64,13.73c-.78,1.69-1.2,3.63-2.56,5.02-1.29,1.23-2.87-.04-2.91-1.54-.19-1.95,1.15-3.57,1.47-5.4.08,1.14-.64,2.45-.9,3.59-.14.59-.23,1.18-.15,1.76.06,1.11,1.2,2.17,2.15,1.23,1.24-1.31,1.73-3.2,2.52-4.81.03.02,5.93-13.72,6.01-13.58h0Z"/>
    <path class="cls-19" d="M379.36,133.51c-.87,6.21-2.92,12.43-6.9,17.38-2.86,3.7-9.63,8.44-10.05.44,0-1.55.15-3.31.62-4.69-.23,1.55-.38,3.12-.27,4.67.57,7.42,6.7,2.5,9.4-.67,4.06-4.8,6.09-11.12,7.21-17.12h0Z"/>
    <path class="cls-19" d="M213.03,82.93c.82-.34,1.7-.72,2.66-.59,2.37.49,3.44,4.04,1.87,5.83-.36.38-1.08.37-1.32-.12,0,0,.04-.03.04-.03.34.33.8.23,1.03-.09,1-1.69.45-4.79-1.66-5.34-.91-.25-1.82.23-2.61.34h0Z"/>
    <path class="cls-5" d="M195.79,111.53c-.86,1.44-.65,3.98,1.27,4.32,1.71.21,3.28-1.3,4.29-2.52.83-1.31.69-3.75-1.18-3.94-1.64-.31-3.55.52-4.38,2.14h0ZM195.74,111.51c.79-1.65,2.6-2.88,4.5-2.61,2.24.18,2.53,3.12,1.44,4.65-1.16,1.33-2.77,2.82-4.67,2.55-2.04-.49-2.12-3.07-1.26-4.59h0Z"/>
    <path class="cls-16" d="M303.79,97.54c-16.89.85-33.81,8.75-43.64,22.78-3.32,4.57-5.79,9.75-7.34,15.2,1.09-5.46,3.77-10.82,6.93-15.49,9.86-14.05,27.2-22.02,44.05-22.49h0Z"/>
    <path class="cls-9" d="M275.75,252.81c5.94,13.62,8.25,28.96,5.43,43.64-1.31,7.3-3.2,14.71-7.45,20.92-4.25,6.1-10.87,10.81-17.96,12.59,7.06-2.26,13.45-6.71,17.54-12.87,4.19-6.15,6.08-13.48,7.47-20.72,2.96-14.6.59-29.98-5.04-43.56h0Z"/>
    <path class="cls-18" d="M256.25,115.1c-12.06,11.21-22.31,25.34-25.6,41.72-2.85,15.12,1.92,29.28,13.37,39.58-10.78-8.71-16.4-22.91-14.23-36.75,2.46-17.46,13.64-33.07,26.46-44.55h0Z"/>
    <path class="cls-16" d="M237.25,99.02c-12.68,4.87-22.87,15.7-26.18,28.95,0,0-.05-.01-.05-.01,2.37-13.55,13.65-24.51,26.23-28.94h0Z"/>
    <path class="cls-5" d="M247.54,138.42c-6.23,10.38-7.27,23.21-3.59,34.65,0,0-.05.02-.05.02-4.62-11.17-2.77-24.69,3.64-34.67h0Z"/>
    <path class="cls-5" d="M261.82,95.06c-25.95,8.1-47.64,30.44-47.82,58.65-.17,8.97,1.76,17.98,5.49,26.18-1.08-1.84-1.88-4.13-2.67-6.21-.71-2.06-1.37-4.38-1.84-6.52-7.75-33.44,15.64-62.81,46.85-72.1h0Z"/>
    <path class="cls-9" d="M203.5,125.83c-9.94,10.95-15.68,25.31-16.42,40.04,0,0-.05,0-.05,0-.22-14.79,6.43-29.49,16.47-40.04h0Z"/>
    <path class="cls-5" d="M174.06,176.23c.29-8.57,1.46-17.34,5-25.22,0,0,.05.02.05.02-2.68,8.15-4.49,16.72-5.05,25.2h0Z"/>
    <path class="cls-18" d="M193.47,189.31c-3.48-8.64-2.36-19.21,3.74-26.41,0,0,.04.03.04.03-5.31,7.79-6.94,17.51-3.78,26.38h0Z"/>
    <path class="cls-7" d="M160.67,206.81c-4.85-20.57-4.82-43.2,3.96-62.74,0,0,.06.03.06.03-7.6,19.91-8.49,42.09-4.02,62.71h0Z"/>
    <path class="cls-9" d="M323.25,294.41c-.03-24.06-14.8-45.62-35.65-56.89-6.79-3.88-14.16-6.7-21.76-8.69,7.55,1.08,15.34,4.17,22.25,7.82,20.79,11.1,35.99,34.05,35.16,57.77h0Z"/>
    <path class="cls-9" d="M335.98,310.09c2.12-10.49,1.71-21.64-3.12-31.33,0,0,.08-.05.08-.05,6.5,8.51,5.7,21.76,3.03,31.39h0Z"/>
    <path class="cls-5" d="M320.05,256.76c2.45,4.46,6.93,7.66,12,8.17,1.66.21,3.36.22,5.09.51,7.61.96,10.25,9.6,10.27,16.18,0,0-.1,0-.1,0-.96-4.86-2.07-10.07-5.94-13.39-2.59-2.26-6.13-2.22-9.41-2.67-5.04-.63-10.07-4.28-11.91-8.81h0Z"/>
    <path class="cls-5" d="M173.27,151c1.71-3.67,3.61-7.71,6.62-10.4-.94,1.53-2.42,3.62-3.45,5.11-1.16,1.66-2.15,3.64-3.17,5.29h0Z"/>
    <g>
      <path class="cls-9" d="M304.81,228.04c.26-.42,18.44,21.83,22.78,25.42,1.69,1.4,2.44.94,2.74.59.59-.68.76-1.99.82-3.18.46-8.31-2.1-16.89-6.35-21.25,8.64,8.35,13.47,24.86,21.81,34.04,1.36,1.5,2.84,2.8,4.45,3.17,1.61.37,3.38-.35,4.47-2.37,1.1-2.04,1.34-5.08,1.01-7.78-.33-2.7-1.15-5.15-1.95-7.54,6.04,10.64,12.09,21.29,18.13,31.93,1.55,2.72,3.77,5.69,5.78,4.03,1.42-1.17,1.55-5.17,1.61-6.77.44-12.92-7.85-26.29-12.7-34.02-5.5-8.75-10.4-16.55-18.35-20.7-3.54-1.85-7.01-2.62-11.8-3.68-.79-.17-1.38-.28-1.62-.33-5.94-1.14-17.93-3.77-28.09-6.16-16.77-3.94-25.15-5.91-30.28-7.94-10.67-4.22-17.28-8.71-17.71-8.16-.5.64,8.55,6.29,21.63,17.33,5.46,4.61,8.2,6.92,10.28,9.17,6.92,7.47,14.46,18.92,15.92,18.35.4-.15.76-.48.76-.48.3-.27.61-.66.79-1.26,1.18-3.91-4.27-12.21-4.12-12.45Z"/>
      <path class="cls-7" d="M304.76,228.02c.12-.11.36.22.46.29.21.21.8.86,1.01,1.09,6.43,7.25,12.93,15.29,19.61,22.29,1.8,1.87,4.68,4.7,5.13.19.45-5.23-.26-10.6-2.18-15.5-.97-2.44-2.28-4.77-4.09-6.66,0,0,.19-.19.19-.19,9.95,10.05,13.09,24.93,22.94,35.04,6.03,5.76,9.25-1.51,8.49-7.26-.25-2.76-1.11-5.43-2.02-8.08l.52-.23s18.08,31.73,18.08,31.73c1.11,1.72,2.22,4.16,4.36,4.5,2.22-.25,2.15-3.56,2.4-5.32.56-7.59-1.74-15.01-4.96-21.83-2.57-5.49-5.8-10.64-9.07-15.77-4.79-7.52-10.1-15.54-18.6-19.12-2.75-1.17-5.71-1.84-8.68-2.5-5.93-1.24-11.89-2.59-17.84-3.88-11.91-2.58-23.77-5.25-35.58-8.34-7.41-1.86-14.39-5.19-21.13-8.75-.95-.46-3.07-1.72-4.1-2.01-.04,0-.03,0,0,0,.04,0,.21-.1.21-.25,0-.1,0-.06,0-.08,0,0-.02-.03,0-.02,1.5,1.61,4.79,3.8,6.56,5.22,4.86,3.68,9.64,7.46,14.28,11.4,4.61,3.97,9.46,7.76,13.3,12.52,3.96,4.62,7.43,9.66,11.44,14.22.51.52,1.05,1.16,1.69,1.39,3.75-1.27.75-7.54-.37-9.98-.48-.99-1.04-2.07-1.57-3.04-.14-.33-.44-.68-.49-1.08h0ZM304.85,228.07c1.43,2.88,7.49,12.68,2.29,14.27-.79-.27-1.26-.89-1.83-1.44-4.07-4.55-7.56-9.54-11.56-14.13-3.84-4.73-8.73-8.41-13.35-12.36-4.67-3.89-9.47-7.62-14.36-11.25l-3.66-2.73c-1.08-.87-2.28-1.57-3.15-2.69-.02-.03-.04-.1-.06-.15-.01-.07-.04-.08-.02-.22.02-.12.06-.24.15-.3.23-.21.5-.15.72-.1,1.32.45,2.95,1.4,4.19,2.02,6.73,3.49,13.63,6.66,21.01,8.52,16.98,4.46,36.12,8.44,53.37,12.23,14.25,2.44,20.54,10.46,27.78,22.12,6.43,10.23,13.17,21.1,14.06,33.49.06,3.1.28,6.25-1.03,9.18-2.45,3.82-5.85-1.15-7.06-3.47,0,0-17.99-31.78-17.99-31.78l.52-.23c1.73,5.14,3.62,11.56.29,16.47-2.2,2.79-5.54,1.62-7.65-.58-9.85-10.19-12.89-25.07-22.78-35.21,0,0,.19-.19.19-.19,3.64,3.93,5.32,9.25,6.06,14.45.19,1.9,1.45,11.91-2.18,10.36-1.24-.58-2.12-1.61-3.06-2.53-3.66-3.82-7.08-7.84-10.53-11.84-2.96-3.41-7.3-8.67-10.35-11.9h0Z"/>
    </g>
    <path class="cls-6" d="M318.73,235.25c4.07-.9,7.65,2.45,9.48,5.78,1.04,1.9,3.02,5.66.61,7.29-1.88.64-2.41-1.86-3.75-2.48,0,0,.02-.1.02-.1,1.39.12,2.09,2.13,3.36,1.78.21-.11.39-.49.43-.88.18-1.66-.57-3.55-1.37-5.23-1.68-3.48-4.84-6.42-8.77-6.15h0Z"/>
    <path class="cls-5" d="M345.71,236.38c3.49,6.54,6.91,13.85,6.24,21.46-.6,4.39-4.2,6.07-6.39,1.5-.65-1.41-1-2.88-1.31-4.34l.1-.03c.58,1.38,1.1,2.8,1.83,4.05,3.77,5.97,5.58-2.37,4.92-5.69-.54-5.92-3.11-11.72-5.39-16.95h0Z"/>
    <path class="cls-7" d="M332.1,227.21c2.45,1.96,4.63,4.26,6.55,6.76,1.88,2.42,3.91,5.36,4.46,8.28-1.87-2.53-3.42-5.18-5.11-7.81-1.98-3.04-3.86-4.82-5.9-7.23h0Z"/>
    <path class="cls-6" d="M353.61,239.06c7.22,6.81,13.52,15.05,16.9,24.46,0,0-.09.04-.09.04-2.6-4.26-4.99-8.57-7.64-12.78-2.6-4.18-6.06-8.14-9.17-11.72h0Z"/>
    <path class="cls-6" d="M374.35,271.68c1.1.94,1.62,2.53,1.32,4.04-.09.86-.89,2.15-1.94,1.63-.85-.5-1.02-1.48-.68-2.27,0,0,.1,0,.1,0,.17.52.52,1.2.98,1.34.38-.04.61-.53.77-.92.42-1.22.21-2.72-.62-3.77,0,0,.07-.07.07-.07h0Z"/>
    <g>
      <path class="cls-9" d="M227.52,369.4c-.07-1.24,29.99-6.11,64.89-6.73,10.87-.19,19.94.07,26.33.36,10.51-.09,18.95-.82,24.42-1.42,18.67-2.04,62.6-9.07,79.81-7.74,1.47.11,5.72.73,10.04,3.44,3.05,1.92,5.62,5.06,6.23,8.84.61,3.78-1.18,8.08-4.49,9.39-3.31,1.31-7.63-1.4-7.64-5.23.68.94,1.67,2.33,2.84,4.03.76,1.09,1.38,2.02,1.49,2.19.95,1.43,4.35,7.75,1.87,14.78-1.8,5.12-6.86,11.04-10.54,10.12-6.01-1.51-1.74-19.61-13.17-27.97-3.64-2.66-7.73-3.5-7.81-3.33-.11.23,7.64,2.2,12.6,8.54,3.83,4.89,4.33,10.22,5,17.48.71,7.69,1.47,15.83-3.26,19.02-2.82,1.9-6.23,1.14-6.43,1.09-6.95-1.65-5.24-11.33-12.6-18.37-7.95-7.6-16.29-2.38-29.85-11.24-4.15-2.71-7.07-5.62-8.83-7.56.73.59,1.83,1.49,3.1,2.67,3.57,3.29,6.32,5.83,8,9.68.68,1.55,2.83,6.48.61,9.22-.32.4-1.4,1.57-4.23,1.81-5.87.5-10.09-3.79-17.49-9.17-9.97-7.24-18.45-11.19-18.72-10.79-.15.22,2.3,1.34,2.14,2.62-.47,3.66-21.65,2.32-25.25.19-1.84-1.09-2.99-1.91-2.99-1.91-1.29-.89-1.74-1.32-3.86-2.59-8.66-5.15-19.66-9.03-42.81-10.68-18.12-1.3-29.35-.21-29.38-.72Z"/>
      <path class="cls-7" d="M227.47,369.41c.07-.23.25-.25.38-.33,2.21-.81,4.56-1.13,6.86-1.58,7.4-1.27,14.87-2.14,22.34-2.87,21.18-2.16,42.49-2.43,63.76-1.75,8.74-.16,17.52-.79,26.18-1.89,24.82-2.87,49.62-7.7,74.7-7.45,7.35.26,15.89,4.24,17.72,11.96,1.27,4.81-2.22,11.92-7.94,10.51-2.57-.65-4.7-2.98-4.71-5.7,0,0-.02-1.07-.02-1.07,0,0,.61.88.61.88,1.24,1.77,2.51,3.51,3.71,5.3,2.55,3.54,3.8,8.08,3.35,12.43-.5,4.39-2.79,8.42-5.91,11.49-2.52,2.57-6.7,4.07-8.5-.07-1.31-3.02-1.55-6.34-2.24-9.5-1.58-9.26-6.01-17.31-15.86-19.26,0,0-.03,0-.03,0,.01,0-.08,0,.05-.01.1-.02.19-.12.21-.21.13-.32-.18-.53-.09-.44.35.14,1.04.43,1.39.56,14.4,5.99,15.69,14.86,16.67,29,.28,4.33.71,8.86-1.11,12.97-1.61,3.79-6.38,5.43-10.14,4.1-5.04-1.78-5.6-8-7.82-12.13-1.35-2.87-3.29-5.42-5.78-7.37-4.32-3.32-9.83-3.36-15.11-4.47-3.19-.66-6.35-1.71-9.25-3.2-4.86-2.44-9.23-5.88-12.87-9.9,0,0,.68-.72.68-.72,4.18,3.68,8.83,7.2,11.19,12.4,3.06,6.34,2.39,12.58-6.14,11.81-6.78-1.09-11.59-6.78-17.08-10.32-5.35-3.65-10.81-7.43-16.88-9.75-.03,0-.02,0-.02,0,0,0,.06-.01.1-.03.06-.05.12-.08.15-.26-.02-.22-.06-.17-.04-.18l.04.04.14.11c1.49.98,3.16,2.71.86,3.97-2.6,1.18-5.55,1.13-8.32,1.23-4.45,0-8.91-.3-13.28-1.19-1.08-.25-2.2-.49-3.21-1.11,0,0-2.85-1.83-2.85-1.83l.04.03c-10.58-7.89-23.81-10.87-36.71-12.41-12.17-1.47-24.52-1.84-36.77-1.6,0,0-1.23,0-1.23,0,0,0-.62-.02-.62-.02,0,0-.31-.03-.31-.03-.1-.04-.21.02-.32-.15h0ZM227.57,369.4c.54.16,1.78.07,2.38.09,12.27-.3,24.62,0,36.81,1.4,12.95,1.47,26.29,4.4,36.97,12.28,0,0,.04.03.04.03,0,0,2.76,1.74,2.76,1.74.89.55,1.98.79,3.04,1.02,6.42,1.12,13.24,1.67,19.67.44,3.22-.86,2.59-1.88.32-3.46-.03-.03-.06-.06-.11-.1-.03-.06-.12-.06-.14-.35.03-.23.13-.27.22-.33.09-.04.12-.05.19-.05.59.02,1.11.31,1.65.51,5.58,2.51,10.78,5.81,15.81,9.28,3.66,2.52,7.06,5.42,10.75,7.76,2.73,1.73,5.91,2.84,9.1,2.13,6.41-1.34,2.73-9.55.38-13.09-2.52-3.54-6.04-6.39-9.31-9.23,0,0,.68-.72.68-.72,4.28,4.72,9.56,8.61,15.48,11,6,2.61,12.78,2.08,18.77,4.73,1.97.94,3.83,2.35,5.28,3.97,3.03,3.21,4.55,7.48,6.1,11.48,1.53,4.37,4.57,6.95,9.28,5.79,8.52-2.35,5.25-16.06,4.95-22.66-.69-10.93-5.26-17.75-15.5-21.89-.56-.25-1.05-.37-1.59-.68.06.08-.26-.17-.15-.52.05-.1.17-.2.3-.24.16-.04.1-.01.15-.02,0,0,.07,0,.07,0,.11,0,.17.02.25.03,20.5,4.77,14.05,28.52,20.48,31.27,5.2,1.17,10.9-8.77,11.08-13.22.44-4.19-.75-8.56-3.21-11.98-1.2-1.78-2.46-3.52-3.69-5.29,0,0,.59-.19.59-.19.34,5.48,7.41,7.24,10.21,2.31,5.61-10.22-6.68-18.51-15.98-18.52-25.02-.27-49.8,4.48-74.62,7.24-8.68,1.07-17.48,1.67-26.22,1.8-21.26-.77-42.56-.49-63.75,1.63-7.47.72-14.94,1.59-22.34,2.84-2.15.39-4.32.74-6.41,1.39-.27.1-.65.21-.76.4h0Z"/>
    </g>
    <g>
      <path class="cls-9" d="M103.09,355.78c6.83-4.93,12.4-.09,49.37,5.66,16.95,2.64,29.83,4.88,48.89,5.05,5.53.05,15.6-.47,35.73-1.52,11.86-.61,23.78-.32,35.59-1.5,15.02-1.5,21.9-3.37,28.65,1.24,5.26,3.6,4.39,7,11.06,11.11,7.24,4.47,11.12,1.79,17.3,6.67,1.87,1.48,9.1,6.99,8.42,13.84-.08.81-.28,2.95-1.85,4.57-1.73,1.78-4.25,2.03-6.35,2.04-14.26,0-27.33-8.6-27.33-8.6-2.98-1.97-7.05-5-11.33-9.45,1.86,1.2,4.85,3.49,6.95,7.35.36.65,5.12,9.43,1.43,13.47-.31.34-1.36,1.39-2.98,1.61-2.84.39-5.67-2.21-11.23-7.58-2.91-2.82-5.9-5.56-8.76-8.43-2.87-2.88-6.11-5.37-9.08-8.15,0,0-1.36-1.27-1.52-1.13-.34.3,6.41,5.58,7.45,12.31.69,4.44-.94,10.56-4.51,12.97-12.08,8.15-49.12-24.19-49.14-24.16,0,.01,5.49,3.14,9.67,9.15,3.04,4.38,3.84,8.07,3.84,11,0,1.65,0,5.32-1.75,6.06-1.96.83-4.38-2.83-10.25-7.63-6.52-5.33-12.17-9.96-16.05-8.44-3.43,1.34-2.04,6.14-5.14,8.35-8.7,6.21-37.91-18.32-37.47-19.14.09-.17,4.1,1.36,7.16,4.71,6.29,6.9,7.21,20.04,3.42,22.33-5.57,3.37-15.95-20-29.8-18.88-18.75,1.52-23.35,46.22-33.45,45.51-12.15-.85-26.94-65.97-6.95-80.4Z"/>
      <path class="cls-7" d="M103.06,355.74c5.24-3.83,11.97-1.29,17.75-.31,5.97,1.26,11.93,2.52,17.94,3.61,21,3.59,42.14,7.38,63.51,7.35,15.25-.23,30.45-1.62,45.7-1.96,6.1-.15,12.2-.26,18.28-.64,9.14-.34,18.19-2.62,27.37-2.08,4.62.4,9.07,2.82,11.78,6.61.92,1.24,1.72,2.52,2.72,3.65,3.02,3.35,7.23,5.59,11.65,6.45,2.99.55,6.15,1.1,8.71,2.88,5.98,3.95,13.15,11.85,8.5,19.23-1.98,2.69-5.61,2.85-8.63,2.67-7.69-.34-15.13-2.83-21.94-6.31-6.57-3.3-12.27-8.34-17.36-13.8,0,0,2.38,1.53,2.38,1.53,5.5,3.43,9.11,9.56,9.89,15.95.65,4.25-2.85,8.59-7.29,6.69-4.02-1.91-8.34-7-11.67-9.95-4.35-4.21-9.4-9.08-14-12.93-.6-.51-1.7-1.63-2.29-1.97-.09,0,.38.05.38-.34-.03-.18,0-.04.04-.02,0,0,.14.16.14.16,3.46,3.64,7.09,7.96,7.42,13.25.18,9.38-4.62,15.69-14.51,12.94-5.02-1.28-9.6-3.66-14.03-6.19-9.09-5.34-17.5-11.69-25.56-18.44,0,0-.18-.15-.18-.15,0-.03-.14-.07.08.01.29,0,.36-.13.48-.4-.11-.62-.2-.34-.1-.38,6.94,4.54,13.49,11.79,13.6,20.51-.06,1.94.06,4.14-1.22,5.81-1.75,1.93-4.08-.42-5.44-1.64-3.68-3.53-7.54-6.78-11.59-9.84-2.02-1.5-4.12-2.97-6.42-3.8-7.87-2.47-4.39,6.65-9.72,8.71-5.12,1.69-10.37-1.26-14.87-3.43-7.96-4.45-15.57-9.67-22.08-16.07-.06-.09-.11-.13-.19-.3.05-.02-.31-.25.21-.74.41-.12.33-.03.44-.04,8.64,2.9,13.11,12.42,13.08,21.07-.22,8.36-4.44,9.35-9.89,3.39-6.64-6.51-13.84-17.25-24.42-15.14-12.85,3.54-18.3,26.25-23.95,37.13-9.34,20.62-18.18-4.53-20.78-14.59-4.05-15.62-8.18-47.01,6.09-58.14h0ZM103.12,355.82c-14.17,11.17-9.87,42.44-5.79,57.96,1.31,5.1,8.22,27.78,15.87,20.75,3.45-3.67,5.12-8.71,7.13-13.28,3.97-9.28,7.22-19.46,14.5-26.78,9.41-9.01,19.48-1.95,26.67,5.85,4.3,4.22,13.04,16.37,13.56,2.75-.03-8.19-4.16-17.24-12.3-20.1.03-.02-.14.05.2-.05.47-.45.14-.57.23-.53,2.64,2.87,5.96,5.28,9.08,7.69,6.1,4.44,12.48,8.81,19.65,11.25,3.18,1.05,7.94,1.76,9.51-2.02.49-1.1.72-2.35,1.18-3.6.92-3.04,4.18-3.77,6.85-2.71,2.49.92,4.61,2.43,6.67,3.94,4.07,3.08,7.99,6.39,11.65,9.91,4.46,4.52,5.13,1.01,5.17-3.5.02-6.35-3.93-11.94-8.42-16.12-1.47-1.35-3.05-2.59-4.75-3.65.04-.07-.13.16-.3-.5.04-.32.27-.33.59-.3.27.12.91.73,1.17.93,9.56,7.75,33.47,27.24,45.8,24.05,4.82-1.56,6.41-7.68,6.22-12.27-.33-5.11-3.81-9.2-7.21-12.81-.15-.27-.27-.18-.36-.63,0-.49.58-.46.56-.42.13.03.14.05.2.08.09.05.17.1.24.15.71.48,1.56,1.39,2.18,1.92,2.84,2.55,5.82,4.94,8.52,7.67,0,0,5.49,5.3,5.49,5.3l5.5,5.28c3.28,3.11,8.54,8.14,11.8,2.13.93-2.28.41-4.92-.32-7.22-.79-2.38-1.83-4.71-3.32-6.71-1.48-2.02-3.36-3.73-5.47-5.09l.42-.51c3.4,3.54,7.17,6.71,11.27,9.41,7.72,4.71,16.53,8.07,25.62,8.52,2.88.17,6.27.08,8.13-2.42,1.7-2.39,1.69-5.8.61-8.48-1.12-2.78-3.15-5.12-5.38-7.14-2.25-1.99-4.69-3.88-7.63-4.66-2.92-.8-6.06-1.02-8.87-2.3-2.82-1.24-5.46-2.96-7.51-5.3-1.02-1.17-1.84-2.48-2.74-3.69-4.81-6.81-12.93-7.15-20.5-6.21-12.1,1.54-24.31,2.28-36.51,2.36-15.24.3-30.45,1.65-45.7,1.83-15.27.02-30.45-1.94-45.49-4.41-12.06-1.82-24.06-4.05-35.98-6.65-5.76-.98-12.44-3.52-17.67.28h0Z"/>
    </g>
    <path class="cls-18" d="M416.34,372.08c1.44-.8,3.21.21,3.98,1.5.78,1.3,1.26,2.67,2.19,3.85,1.83,2.3,4.13,4.01,6.67,5.53-3.7-.26-6.97-3.71-8.41-7.1-.64-1.89-1.98-4.59-4.39-3.69,0,0-.05-.09-.05-.09h0Z"/>
    <g>
      <path class="cls-9" d="M362.76,361.63c17.82-.41,35.69,6.43,48.5,18.55,2.72,2.58,5.37,6.5,3.47,9.7-1.47,2.47-4.83,2.96-7.74,3.2-3.13.25-6.39.48-9.3-.68-2.91-1.16-5.3-4.18-4.6-7.18"/>
      <path class="cls-19" d="M362.76,361.58c15.32-.44,30.76,4.37,43.08,13.53,3.05,2.37,6.21,4.67,8.45,7.9,1.8,2.45,2.41,6.33-.25,8.45-2.38,1.94-5.64,1.96-8.49,2.16-2.86.17-5.95.13-8.59-1.22-2.55-1.32-4.69-4.22-3.93-7.18,0,0,.1.02.1.02-.38,1.88.5,3.76,1.83,5.05,2.74,2.77,6.88,2.76,10.53,2.47,5.91-.19,12.24-2.25,7.97-9.21-2.07-3.1-5.21-5.48-8.1-7.8-12.07-9.35-27.59-14.06-42.6-14.17h0Z"/>
    </g>
    <path class="cls-18" d="M358.42,370.07c4.94.05,9.83,1.67,13.93,4.45,2.02,1.59,6.96,4.44,4.99,7.49-1.37,1.58-4.19-.3-5.36-1.34,0,0,.06-.08.06-.08,1.06.61,2.19,1.05,3.35,1.23.58.09,1.04.03,1.26-.33.81-1.6-.93-2.8-2.01-3.97-.86-.84-1.78-1.62-2.74-2.35-3.86-2.97-8.86-4.52-13.47-5.1h0Z"/>
    <g>
      <path class="cls-9" d="M318.57,372.29c14.83,1.1,29.02,8.21,39.15,19.61"/>
      <path class="cls-19" d="M318.58,372.24c14.87.91,29.94,7.71,39.18,19.63,0,0-.07.07-.07.07-10.88-10.78-23.91-18.04-39.1-19.7h0Z"/>
    </g>
    <path class="cls-16" d="M309.12,352.13c7.73-12.66,13.11-26.48,17.08-40.72,0,0,.1.02.1.02-.99,7.37-3.35,14.51-6.43,21.26-3.05,6.68-6.59,13.62-10.74,19.44h0Z"/>
    <path class="cls-16" d="M247.5,346.84c8.72-1.47,13.59-8.56,17.41-15.85,0,0,.09.04.09.04-1.88,8.01-9.3,15.31-17.51,15.81h0Z"/>
    <path class="cls-9" d="M367.11,299.82c1.05,15.99-.71,32.48-6.63,47.45,0,0-.1-.03-.1-.03,1.97-7.78,3.87-15.54,5.19-23.45,1.34-7.85,1.56-16.18,1.54-23.97h0Z"/>
    <path class="cls-5" d="M273.39,349.74c-6.45-6.7,4.41-17.14,8.39-22.59,1.8-2.27,3.46-4.64,4.99-7.08,5.92-9.71,9.66-21.75,5.54-32.85,1.43,2.28,2.07,5.56,2.41,8.39,1.14,11.93-5.15,23.02-12.43,31.95-4.21,5.55-14.82,15.21-8.9,22.18h0Z"/>
    <path class="cls-5" d="M283,247.03c8.68,2.18,17.76,7.81,19.64,17.21.9,4.53.71,9.11.55,13.7-.41,4.47-1.01,9.4-2.68,13.39,1.15-5.57,1.77-11.17,1.76-16.83.03-3.26.2-6.92-.41-10.1-1.69-9.46-10.57-14.65-18.85-17.37h0Z"/>
    <path class="cls-9" d="M312.43,298.93c-.93,5.22-1.89,10.43-2.87,15.63-.98,5.14-1.84,10.71-3.66,15.47.55-5.29,1.63-10.47,2.87-15.63,1.24-5.08,2.22-10.63,3.66-15.47h0Z"/>
    <path class="cls-5" d="M332.87,341.52c11.65-8.11,16.04-22.43,16.91-35.99,0,0,.1,0,.1,0,1.11,13.68-5.31,28.77-17.01,35.99h0Z"/>
    <path class="cls-16" d="M358.39,316.56c4.31-11.58,4.13-24.13,3.39-36.29,0,0,.05,0,.05,0,1.67,12.04,1.09,25.01-3.44,36.29h0Z"/>
    <path class="cls-9" d="M166.87,169.28c-3.55,15.51,2.72,31.8,14,42.63,0,0-.03.04-.03.04-11.99-10.19-17.86-27.43-13.97-42.66h0Z"/>
    <path class="cls-16" d="M179.57,182.51c-2.33,13.38,4.7,26.54,15.41,34.32,0,0-.03.04-.03.04-11.34-6.99-18.08-21.29-15.38-34.36h0Z"/>
    <path class="cls-7" d="M221.15,237.01c-20.42-3.02-40.53-11.96-54.68-27.28,0,0,.05-.05.05-.05,14.94,14.36,34.32,23.94,54.63,27.32h0Z"/>
    <path class="cls-16" d="M198.27,197.91c7.91,16.1,25.63,24.48,42.38,28.26,0,0,0,.05,0,.05-16.81-2.78-35.05-12.33-42.37-28.3h0Z"/>
    <path class="cls-16" d="M213.03,195.6c7.01,16.69,39.3,25.87,55.98,28.19,0,0,0,.05,0,.05-16.09-1.73-32.17-6.83-45.53-16.1-4.21-3.17-8.81-7.06-10.44-12.14h0Z"/>
    <path class="cls-5" d="M272.64,265.71c-1.38-11.35-16.69-19.48-26.27-23.47,0,0,.02-.05.02-.05,9.57,2.8,25.63,12.65,26.26,23.51h0Z"/>
    <path class="cls-5" d="M265.88,341.58c-12.14,15.24-32.36,24.36-51.81,20.55,0,0,0-.05,0-.05,19.95,2.77,38.99-5.29,51.8-20.5h0Z"/>
    <path class="cls-9" d="M205.57,321.2c11.24-1.41,22.71-1.96,33.96-.4,0,0,0,.05,0,.05-11.29-.66-22.78-.79-33.95.35h0Z"/>
    <path class="cls-16" d="M198.65,324.06c-24.87,3.72-49.33,10.14-72.61,19.66,0,0-.02-.05-.02-.05,22.92-10.33,47.89-16.21,72.63-19.61h0Z"/>
    <path class="cls-5" d="M131.48,348.9c8.6-7.1,19.7-10.71,30.68-11.92,0,0,0,.02,0,.02-10.9,1.65-22.01,4.92-30.68,11.9h0Z"/>
    <path class="cls-9" d="M185.11,333.95c13.07-3.54,26.54-5.83,40.1-6.22,0,0,0,.03,0,.03-13.51.83-27.04,2.81-40.1,6.2h0Z"/>
    <path class="cls-9" d="M191.97,361.39c-8.97-.87-17.97-2.54-26.56-5.11,8.77,2.09,17.63,4.13,26.56,5.11h0Z"/>
    <path class="cls-16" d="M190.99,336.98c-9.96,2.33-19.55,6.02-28.64,10.68,0,0-.01-.02-.01-.02,8.88-5.04,18.74-8.49,28.66-10.65h0Z"/>
    <path class="cls-18" d="M199.12,343.89c3.4-2.48,7.41-4.18,11.6-4.68,1.26-.15,10.38-1.44,7.48,1.63-.7.79-1.92,1.24-2.89,1.06,1.04.02,2.1-.38,2.77-1.17,2.67-2.64-6.23-1.39-7.34-1.33-4.18.42-8.2,2.16-11.63,4.48h0Z"/>
    <path class="cls-9" d="M203.19,352c-2.45,3.29-7.25,2.95-10.92,2.76-2.62-.27-5.59-.5-7.6-2.43-.15-.17-.39-.44-.23-.75.77-.69,1.95-.67,2.86-.56-.89.01-2.05.03-2.72.65-.1.16.06.38.22.54,2.04,1.79,4.9,2.04,7.49,2.36,3.66.26,8.4.59,10.9-2.56h0Z"/>
    <path class="cls-16" d="M211.05,346.44c-.04.8-.85,1.26-1.47,1.6-.39.22-.91.48-1.41.35-.15-.06-.34-.02-.38-.33.17-.35.37-.31.56-.37l.02.04c-.09.08-.3.38-.23.34-.01-.13-.06-.12-.02-.11.95-.13,2.55-.48,2.88-1.53,0,0,.05,0,.05,0h0Z"/>
    <path class="cls-9" d="M370.48,347.25c6.46.08,13.03.7,19.27,2.18-6.38-.99-12.85-1.99-19.27-2.18h0Z"/>
    <g>
      <path class="cls-9" d="M302.8,383.15c8.27-.13,16.57,2.06,22.52,5.94,1.26.82,2.49,2.08,1.61,3.1-.68.79-2.24.95-3.59,1.02-1.45.08-2.97.16-4.32-.22-1.35-.37-2.46-1.34-2.13-2.3"/>
      <path class="cls-19" d="M302.8,383.1c6.53-.22,13.18.91,19.2,3.67,1.84.94,3.93,1.75,5.3,3.44,1.82,2.93-2.39,3.55-4.41,3.46-2,.02-4.54.05-5.88-1.73-.26-.35-.36-.85-.18-1.25l.09.03c0,3.04,6.31,2.14,8.27,1.78,4.34-1.08-2.06-4.18-3.55-5.01-5.77-2.98-12.6-4.06-18.85-4.39h0Z"/>
    </g>
    <path class="cls-18" d="M272.78,382.04c4.96.06,9.85,1.71,13.95,4.51,2.03,1.61,6.93,4.47,4.97,7.54-.24.32-.65.56-1.04.61-1.64.04-3.17-.92-4.33-1.95,0,0,.06-.08.06-.08,1.06.62,2.2,1.06,3.36,1.24.59.09,1.04.03,1.25-.33.8-1.61-.92-2.82-2-4.01-.85-.85-1.78-1.63-2.74-2.37-3.85-3-8.86-4.58-13.49-5.16h0Z"/>
    <path class="cls-18" d="M173.05,382.04c4.96.06,9.85,1.71,13.95,4.51,2.03,1.61,6.93,4.47,4.97,7.54-.24.32-.65.56-1.04.61-1.64.04-3.17-.92-4.33-1.95,0,0,.06-.08.06-.08,1.06.62,2.2,1.06,3.36,1.24.59.09,1.04.03,1.25-.33.8-1.61-.92-2.82-2-4.01-.85-.85-1.78-1.63-2.74-2.37-3.85-3-8.86-4.58-13.49-5.16h0Z"/>
    <path class="cls-18" d="M215.8,388c.7-.5,1.68-.36,2.4.07,2.16,1.38,2.33,4.25,3.73,6.21,1.76,2.67,4.03,4.82,6.72,6.58-4-.61-7.09-4.71-8.42-8.45-.61-1.95-1.73-5.41-4.38-4.33,0,0-.05-.08-.05-.08h0Z"/>
    <g>
      <path class="cls-9" d="M121.96,380.58c14.71-2.18,30.11,1.7,42.48,10.72"/>
      <path class="cls-19" d="M121.96,380.53c14.72-2.38,30.93,1.04,42.52,10.73,0,0-.06.08-.06.08-12.94-8.22-27.25-12.53-42.46-10.81h0Z"/>
    </g>
    <g>
      <path class="cls-9" d="M105.29,358.82c11.09-.04,19.38,2.11,24.87,4.07,7.19,2.56,10.44,5.08,17.61,6.65,8.28,1.81,15.46.96,20.13,0"/>
      <path class="cls-19" d="M105.29,358.77c10.77-.22,21.62,1.85,31.43,6.36,9.67,4.7,20.57,6.1,31.18,4.36,0,0,.02.1.02.1-10.49,2.85-21.94,1.35-31.53-3.72-9.63-4.76-20.61-6.76-31.1-7.09h0Z"/>
    </g>
    <path class="cls-18" d="M115.21,394.94c3.41,6.47,3.47,14.24,1.65,21.22-1.28,3.99-2.31,10.23-7.09,11.31-1.15.27-2.27-.43-2.42-1.61-.39-1.86-.16-3.74.45-5.44l.1.03c-.33,1.76-.36,3.59.13,5.24.23.83.76,1.15,1.59.94,2.6-.68,3.69-3.26,4.68-5.64.7-1.64,1.31-3.32,1.8-5.03,2.09-6.84,1.91-14.57-.88-21.01h0Z"/>
    <g>
      <path class="cls-9" d="M108.87,405.7c1.59,2.77,2.14,6.19,1.49,9.26-.14.65-.48,1.41-1.1,1.39-.48-.02-.84-.5-1.13-.94-.31-.47-.62-.97-.7-1.53s.15-1.2.64-1.35"/>
      <path class="cls-19" d="M108.92,405.68c1.84,2.91,2.61,6.64,1.72,10.07-.33,1.07-1.58,1.52-2.38.63-.52-.64-.82-1.19-1.05-1.97-.2-.7.02-1.79.85-1.92,0,0,.03.1.03.1-1.09.89.21,2.36.87,3.08.84.76,1.1-1.55,1.21-2.14.33-2.62-.13-5.37-1.34-7.8l.09-.05h0Z"/>
    </g>
    <g>
      <path class="cls-9" d="M228.66,375.99c12.17-.31,24.37,4.82,33.12,13.92,1.86,1.93,3.67,4.88,2.37,7.28-1,1.85-3.3,2.22-5.29,2.4-2.14.19-4.37.36-6.35-.51-1.98-.87-3.62-3.14-3.14-5.38"/>
      <path class="cls-19" d="M228.66,375.94c5.37-.18,10.77.68,15.86,2.44,5.08,1.81,9.84,4.52,14.02,7.95,2.05,1.81,4.21,3.51,5.62,5.93,2.9,5.45-1.27,7.91-6.36,7.84-1.35.07-2.75.09-4.11-.27-2.68-.58-5.09-3.34-4.37-6.15,0,0,.1.02.1.02-.2,1.32.3,2.64,1.16,3.6,1.74,2.1,4.62,2.19,7.16,1.94,7.49-.18,8.03-4.76,3.17-9.56-4.62-4.79-10.33-8.47-16.56-10.83-4.94-1.98-10.57-2.69-15.69-2.91h0Z"/>
    </g>
    <g>
      <path class="cls-9" d="M422.46,361.61c4.54-.1,9.1,1.63,12.36,4.7.69.65,1.37,1.65.88,2.46-.37.62-1.23.75-1.97.81-.8.06-1.63.12-2.37-.17-.74-.29-1.35-1.06-1.17-1.82"/>
      <path class="cls-19" d="M422.46,361.56c4.89-.24,10.12,1.55,13.44,5.25.87,1.12.52,2.7-.95,3.06-1.1.22-2.03.25-3.1.03-1-.2-2.09-1.24-1.71-2.33,0,0,.1.02.1.02-.03.48.21.89.56,1.16,1.04.82,2.69.42,3.86.17,1.93-.77-.64-2.74-1.52-3.5-3.02-2.5-7.01-3.52-10.67-3.86h0Z"/>
    </g>
    <g>
      <path class="cls-9" d="M227.77,371.19c10.88-2.17,19.42-1.65,25.19-.79,7.55,1.13,11.22,2.98,18.56,3.14,8.48.19,15.35-2.03,19.76-3.87"/>
      <path class="cls-19" d="M227.76,371.14c10.52-2.29,21.57-2.34,32.06.2,10.4,2.75,21.36,2.04,31.43-1.72,0,0,.04.09.04.09-9.75,4.81-21.27,5.54-31.65,2.41-10.36-2.82-21.53-2.67-31.88-.98h0Z"/>
    </g>
    <path class="cls-18" d="M410.53,404.25c1.92-.07,3.61,1.2,4.78,2.64.51.51.91,1.8.06,2.34-.66.28-1.19-.41-1.39-.88,0,0,.07-.07.07-.07.33.17.68.28.94.29.06,0,.02-.04-.04-.02-.05.02-.05.02-.05-.03-.44-1.92-2.35-3.8-4.38-4.16,0,0,0-.1,0-.1h0Z"/>
  </g>
</svg>