<?xml version="1.0" encoding="UTF-8"?>
<svg id="Layer_1" xmlns="http://www.w3.org/2000/svg" version="1.1" viewBox="0 0 100 100">
  <!-- Generator: Adobe Illustrator 30.0.0, SVG Export Plug-In . SVG Version: 2.1.1 Build 123)  -->
  <path d="M47.05,9.27c.46.02.85.25,1.06.45.05.05.1.1.14.14,0,.01.02.02.03.03,0,0,.01.01.02.02.01.01.02.03.03.04.04.05.07.1.1.15.1.18.15.31.17.37.02.07.04.13.05.19.01.06.02.09.03.13.01.08.03.15.03.2.1.85.09,1.43.08,2.14,0,.41-.02.77-.04,1.13-.2,4.41-.67,5.51-.56,11.2.11,6.14-.03,12.27.35,14.98.08.62.12,1.11.12,1.55.03,1.48-.28,2.36.12,5.33.53,3.84.75,6.17,1.06,9.55.18,2.05.87,6.67,1.77,10.77.57,2.65,1.21,5.06,1.7,6.47.57,1.64,1.07,3.4,1.57,5.06h0c.65,1.94,1.27,3.76,1.92,5,.1.18.19.35.28.51h0c.25.45.59.69.9.89.17.11.25.18.23.22h0s-.18.03-.43-.09c-.33-.16-.73-.44-.99-.83,0,0,0,0,0,0-.68-.98-1.38-2.28-2.14-3.76-.3-.59-.54-1.11-.75-1.58,0,0,0-.01,0-.01-1.03-2.64-1.14-3.75-2.46-8.46-.31-1.13-.59-2.18-.86-3.18-1.02-3.9-1.86-7.13-2.47-12.52-.58-5.49-1.4-7.48-1.74-13.21-.07-1.33-.11-2.86-.08-4.67.19-7.93-.41-9.99-.67-15.85-1.1,3.88-2.11,7.31-2.74,9.68-.3,1.11-.62,2.31-.98,3.56-.84,2.78-1.61,6.01-3.5,9.2-.69,1.17-1.39,2.35-2.17,3.56-.39.6-.8,1.21-1.26,1.82-.24.31-.48.61-.79.93-.35.3-.55.7-1.59.97-.03,0-.06,0-.09.01-.5.1-1.23-.16-1.54-.51-.34-.33-.47-.63-.58-.89-1.04-3.28-1.36-6.59-1.58-10.01-.47,5.32-.86,10.31-1.15,13.38-.52,5.85-.64,7.27-.83,12.92-.01.41-.03.88-.05,1.32-.14,3.09-.42,6.87-.82,10.15-.23,1.89-.39,1.45-.37-.46.02-2.8.23-5.09.08-6.54-.13-1.28-.22-2.23-.25-3.22-.03-1.23.05-2.51.3-4.54.46-3.61-.04-5.36.14-7.48.19-2.12.52-2.06.89-12.84.26-7.13.48-12.11.79-15.89.05-.52.09-.95.16-1.45.04-.26.06-.46.17-.84.02-.06.04-.12.07-.19,0,0,0-.02.01-.03,0,0,0-.02.02-.04.02-.04.04-.08.07-.12.05-.09.12-.2.28-.34.04-.03.08-.07.13-.11.03-.02.04-.03.09-.06.05-.03.11-.06.18-.09.27-.12.67-.14.97-.03.3.1.5.28.58.37.06.06.1.12.14.17.07.1.11.18.14.25.03.07.05.13.06.15.04.12.07.24.08.31.02.07.03.14.04.21.15.97.18,1.66.23,2.39.15,2.21.17,5.67.25,9.4.09,3.24.28,6.72.84,9.66.12.61.26,1.3.46,1.95.08-.1.16-.2.24-.3.37-.49.74-1.05,1.11-1.63.74-1.16,1.47-2.41,2.21-3.66,1.64-2.73,2.48-6,3.25-8.6.38-1.35.69-2.55.92-3.5,1.26-5.29,1.63-5.21,2.95-9.41.65-2.08.95-4.02,1.25-6.07.16-1.05.3-2.11.53-3.29.06-.3.12-.59.22-.94.03-.09.05-.18.09-.29,0-.03.02-.05.03-.08.01-.03.03-.07.04-.1.01-.04.03-.07.05-.11.02-.05.05-.11.09-.17.02-.03.03-.06.07-.11.04-.06.09-.12.15-.19.03-.04.07-.08.12-.12.05-.05.08-.07.2-.16.21-.14.58-.32,1.04-.29ZM30.34,25.25s0,.01,0,.02c0,0,0,0,0-.01,0-.02,0-.02,0,0Z"/>
  <path d="M56.83,18.12c.32-.01.64-.04,1.06.07.2.05.51.2.63.52.1.3.05.51.04.69-.01.15,0,.26.05.43,1.09,3.07,2.33,5.45,3.17,7.37.91,1.98,1.59,3.46,2.15,4.66,1.09,2.36,3.23,7.36,5.01,11.2,1.42,3.08,3.95,8.72,5.63,12.49.42.95.79,1.78,1.08,2.42,1.41,3.18,1.31,3.24,2.16,5.94.33,1.09.6,2.12.8,3.16.31,1.54.62,3.14.75,5.2.14,2.58.05,3.52-.06,5.51-.05.69-.2,1.48-.53,2.43-1.27,3.4-3.75,6.02-4.95,7.57-.17.2-.32.38-.47.53-1.4,1.25-1.74,1.2-4.19,1.9-1.55.37-2.75.45-3.95.53-.77.04-1.53-.04-2.36-.22-.98-.19-2.77-.77-4.62-1.48-2.36-.87-4.81-2.07-6-2.76-1.63-.88-3.13-2.31-4.19-3.49,0,0,0,0,0,0-.27-.34-.49-.69-.65-1.01-.04-.09-.08-.17-.11-.26-.2-.49-.28-.89-.34-1.2-.03-.13-.02-.19-.01-.2.02,0,.06.08.1.25.11.38.24.85.51,1.33.17.31.4.63.68.93.21.19.44.4.67.61,2.07,1.75,2.19,2.1,5.48,3.78,1.48.7,2.74,1.16,4.04,1.61,1.64.53,3.3,1.23,5.66,1.51.4.04.77.04,1.12.02,3.02-.41,4.93-.09,8.03-2.86.27-.31.55-.63.86-.98,3.13-3.82,3.9-5.21,4.29-8.56.01-.77,0-1.67-.05-2.74-.1-2.46-.33-5.19-.68-7.78-.47-3.62-2.1-6.86-2.88-8.84-.33-.76-.69-1.57-1.07-2.44-1.31-2.95-2.9-6.45-4.51-10.13-2.09-4.75-4.85-10.53-7.12-15.79-.34-.78-.69-1.61-1.06-2.47-1.04-2.65-2.53-5.24-3.06-8.21.02-.18.04-.33.01-.41,0-.04-.02-.05-.04-.07-.02-.02-.07-.05-.13-.07-.24-.08-.58-.09-.88-.08-1.64.12-3.13.42-4.23.55-1.84.23-3.01.31-4.15.37-1.2.05-2.36.12-4.23.23-2.1.12-5,.22-7.45.19-1.24-.02-.95-.09.28-.15,1.81-.1,3.3-.12,4.23-.24,1.86-.24,2.64-.34,5.01-.36.86,0,1.54-.05,2.14-.1,1.04-.09,1.79-.25,2.65-.34,1.18-.11,1.26-.11,5.73-.73Z"/>
  <path d="M60.09,61.47c.49-.14,1.2-.23,1.79-.15.3.04.23.11-.06.15-.42.07-.78.09-.98.21-.4.24-.56.34-1.11.38-.56.05-.73.36-1.03.45-.29.11-.4-.1-1.73.83-.27.2-.5.39-.7.58-.65.64-.73,1.32-.81,1.76-.11.56-.23,1.86-.05,2.87.13.88.48,2.55.74,3.55.03.13.07.25.1.34.29.72.17.77.41,1.39.26.62.86.83,1.34,1.48.29.4.39.64.57.92.09.15.23.32.52.48.42.22.92.38,1.35.48.27,0,.49-.02.63-.07.39-.13.47.11,1.03-.07.56-.19.89-.26,1.4-.38.47-.08,1.75-.72,2.17-1.26l-.02.03s.05-.09.07-.13c.24-.54.7-1.05.92-1.4.07-.11.13-.19.18-.25.02-.03.04-.03.06-.03.02,0,.02.04,0,.08-.08.19-.19.48-.3.83-.18.55-.32.64-.63,1.11,0,0-.02.03-.03.03-.08.08-.18.17-.29.28-.69.62-1.13,1.03-2.18,1.35-1.04.26-1.22.72-2.78.66-.09,0-.17-.01-.26-.02-.02,0-.06,0-.08,0-1.08-.37-1.55-.16-2.53-1-.1-.09-.2-.19-.3-.31-1.06-1.07-2.01-2.94-2.22-3.91-.04-.13-.08-.27-.11-.42-.19-.8-.48-1.85-.61-2.98-.15-1.3-.47-2.98.09-4.49.2-.54.57-1.16,1.13-1.56.86-.62,1.81-1.04,2.36-1.22.88-.28,1.1-.33,1.95-.59Z"/>
</svg>