<?xml version="1.0" encoding="UTF-8"?>
<svg id="Layer_1" xmlns="http://www.w3.org/2000/svg" version="1.1" viewBox="0 0 14.62 14.62">
  <!-- Generator: Adobe Illustrator 30.0.0, SVG Export Plug-In . SVG Version: 2.1.1 Build 123)  -->
  <path d="M5.09,14.47c.72.22,1.45.34,2.22.34,1.99,0,3.9-.79,5.3-2.2s2.2-3.31,2.2-5.3c0-.98-.19-1.96-.57-2.87-.38-.91-.93-1.74-1.63-2.43-.7-.7-1.52-1.25-2.43-1.63C9.27,0,8.3-.19,7.31-.19S5.35,0,4.44.38c-.91.38-1.74.93-2.43,1.63C.6,3.42-.19,5.32-.19,7.31c0,3.19,2,5.93,4.83,7-.07-.58-.13-1.55,0-2.22l.86-3.7s-.22-.43-.22-1.12c0-1.03.64-1.81,1.38-1.81.65,0,.95.47.95,1.08,0,.65-.43,1.57-.65,2.45-.13.73.39,1.38,1.14,1.38,1.34,0,2.37-1.43,2.37-3.44,0-1.8-1.29-3.03-3.14-3.03-2.12,0-3.36,1.58-3.36,3.23,0,.64.21,1.3.56,1.72.07.05.07.11.04.22l-.22.82c0,.13-.08.17-.21.08-.96-.42-1.51-1.78-1.51-2.89,0-2.37,1.68-4.52,4.92-4.52,2.58,0,4.59,1.85,4.59,4.31s-1.6,4.65-3.89,4.65c-.73,0-1.44-.39-1.69-.85l-.5,1.78c-.17.64-.64,1.51-.97,2.02v-.02Z"/>
</svg>